LateefReg.ufo
<glyph name="exclam.arab" format="1">
  <advance width="494"/>
  <unicode hex="0021"/>
  <outline>
    <contour>
      <point x="248" y="184" type="curve"/>
      <point x="211" y="184"/>
      <point x="154" y="129"/>
      <point x="154" y="90" type="curve" smooth="yes"/>
      <point x="154" y="51"/>
      <point x="211" y="-6"/>
      <point x="248" y="-6" type="curve" smooth="yes"/>
      <point x="287" y="-6"/>
      <point x="342" y="51"/>
      <point x="342" y="90" type="curve" smooth="yes"/>
      <point x="342" y="129"/>
      <point x="287" y="184"/>
    </contour>
    <contour>
      <point x="184" y="809" type="line"/>
      <point x="184" y="528" type="line" smooth="yes"/>
      <point x="184" y="506"/>
      <point x="186" y="444"/>
      <point x="198" y="379" type="curve" smooth="yes"/>
      <point x="207" y="332"/>
      <point x="215" y="303"/>
      <point x="227" y="260" type="curve"/>
      <point x="276" y="287" type="line"/>
      <point x="276" y="571" type="line" smooth="yes"/>
      <point x="276" y="598"/>
      <point x="287" y="743"/>
      <point x="297" y="803" type="curve" smooth="yes"/>
      <point x="307" y="870"/>
      <point x="309" y="887"/>
      <point x="315" y="932" type="curve"/>
    </contour>
  </outline>
</glyph>
<glyph name="parenleft.arab" format="1">
  <advance width="709"/>
  <unicode hex="0028"/>
  <outline>
    <contour>
      <point x="502" y="-20" type="line"/>
      <point x="362" y="165"/>
      <point x="311" y="342"/>
      <point x="311" y="570" type="curve" smooth="yes"/>
      <point x="311" y="845"/>
      <point x="414" y="1010"/>
      <point x="449" y="1065" type="curve"/>
      <point x="414" y="1100" type="line"/>
      <point x="356" y="1024"/>
      <point x="211" y="829"/>
      <point x="211" y="508" type="curve" smooth="yes"/>
      <point x="211" y="174"/>
      <point x="328" y="8"/>
      <point x="428" y="-119" type="curve"/>
    </contour>
  </outline>
</glyph>
<glyph name="plus" format="1">
  <advance width="983"/>
  <unicode hex="002B"/>
  <outline>
    <contour>
      <point x="446" y="844" type="line"/>
      <point x="446" y="514" type="line"/>
      <point x="119" y="514" type="line"/>
      <point x="119" y="430" type="line"/>
      <point x="446" y="430" type="line"/>
      <point x="446" y="100" type="line"/>
      <point x="530" y="100" type="line"/>
      <point x="530" y="430" type="line"/>
      <point x="860" y="430" type="line"/>
      <point x="860" y="514" type="line"/>
      <point x="530" y="514" type="line"/>
      <point x="530" y="844" type="line"/>
    </contour>
  </outline>
</glyph>
<glyph name="colon.arab" format="1">
  <advance width="598"/>
  <unicode hex="003A"/>
  <outline>
    <contour>
      <point x="299" y="186" type="curve"/>
      <point x="260" y="186"/>
      <point x="205" y="131"/>
      <point x="205" y="92" type="curve" smooth="yes"/>
      <point x="205" y="53"/>
      <point x="260" y="-2"/>
      <point x="299" y="-2" type="curve" smooth="yes"/>
      <point x="338" y="-2"/>
      <point x="393" y="53"/>
      <point x="393" y="92" type="curve" smooth="yes"/>
      <point x="393" y="131"/>
      <point x="338" y="186"/>
    </contour>
    <contour>
      <point x="299" y="580" type="curve"/>
      <point x="260" y="580"/>
      <point x="205" y="522"/>
      <point x="205" y="485" type="curve" smooth="yes"/>
      <point x="205" y="446"/>
      <point x="260" y="391"/>
      <point x="299" y="391" type="curve" smooth="yes"/>
      <point x="338" y="391"/>
      <point x="393" y="446"/>
      <point x="393" y="485" type="curve" smooth="yes"/>
      <point x="393" y="522"/>
      <point x="338" y="580"/>
    </contour>
  </outline>
</glyph>
<glyph name="less" format="1">
  <advance width="770"/>
  <unicode hex="003C"/>
  <outline>
    <contour>
      <point x="629" y="51" type="line"/>
      <point x="209" y="471" type="line"/>
      <point x="629" y="893" type="line"/>
      <point x="561" y="893" type="line"/>
      <point x="141" y="471" type="line"/>
      <point x="561" y="51" type="line"/>
    </contour>
  </outline>
</glyph>
<glyph name="equal" format="1">
  <advance width="983"/>
  <unicode hex="003D"/>
  <outline>
    <contour>
      <point x="942" y="659" type="line"/>
      <point x="66" y="659" type="line"/>
      <point x="66" y="559" type="line"/>
      <point x="942" y="559" type="line"/>
    </contour>
    <contour>
      <point x="942" y="385" type="line"/>
      <point x="66" y="385" type="line"/>
      <point x="66" y="285" type="line"/>
      <point x="942" y="285" type="line"/>
    </contour>
  </outline>
</glyph>
<glyph name="braceright" format="1">
  <advance width="539"/>
  <unicode hex="007D"/>
  <outline>
    <contour>
      <point x="373" y="856" type="line"/>
      <point x="373" y="969"/>
      <point x="352" y="1104"/>
      <point x="129" y="1104" type="curve" smooth="yes"/>
      <point x="125" y="1034" type="line"/>
      <point x="287" y="1034"/>
      <point x="299" y="981"/>
      <point x="299" y="856" type="curve" smooth="yes"/>
      <point x="299" y="487" type="line" smooth="yes"/>
      <point x="299" y="379"/>
      <point x="389" y="311"/>
      <point x="389" y="307" type="curve" smooth="yes"/>
      <point x="389" y="307"/>
      <point x="299" y="225"/>
      <point x="299" y="125" type="curve" smooth="yes"/>
      <point x="299" y="-250" type="line" smooth="yes"/>
      <point x="299" y="-377"/>
      <point x="270" y="-418"/>
      <point x="123" y="-420" type="curve"/>
      <point x="123" y="-481" type="line"/>
      <point x="357" y="-481"/>
      <point x="373" y="-376"/>
      <point x="373" y="-250" type="curve" smooth="yes"/>
      <point x="373" y="125" type="line" smooth="yes"/>
      <point x="373" y="225"/>
      <point x="469" y="299"/>
      <point x="469" y="307" type="curve" smooth="yes"/>
      <point x="469" y="309"/>
      <point x="373" y="371"/>
      <point x="373" y="487" type="curve" smooth="yes"/>
    </contour>
  </outline>
</glyph>
<glyph name="nobreakspace" format="1">
  <advance width="465"/>
  <unicode hex="00A0"/>
  <outline>
    <contour>
      <point x="321" y="1060" type="move" name="diaA"/>
    </contour>
    <contour>
      <point x="321" y="-49" type="move" name="diaB"/>
    </contour>
  </outline>
</glyph>
<glyph name="onehalf" format="1">
  <advance width="1188"/>
  <unicode hex="00BD"/>
  <outline>
    <contour>
      <point x="1063" y="113" type="line"/>
      <point x="1044" y="113" type="line"/>
      <point x="1008" y="59"/>
      <point x="973" y="63"/>
      <point x="913" y="63" type="curve" smooth="yes"/>
      <point x="752" y="63" type="line"/>
      <point x="846" y="162"/>
      <point x="1024" y="322"/>
      <point x="1024" y="463" type="curve" smooth="yes"/>
      <point x="1024" y="563"/>
      <point x="942" y="627"/>
      <point x="848" y="627" type="curve" smooth="yes"/>
      <point x="741" y="627"/>
      <point x="684" y="551"/>
      <point x="672" y="453" type="curve"/>
      <point x="688" y="453" type="line"/>
      <point x="711" y="518"/>
      <point x="754" y="557"/>
      <point x="823" y="557" type="curve" smooth="yes"/>
      <point x="899" y="557"/>
      <point x="946" y="492"/>
      <point x="946" y="422" type="curve" smooth="yes"/>
      <point x="946" y="270"/>
      <point x="756" y="106"/>
      <point x="653" y="12" type="curve"/>
      <point x="653" y="-6" type="line"/>
      <point x="1018" y="-6" type="line"/>
    </contour>
    <contour>
      <point x="922" y="1040" type="line"/>
      <point x="850" y="1040" type="line"/>
      <point x="199" y="-12" type="line"/>
      <point x="272" y="-12" type="line"/>
    </contour>
    <contour>
      <point x="371" y="395" type="line"/>
      <point x="371" y="414" type="line"/>
      <point x="289" y="414"/>
      <point x="291" y="430"/>
      <point x="291" y="506" type="curve" smooth="yes"/>
      <point x="291" y="1028" type="line"/>
      <point x="274" y="1028" type="line"/>
      <point x="125" y="954" type="line"/>
      <point x="131" y="938" type="line"/>
      <point x="145" y="946"/>
      <point x="162" y="952"/>
      <point x="180" y="952" type="curve" smooth="yes"/>
      <point x="221" y="952"/>
      <point x="215" y="879"/>
      <point x="215" y="852" type="curve" smooth="yes"/>
      <point x="215" y="498" type="line" smooth="yes"/>
      <point x="215" y="426"/>
      <point x="209" y="414"/>
      <point x="135" y="414" type="curve"/>
      <point x="135" y="395" type="line"/>
    </contour>
  </outline>
</glyph>
<glyph name="dotlessi" format="1">
  <advance width="430"/>
  <unicode hex="0131"/>
  <outline>
    <contour>
      <point x="395" y="0" type="line"/>
      <point x="395" y="29" type="line"/>
      <point x="305" y="29"/>
      <point x="289" y="53"/>
      <point x="289" y="141" type="curve" smooth="yes"/>
      <point x="289" y="711" type="line"/>
      <point x="256" y="711" type="line"/>
      <point x="47" y="627" type="line"/>
      <point x="57" y="600" type="line"/>
      <point x="76" y="606"/>
      <point x="94" y="612"/>
      <point x="111" y="612" type="curve" smooth="yes"/>
      <point x="160" y="612"/>
      <point x="164" y="545"/>
      <point x="164" y="510" type="curve" smooth="yes"/>
      <point x="164" y="141" type="line" smooth="yes"/>
      <point x="164" y="53"/>
      <point x="147" y="29"/>
      <point x="57" y="29" type="curve"/>
      <point x="57" y="0" type="line"/>
    </contour>
    <contour>
      <point x="221" y="760" type="move" name="above"/>
    </contour>
  </outline>
</glyph>
<glyph name="absNameMarker" format="1">
  <advance width="0"/>
  <unicode hex="0614"/>
  <outline>
    <contour>
      <point x="96" y="1497" type="line"/>
      <point x="131" y="1495"/>
      <point x="166" y="1493"/>
      <point x="201" y="1493" type="curve" smooth="yes"/>
      <point x="346" y="1493"/>
      <point x="496" y="1505"/>
      <point x="639" y="1526" type="curve"/>
      <point x="657" y="1442"/>
      <point x="700" y="1401"/>
      <point x="788" y="1401" type="curve" smooth="yes"/>
      <point x="913" y="1401"/>
      <point x="977" y="1589"/>
      <point x="977" y="1692" type="curve" smooth="yes"/>
      <point x="977" y="1704"/>
      <point x="977" y="1716"/>
      <point x="975" y="1729" type="curve"/>
      <point x="899" y="1675" type="line"/>
      <point x="909" y="1591"/>
      <point x="897" y="1483"/>
      <point x="788" y="1483" type="curve" smooth="yes"/>
      <point x="723" y="1483"/>
      <point x="713" y="1565"/>
      <point x="713" y="1614" type="curve" smooth="yes"/>
      <point x="713" y="1622"/>
      <point x="713" y="1630"/>
      <point x="715" y="1638" type="curve"/>
      <point x="561" y="1561"/>
      <point x="201" y="1542"/>
      <point x="20" y="1542" type="curve"/>
    </contour>
    <contour>
      <point x="556" y="1402" type="move" name="_diaA"/>
    </contour>
    <contour>
      <point x="556" y="1749" type="move" name="diaA"/>
    </contour>
  </outline>
</glyph>
<glyph name="absSemicolon" format="1">
  <advance width="604"/>
  <unicode hex="061B"/>
  <outline>
    <contour>
      <point x="399" y="119" type="curve"/>
      <point x="399" y="80"/>
      <point x="342" y="24"/>
      <point x="303" y="24" type="curve" smooth="yes"/>
      <point x="264" y="24"/>
      <point x="211" y="82"/>
      <point x="211" y="119" type="curve" smooth="yes"/>
      <point x="211" y="158"/>
      <point x="264" y="215"/>
      <point x="303" y="215" type="curve" smooth="yes"/>
      <point x="342" y="215"/>
      <point x="399" y="160"/>
    </contour>
    <contour>
      <point x="352" y="557" type="line"/>
      <point x="311" y="577" type="line"/>
      <point x="309" y="592"/>
      <point x="309" y="604"/>
      <point x="309" y="618" type="curve" smooth="yes"/>
      <point x="309" y="676"/>
      <point x="344" y="729"/>
      <point x="375" y="776" type="curve"/>
      <point x="354" y="788" type="line"/>
      <point x="250" y="733"/>
      <point x="205" y="629"/>
      <point x="205" y="520" type="curve" smooth="yes"/>
      <point x="205" y="477"/>
      <point x="256" y="387"/>
      <point x="303" y="387" type="curve" smooth="yes"/>
      <point x="334" y="387"/>
      <point x="385" y="475"/>
      <point x="397" y="491" type="curve"/>
    </contour>
  </outline>
</glyph>
<glyph name="absTripleDotPunct" format="1">
  <advance width="626"/>
  <unicode hex="061E"/>
  <outline>
    <contour>
      <point x="310" y="260" type="line" name="ah01"/>
      <point x="206" y="364" type="line" name="sv01"/>
      <point x="310" y="471" type="line"/>
      <point x="414" y="364" type="line"/>
    </contour>
    <contour>
      <point x="166" y="-1" type="line"/>
      <point x="59" y="106" type="line" name="av01"/>
      <point x="166" y="210" type="line" name="sh01"/>
      <point x="270" y="106" type="line"/>
    </contour>
    <contour>
      <point x="454" y="-1" type="line"/>
      <point x="350" y="106" type="line"/>
      <point x="454" y="210" type="line" name="sh02"/>
      <point x="561" y="106" type="line" name="sv02"/>
    </contour>
  </outline>
</glyph>
<glyph name="absHamza" format="1">
  <advance width="609"/>
  <unicode hex="0621"/>
  <outline>
    <contour>
      <point x="549" y="248" type="line"/>
      <point x="331" y="248" type="line" smooth="yes"/>
      <point x="299" y="248"/>
      <point x="211" y="268"/>
      <point x="211" y="311" type="curve" smooth="yes"/>
      <point x="211" y="350"/>
      <point x="274" y="393"/>
      <point x="309" y="393" type="curve" smooth="yes"/>
      <point x="342" y="393"/>
      <point x="368" y="371"/>
      <point x="397" y="371" type="curve" smooth="yes"/>
      <point x="426" y="371"/>
      <point x="450" y="408"/>
      <point x="450" y="436" type="curve" smooth="yes"/>
      <point x="450" y="475"/>
      <point x="401" y="514"/>
      <point x="364" y="514" type="curve" smooth="yes"/>
      <point x="313" y="514"/>
      <point x="96" y="346"/>
      <point x="96" y="291" type="curve" smooth="yes"/>
      <point x="96" y="233"/>
      <point x="137" y="178"/>
      <point x="182" y="150" type="curve"/>
      <point x="131" y="104"/>
      <point x="100" y="74"/>
      <point x="67" y="35" type="curve"/>
      <point x="104" y="0" type="line"/>
      <point x="188" y="80"/>
      <point x="303" y="141"/>
      <point x="420" y="141" type="curve" smooth="yes"/>
      <point x="440" y="141"/>
      <point x="460" y="141"/>
      <point x="481" y="137" type="curve"/>
    </contour>
    <contour>
      <point x="308" y="564" type="move" name="above"/>
    </contour>
    <contour>
      <point x="304" y="0" type="move" name="below"/>
    </contour>
    <contour>
      <point x="310" y="632" type="move" name="diaA"/>
    </contour>
    <contour>
      <point x="281" y="-113" type="move" name="diaB"/>
    </contour>
    <contour>
      <point x="137" y="595" type="move" name="alef"/>
    </contour>
  </outline>
</glyph>
<glyph name="absAlefMaddaAbove" format="1">
  <advance width="362"/>
  <unicode hex="0622"/>
  <outline>
    <component base="absAlef"/>
    <component base="_madda" xOffset="195" yOffset="1261"/>
    <contour>
      <point x="195" y="1475" type="move" name="diaA"/>
    </contour>
    <contour>
      <point x="163" y="-150" type="move" name="diaB"/>
    </contour>
  </outline>
</glyph>
<glyph name="absAlefHamzaBelow" format="1">
  <advance width="362"/>
  <unicode hex="0625"/>
  <outline>
    <component base="absAlef"/>
    <component base="_hamza" xOffset="222" yOffset="-290"/>
    <contour>
      <point x="195" y="1176" type="move" name="diaA"/>
    </contour>
    <contour>
      <point x="127" y="-526" type="move" name="diaB"/>
    </contour>
  </outline>
</glyph>
<glyph name="absBeh" format="1">
  <advance width="1220"/>
  <unicode hex="0628"/>
  <outline>
    <component base="absBehNoDots"/>
    <component base="_dot1" xOffset="612" yOffset="-248"/>
    <contour>
      <point x="280" y="690" type="move" name="alef"/>
    </contour>
    <contour>
      <point x="612" y="700" type="move" name="diaA"/>
    </contour>
    <contour>
      <point x="249" y="-308" type="move" name="diaB"/>
    </contour>
  </outline>
</glyph>
<glyph name="absKhah" format="1">
  <advance width="832"/>
  <unicode hex="062E"/>
  <outline>
    <component base="absHah"/>
    <component base="_dot1" xOffset="491" yOffset="793"/>
    <contour>
      <point x="215" y="896" type="move" name="alef"/>
    </contour>
    <contour>
      <point x="446" y="1000" type="move" name="diaA"/>
    </contour>
    <contour>
      <point x="179" y="-724" type="move" name="diaB"/>
    </contour>
  </outline>
</glyph>
<glyph name="absDal" format="1">
  <advance width="580"/>
  <unicode hex="062F"/>
  <outline>
    <contour>
      <point x="497" y="240" type="curve" smooth="yes"/>
      <point x="497" y="385"/>
      <point x="429" y="522"/>
      <point x="311" y="606" type="curve" smooth="yes"/>
      <point x="288" y="621"/>
      <point x="255" y="641"/>
      <point x="229" y="645" type="curve"/>
      <point x="222" y="625"/>
      <point x="205" y="484"/>
      <point x="207" y="426" type="curve" smooth="yes"/>
      <point x="207" y="422"/>
      <point x="211" y="418"/>
      <point x="213" y="418" type="curve" smooth="yes"/>
      <point x="244" y="410"/>
      <point x="274" y="406"/>
      <point x="305" y="393" type="curve" smooth="yes"/>
      <point x="368" y="365"/>
      <point x="459" y="276"/>
      <point x="459" y="201" type="curve" smooth="yes"/>
      <point x="459" y="189"/>
      <point x="448" y="186"/>
      <point x="434" y="181" type="curve" smooth="yes"/>
      <point x="362" y="154"/>
      <point x="278" y="150"/>
      <point x="214" y="150" type="curve" smooth="yes"/>
      <point x="161" y="150"/>
      <point x="143" y="150"/>
      <point x="102" y="195" type="curve"/>
      <point x="87" y="164"/>
      <point x="80" y="61"/>
      <point x="80" y="28" type="curve" smooth="yes"/>
      <point x="80" y="10"/>
      <point x="85" y="-2"/>
      <point x="92" y="-6" type="curve" smooth="yes"/>
      <point x="122" y="-25"/>
      <point x="177" y="-39"/>
      <point x="255" y="-39" type="curve"/>
      <point x="423" y="-39"/>
      <point x="497" y="86"/>
    </contour>
    <contour>
      <point x="288" y="701" type="move" name="above"/>
    </contour>
    <contour>
      <point x="138" y="817" type="move" name="alef"/>
    </contour>
    <contour>
      <point x="291" y="-89" type="move" name="below"/>
    </contour>
    <contour>
      <point x="288" y="834" type="move" name="diaA"/>
    </contour>
    <contour>
      <point x="211" y="-231" type="move" name="diaB"/>
    </contour>
    <contour>
      <point x="276" y="39" type="move" name="ring"/>
    </contour>
  </outline>
</glyph>
<glyph name="absThal" format="1">
  <advance width="580"/>
  <unicode hex="0630"/>
  <outline>
    <component base="absDal"/>
    <component base="_dot1" xOffset="291" yOffset="875"/>
    <contour>
      <point x="126" y="1071" type="move" name="alef"/>
    </contour>
    <contour>
      <point x="288" y="1093" type="move" name="diaA"/>
    </contour>
    <contour>
      <point x="211" y="-231" type="move" name="diaB"/>
    </contour>
  </outline>
</glyph>
<glyph name="absReh" format="1">
  <advance width="590"/>
  <unicode hex="0631"/>
  <outline>
    <contour>
      <point x="-111" y="-256" type="curve"/>
      <point x="-46" y="-307"/>
      <point x="83" y="-344"/>
      <point x="165" y="-344" type="curve" smooth="yes"/>
      <point x="277" y="-344"/>
      <point x="364" y="-268"/>
      <point x="425" y="-148" type="curve" smooth="yes"/>
      <point x="487" y="-27"/>
      <point x="507" y="64"/>
      <point x="507" y="150" type="curve" smooth="yes"/>
      <point x="507" y="198"/>
      <point x="499" y="246"/>
      <point x="471" y="290" type="curve" smooth="yes"/>
      <point x="443" y="334"/>
      <point x="409" y="365"/>
      <point x="378" y="385" type="curve"/>
      <point x="337" y="225" type="line"/>
      <point x="368" y="199"/>
      <point x="448" y="123"/>
      <point x="448" y="82" type="curve" smooth="yes"/>
      <point x="448" y="-2"/>
      <point x="337" y="-98"/>
      <point x="278" y="-145" type="curve" smooth="yes"/>
      <point x="182" y="-221"/>
      <point x="54" y="-258"/>
      <point x="-32" y="-258" type="curve" smooth="yes"/>
      <point x="-68" y="-258"/>
      <point x="-88" y="-253"/>
      <point x="-107" y="-247" type="curve"/>
      <point x="-111" y="-247"/>
      <point x="-109" y="-256"/>
    </contour>
    <contour>
      <point x="376" y="436" type="move" name="above"/>
    </contour>
    <contour>
      <point x="122" y="698" type="move" name="alef"/>
    </contour>
    <contour>
      <point x="372" y="-340" type="move" name="below"/>
    </contour>
    <contour>
      <point x="158" y="99" type="move" name="center"/>
    </contour>
    <contour>
      <point x="280" y="697" type="move" name="diaA"/>
    </contour>
    <contour>
      <point x="167" y="-474" type="move" name="diaB"/>
    </contour>
    <contour>
      <point x="364" y="-206" type="move" name="ring"/>
    </contour>
    <contour>
      <point x="409" y="-4" type="move" name="through"/>
    </contour>
  </outline>
</glyph>
<glyph name="absZain" format="1">
  <advance width="590"/>
  <unicode hex="0632"/>
  <outline>
    <component base="absReh"/>
    <component base="_dot1" xOffset="376" yOffset="616"/>
    <contour>
      <point x="114" y="730" type="move" name="alef"/>
    </contour>
    <contour>
      <point x="280" y="830" type="move" name="diaA"/>
    </contour>
    <contour>
      <point x="167" y="-474" type="move" name="diaB"/>
    </contour>
  </outline>
</glyph>
<glyph name="absSad" format="1">
  <advance width="1599"/>
  <unicode hex="0635"/>
  <outline>
    <contour>
      <point x="844" y="178" type="curve"/>
      <point x="830" y="176"/>
      <point x="818" y="176"/>
      <point x="805" y="176" type="curve" smooth="yes"/>
      <point x="769" y="176"/>
      <point x="726" y="184"/>
      <point x="705" y="217" type="curve" smooth="yes"/>
      <point x="691" y="244"/>
      <point x="658" y="279"/>
      <point x="648" y="307" type="curve"/>
      <point x="597" y="166" type="line"/>
      <point x="654" y="78"/>
      <point x="676" y="-4"/>
      <point x="676" y="-111" type="curve"/>
      <point x="613" y="-203"/>
      <point x="470" y="-236"/>
      <point x="363" y="-236" type="curve" smooth="yes"/>
      <point x="218" y="-236"/>
      <point x="111" y="-188"/>
      <point x="111" y="-29" type="curve" smooth="yes"/>
      <point x="111" y="39"/>
      <point x="137" y="111"/>
      <point x="148" y="163" type="curve"/>
      <point x="148" y="167"/>
      <point x="148" y="170"/>
      <point x="144" y="170" type="curve" smooth="yes"/>
      <point x="140" y="170"/>
      <point x="139" y="170"/>
      <point x="135" y="165" type="curve" smooth="yes"/>
      <point x="61" y="57"/>
      <point x="37" y="-47"/>
      <point x="37" y="-147" type="curve" smooth="yes"/>
      <point x="37" y="-328"/>
      <point x="140" y="-420"/>
      <point x="318" y="-420" type="curve" smooth="yes"/>
      <point x="511" y="-420"/>
      <point x="650" y="-315"/>
      <point x="713" y="-137" type="curve" smooth="yes"/>
      <point x="728" y="-100"/>
      <point x="742" y="-51"/>
      <point x="742" y="-10" type="curve"/>
      <point x="742" y="-8" type="line"/>
      <point x="889" y="-10"/>
      <point x="1119" y="6"/>
      <point x="1254" y="61" type="curve" smooth="yes"/>
      <point x="1385" y="115"/>
      <point x="1561" y="256"/>
      <point x="1561" y="412" type="curve" smooth="yes"/>
      <point x="1561" y="498"/>
      <point x="1492" y="557"/>
      <point x="1408" y="557" type="curve" smooth="yes"/>
      <point x="1236" y="557"/>
      <point x="959" y="303"/>
    </contour>
    <contour>
      <point x="910" y="178" type="curve"/>
      <point x="1043" y="315"/>
      <point x="1200" y="400"/>
      <point x="1273" y="400" type="curve" smooth="yes"/>
      <point x="1359" y="400"/>
      <point x="1442" y="360"/>
      <point x="1442" y="303" type="curve" smooth="yes"/>
      <point x="1442" y="240"/>
      <point x="1230" y="174"/>
      <point x="1014" y="174" type="curve" smooth="yes"/>
      <point x="980" y="174"/>
      <point x="945" y="176"/>
    </contour>
    <contour>
      <point x="965" y="556" type="move" name="above"/>
    </contour>
    <contour>
      <point x="1081" y="-87" type="move" name="below"/>
    </contour>
    <contour>
      <point x="799" y="700" type="move" name="diaA"/>
    </contour>
    <contour>
      <point x="173" y="-514" type="move" name="diaB"/>
    </contour>
    <contour>
      <point x="285" y="464" type="move" name="alef"/>
    </contour>
  </outline>
</glyph>
<glyph name="absDad" format="1">
  <advance width="1599"/>
  <unicode hex="0636"/>
  <outline>
    <component base="absSad"/>
    <component base="_dot1" xOffset="965" yOffset="736"/>
    <contour>
      <point x="285" y="464" type="move" name="alef"/>
    </contour>
    <contour>
      <point x="799" y="890" type="move" name="diaA"/>
    </contour>
    <contour>
      <point x="173" y="-514" type="move" name="diaB"/>
    </contour>
  </outline>
</glyph>
<glyph name="absAin" format="1">
  <advance width="800"/>
  <unicode hex="0639"/>
  <outline>
    <contour>
      <point x="460" y="520" type="line"/>
      <point x="412" y="565"/>
      <point x="312" y="600"/>
      <point x="249" y="600" type="curve" smooth="yes"/>
      <point x="93" y="600"/>
      <point x="58" y="379"/>
      <point x="58" y="260" type="curve" smooth="yes"/>
      <point x="58" y="242"/>
      <point x="58" y="209"/>
      <point x="67" y="195" type="curve"/>
      <point x="85" y="145"/>
      <point x="169" y="88"/>
      <point x="214" y="61" type="curve"/>
      <point x="149" y="-14"/>
      <point x="91" y="-229"/>
      <point x="91" y="-330" type="curve" smooth="yes"/>
      <point x="91" y="-616"/>
      <point x="286" y="-739"/>
      <point x="552" y="-739" type="curve" smooth="yes"/>
      <point x="560" y="-739"/>
      <point x="628" y="-736"/>
      <point x="634" y="-735" type="curve" smooth="yes"/>
      <point x="717" y="-727"/>
      <point x="918" y="-623"/>
      <point x="1005" y="-580" type="curve"/>
      <point x="1005" y="-563" type="line"/>
      <point x="534" y="-563" type="line" smooth="yes"/>
      <point x="357" y="-563"/>
      <point x="161" y="-512"/>
      <point x="161" y="-299" type="curve" smooth="yes"/>
      <point x="161" y="-174"/>
      <point x="243" y="-31"/>
      <point x="341" y="43" type="curve" smooth="yes"/>
      <point x="626" y="256" type="line"/>
      <point x="636" y="414" type="line"/>
      <point x="374" y="219" type="line"/>
      <point x="259" y="219"/>
      <point x="155" y="274"/>
      <point x="110" y="371" type="curve"/>
      <point x="177" y="457"/>
      <point x="290" y="514"/>
      <point x="400" y="514" type="curve" smooth="yes"/>
      <point x="419" y="514"/>
      <point x="437" y="510"/>
      <point x="456" y="508" type="curve"/>
    </contour>
    <contour>
      <point x="237" y="672" type="move" name="above"/>
    </contour>
    <contour>
      <point x="453" y="-12" type="move" name="below"/>
    </contour>
    <contour>
      <point x="273" y="786" type="move" name="diaA"/>
    </contour>
    <contour>
      <point x="273" y="-830" type="move" name="diaB"/>
    </contour>
  </outline>
</glyph>
<glyph name="absTatweel" format="1">
  <advance width="256"/>
  <unicode hex="0640"/>
  <outline>
    <contour>
      <point x="-27" y="180" type="line"/>
      <point x="-65" y="180"/>
      <point x="-83" y="137"/>
      <point x="-83" y="90" type="curve" smooth="yes"/>
      <point x="-83" y="44"/>
      <point x="-65" y="0"/>
      <point x="-27" y="0" type="curve" smooth="yes"/>
      <point x="286" y="0" type="line" smooth="yes"/>
      <point x="323" y="0"/>
      <point x="341" y="44"/>
      <point x="341" y="90" type="curve" smooth="yes"/>
      <point x="341" y="137"/>
      <point x="323" y="180"/>
      <point x="286" y="180" type="curve" smooth="yes"/>
    </contour>
    <contour>
      <point x="114" y="700" type="move" name="diaA"/>
    </contour>
    <contour>
      <point x="114" y="-200" type="move" name="diaB"/>
    </contour>
  </outline>
</glyph>
<glyph name="absNoon" format="1">
  <advance width="749"/>
  <unicode hex="0646"/>
  <outline>
    <component base="absNoonGhunna"/>
    <component base="_dot1" xOffset="329" yOffset="522"/>
    <contour>
      <point x="172" y="710" type="move" name="alef"/>
    </contour>
    <contour>
      <point x="276" y="769" type="move" name="diaA"/>
    </contour>
    <contour>
      <point x="231" y="-425" type="move" name="diaB"/>
    </contour>
  </outline>
</glyph>
<glyph name="absFathatan" format="1">
  <advance width="0"/>
  <unicode hex="064B"/>
  <outline>
    <contour>
      <point x="362" y="1278" type="line"/>
      <point x="362" y="1212" type="line"/>
      <point x="59" y="1051" type="line"/>
      <point x="59" y="1118" type="line"/>
    </contour>
    <contour>
      <point x="362" y="1417" type="line"/>
      <point x="362" y="1352" type="line"/>
      <point x="59" y="1190" type="line"/>
      <point x="59" y="1260" type="line"/>
    </contour>
    <contour>
      <point x="226" y="1053" type="move" name="_diaA"/>
    </contour>
    <contour>
      <point x="226" y="1437" type="move" name="diaA"/>
    </contour>
  </outline>
</glyph>
<glyph name="absKasratan" format="1">
  <advance width="0"/>
  <unicode hex="064D"/>
  <outline>
    <contour>
      <point x="231" y="-543" type="line"/>
      <point x="231" y="-609" type="line"/>
      <point x="-72" y="-770" type="line"/>
      <point x="-72" y="-703" type="line"/>
    </contour>
    <contour>
      <point x="231" y="-404" type="line"/>
      <point x="231" y="-469" type="line"/>
      <point x="-72" y="-631" type="line"/>
      <point x="-72" y="-561" type="line"/>
    </contour>
    <contour>
      <point x="75" y="-403" type="move" name="_diaB"/>
    </contour>
    <contour>
      <point x="75" y="-790" type="move" name="diaB"/>
    </contour>
  </outline>
</glyph>
<glyph name="absFatha" format="1">
  <advance width="0"/>
  <unicode hex="064E"/>
  <outline>
    <contour>
      <point x="322" y="1278" type="line"/>
      <point x="18" y="1118" type="line"/>
      <point x="18" y="1051" type="line"/>
      <point x="322" y="1212" type="line"/>
    </contour>
    <contour>
      <point x="190" y="1056" type="move" name="_diaA"/>
    </contour>
    <contour>
      <point x="190" y="1298" type="move" name="diaA"/>
    </contour>
  </outline>
</glyph>
<glyph name="absKasra" format="1">
  <advance width="0"/>
  <unicode hex="0650"/>
  <outline>
    <contour>
      <point x="233" y="-403" type="line"/>
      <point x="-72" y="-561" type="line"/>
      <point x="-72" y="-631" type="line"/>
      <point x="233" y="-471" type="line"/>
    </contour>
    <contour>
      <point x="66" y="-406" type="move" name="_diaB"/>
    </contour>
    <contour>
      <point x="66" y="-651" type="move" name="diaB"/>
    </contour>
  </outline>
</glyph>
<glyph name="absMaddahAbove" format="1">
  <advance width="0"/>
  <unicode hex="0653"/>
  <outline>
    <contour>
      <point x="494" y="1343" type="curve"/>
      <point x="494" y="1346"/>
      <point x="492" y="1348"/>
      <point x="487" y="1348" type="curve" smooth="yes"/>
      <point x="453" y="1348"/>
      <point x="346" y="1278"/>
      <point x="264" y="1278" type="curve" smooth="yes"/>
      <point x="201" y="1278"/>
      <point x="129" y="1311"/>
      <point x="78" y="1346" type="curve"/>
      <point x="63" y="1321"/>
      <point x="-31" y="1143"/>
      <point x="-31" y="1124" type="curve" smooth="yes"/>
      <point x="-31" y="1118"/>
      <point x="-20" y="1114"/>
      <point x="-16" y="1114" type="curve" smooth="yes"/>
      <point x="4" y="1114"/>
      <point x="66" y="1188"/>
      <point x="74" y="1206" type="curve"/>
      <point x="111" y="1180"/>
      <point x="178" y="1165"/>
      <point x="256" y="1165" type="curve" smooth="yes"/>
      <point x="332" y="1165"/>
      <point x="494" y="1276"/>
    </contour>
    <contour>
      <point x="256" y="1123" type="move" name="_diaA"/>
    </contour>
    <contour>
      <point x="256" y="1368" type="move" name="diaA"/>
    </contour>
  </outline>
</glyph>
<glyph name="absSubscriptAlef" format="1">
  <advance width="0"/>
  <unicode hex="0656"/>
  <outline>
    <contour>
      <point x="131" y="-46" type="line"/>
      <point x="131" y="-46"/>
      <point x="131" y="-98"/>
      <point x="133" y="-136" type="curve" smooth="yes"/>
      <point x="136" y="-185"/>
      <point x="143" y="-229"/>
      <point x="143" y="-261" type="curve" smooth="yes"/>
      <point x="143" y="-282"/>
      <point x="140" y="-321"/>
      <point x="131" y="-351" type="curve" smooth="yes"/>
      <point x="120" y="-387"/>
      <point x="97" y="-411"/>
      <point x="80" y="-411" type="curve"/>
      <point x="77" y="-348"/>
      <point x="61" y="-216"/>
      <point x="53" y="-134" type="curve"/>
    </contour>
    <contour>
      <point x="98" y="-469" type="move" name="diaB"/>
    </contour>
    <contour>
      <point x="98" y="0" type="move" name="_diaB"/>
    </contour>
  </outline>
</glyph>
<glyph name="absZwarakay" format="1">
  <advance width="0"/>
  <unicode hex="0659"/>
  <outline>
    <contour>
      <point x="342" y="1178" type="line"/>
      <point x="38" y="1178" type="line"/>
      <point x="18" y="1111" type="line"/>
      <point x="322" y="1112" type="line"/>
    </contour>
    <contour>
      <point x="185" y="1051" type="move" name="_diaA"/>
    </contour>
    <contour>
      <point x="185" y="1258" type="move" name="diaA"/>
    </contour>
  </outline>
</glyph>
<glyph name="absVowelDotBelow" format="1">
  <advance width="0"/>
  <unicode hex="065C"/>
  <outline>
    <contour>
      <point x="112" y="-183" type="curve"/>
      <point x="112" y="-122"/>
      <point x="63" y="-73"/>
      <point x="0" y="-73" type="curve" smooth="yes"/>
      <point x="-63" y="-73"/>
      <point x="-112" y="-122"/>
      <point x="-112" y="-183" type="curve" smooth="yes"/>
      <point x="-112" y="-246"/>
      <point x="-63" y="-295"/>
      <point x="0" y="-295" type="curve" smooth="yes"/>
      <point x="63" y="-295"/>
      <point x="112" y="-246"/>
    </contour>
    <contour>
      <point x="0" y="-2" type="move" name="_diaB"/>
    </contour>
    <contour>
      <point x="0" y="-361" type="move" name="diaB"/>
    </contour>
  </outline>
</glyph>
<glyph name="absQafNoDots" format="1">
  <advance width="863"/>
  <unicode hex="066F"/>
  <outline>
    <contour>
      <point x="351" y="-315" type="curve"/>
      <point x="570" y="-315"/>
      <point x="822" y="-109"/>
      <point x="822" y="119" type="curve" smooth="yes"/>
      <point x="822" y="205"/>
      <point x="783" y="453"/>
      <point x="664" y="453" type="curve" smooth="yes"/>
      <point x="578" y="453"/>
      <point x="519" y="283"/>
      <point x="519" y="213" type="curve" smooth="yes"/>
      <point x="519" y="119"/>
      <point x="592" y="84"/>
      <point x="676" y="84" type="curve" smooth="yes"/>
      <point x="705" y="84"/>
      <point x="740" y="88"/>
      <point x="767" y="100" type="curve"/>
      <point x="767" y="41" type="line" smooth="yes"/>
      <point x="767" y="-69"/>
      <point x="507" y="-133"/>
      <point x="375" y="-133" type="curve" smooth="yes"/>
      <point x="220" y="-133"/>
      <point x="103" y="-88"/>
      <point x="103" y="84" type="curve" smooth="yes"/>
      <point x="103" y="156"/>
      <point x="126" y="228"/>
      <point x="143" y="282" type="curve"/>
      <point x="143" y="285"/>
      <point x="145" y="292"/>
      <point x="141" y="292" type="curve" smooth="yes"/>
      <point x="135" y="292"/>
      <point x="131" y="289"/>
      <point x="127" y="283" type="curve" smooth="yes"/>
      <point x="71" y="195"/>
      <point x="39" y="106"/>
      <point x="39" y="-16" type="curve" smooth="yes"/>
      <point x="39" y="-207"/>
      <point x="166" y="-315"/>
    </contour>
    <contour>
      <point x="640" y="338" type="curve"/>
      <point x="672" y="338"/>
      <point x="715" y="287"/>
      <point x="722" y="239" type="curve"/>
      <point x="700" y="226"/>
      <point x="656" y="221"/>
      <point x="642" y="221" type="curve" smooth="yes"/>
      <point x="615" y="221"/>
      <point x="574" y="231"/>
      <point x="574" y="266" type="curve" smooth="yes"/>
      <point x="574" y="293"/>
      <point x="613" y="338"/>
    </contour>
    <contour>
      <point x="650" y="498" type="move" name="above"/>
    </contour>
    <contour>
      <point x="253" y="599" type="move" name="alef"/>
    </contour>
    <contour>
      <point x="430" y="-365" type="move" name="below"/>
    </contour>
    <contour>
      <point x="430" y="700" type="move" name="diaA"/>
    </contour>
    <contour>
      <point x="221" y="-401" type="move" name="diaB"/>
    </contour>
  </outline>
</glyph>
<glyph name="absAlefWasla" format="1">
  <advance width="362"/>
  <unicode hex="0671"/>
  <outline>
    <component base="absAlef"/>
    <component base="_wasla" xOffset="195" yOffset="1340"/>
    <contour>
      <point x="195" y="1545" type="move" name="diaA"/>
    </contour>
    <contour>
      <point x="163" y="-150" type="move" name="diaB"/>
    </contour>
  </outline>
</glyph>
<glyph name="absAlefWavyHamzaAbove" format="1">
  <advance width="362"/>
  <unicode hex="0672"/>
  <outline>
    <component base="absAlef"/>
    <component base="_wavyHamza" xOffset="213" yOffset="1349"/>
    <contour>
      <point x="195" y="1570" type="move" name="diaA"/>
    </contour>
    <contour>
      <point x="163" y="-150" type="move" name="diaB"/>
    </contour>
  </outline>
</glyph>
<glyph name="absHighHamzaWaw" format="1">
  <advance width="612"/>
  <unicode hex="0676"/>
  <outline>
    <component base="absWaw"/>
    <component base="_highHamza" xOffset="414" yOffset="667"/>
    <contour>
      <point x="95" y="694" type="move" name="alef"/>
    </contour>
    <contour>
      <point x="211" y="1037" type="move" name="diaA"/>
    </contour>
    <contour>
      <point x="142" y="-425" type="move" name="diaB"/>
    </contour>
  </outline>
</glyph>
<glyph name="absTteheh" format="1">
  <advance width="1220"/>
  <unicode hex="067A"/>
  <outline>
    <component base="absBehNoDots"/>
    <component base="_dot2v" xOffset="624" yOffset="687"/>
    <contour>
      <point x="280" y="690" type="move" name="alef"/>
    </contour>
    <contour>
      <point x="577" y="976" type="move" name="diaA"/>
    </contour>
    <contour>
      <point x="269" y="-235" type="move" name="diaB"/>
    </contour>
  </outline>
</glyph>
<glyph name="absPeh" format="1">
  <advance width="1220"/>
  <unicode hex="067E"/>
  <outline>
    <component base="absBehNoDots"/>
    <component base="_dot3d" xOffset="612" yOffset="-354"/>
    <contour>
      <point x="280" y="690" type="move" name="alef"/>
    </contour>
    <contour>
      <point x="612" y="700" type="move" name="diaA"/>
    </contour>
    <contour>
      <point x="200" y="-360" type="move" name="diaB"/>
    </contour>
  </outline>
</glyph>
<glyph name="absTeheh" format="1">
  <advance width="1220"/>
  <unicode hex="067F"/>
  <outline>
    <component base="absBehNoDots"/>
    <component base="_dot4" xOffset="624" yOffset="687"/>
    <contour>
      <point x="280" y="900" type="move" name="alef"/>
    </contour>
    <contour>
      <point x="569" y="1033" type="move" name="diaA"/>
    </contour>
    <contour>
      <point x="269" y="-235" type="move" name="diaB"/>
    </contour>
  </outline>
</glyph>
<glyph name="absBeheh" format="1">
  <advance width="1220"/>
  <unicode hex="0680"/>
  <outline>
    <component base="absBehNoDots"/>
    <component base="_dot4" xOffset="612" yOffset="-354"/>
    <contour>
      <point x="280" y="690" type="move" name="alef"/>
    </contour>
    <contour>
      <point x="612" y="700" type="move" name="diaA"/>
    </contour>
    <contour>
      <point x="176" y="-324" type="move" name="diaB"/>
    </contour>
  </outline>
</glyph>
<glyph name="absHahHamzaAbove" format="1">
  <advance width="832"/>
  <unicode hex="0681"/>
  <outline>
    <component base="absHah"/>
    <component base="_hamza" xOffset="507" yOffset="825"/>
    <contour>
      <point x="215" y="975" type="move" name="alef"/>
    </contour>
    <contour>
      <point x="491" y="1078" type="move" name="diaA"/>
    </contour>
    <contour>
      <point x="179" y="-724" type="move" name="diaB"/>
    </contour>
  </outline>
</glyph>
<glyph name="absHahTwoDotsVerticalAbove" format="1">
  <advance width="832"/>
  <unicode hex="0682"/>
  <outline>
    <component base="absHah"/>
    <component base="_dot2v" xOffset="491" yOffset="899"/>
    <contour>
      <point x="223" y="1106" type="move" name="alef"/>
    </contour>
    <contour>
      <point x="438" y="1207" type="move" name="diaA"/>
    </contour>
    <contour>
      <point x="179" y="-724" type="move" name="diaB"/>
    </contour>
  </outline>
</glyph>
<glyph name="absHahThreeDotsAbove" format="1">
  <advance width="832"/>
  <unicode hex="0685"/>
  <outline>
    <component base="absHah"/>
    <component base="_dot3u" xOffset="491" yOffset="899"/>
    <contour>
      <point x="223" y="1106" type="move" name="alef"/>
    </contour>
    <contour>
      <point x="446" y="1215" type="move" name="diaA"/>
    </contour>
    <contour>
      <point x="179" y="-724" type="move" name="diaB"/>
    </contour>
  </outline>
</glyph>
<glyph name="absDalRing" format="1">
  <advance width="580"/>
  <unicode hex="0689"/>
  <outline>
    <component base="absDal"/>
    <component base="_ring" xOffset="278" yOffset="-112"/>
    <contour>
      <point x="138" y="817" type="move" name="alef"/>
    </contour>
    <contour>
      <point x="288" y="834" type="move" name="diaA"/>
    </contour>
    <contour>
      <point x="203" y="-397" type="move" name="diaB"/>
    </contour>
  </outline>
</glyph>
<glyph name="absDahal" format="1">
  <advance width="580"/>
  <unicode hex="068C"/>
  <outline>
    <component base="absDal"/>
    <component base="_dot2h" xOffset="291" yOffset="875"/>
    <contour>
      <point x="122" y="1067" type="move" name="alef"/>
    </contour>
    <contour>
      <point x="288" y="1093" type="move" name="diaA"/>
    </contour>
    <contour>
      <point x="211" y="-231" type="move" name="diaB"/>
    </contour>
  </outline>
</glyph>
<glyph name="absDdahal" format="1">
  <advance width="580"/>
  <unicode hex="068D"/>
  <outline>
    <component base="absDal"/>
    <component base="_dot2h" xOffset="291" yOffset="-269"/>
    <contour>
      <point x="138" y="817" type="move" name="alef"/>
    </contour>
    <contour>
      <point x="288" y="834" type="move" name="diaA"/>
    </contour>
    <contour>
      <point x="288" y="-482" type="move" name="diaB"/>
    </contour>
  </outline>
</glyph>
<glyph name="absDalThreeDotsAboveDownwards" format="1">
  <advance width="580"/>
  <unicode hex="068F"/>
  <outline>
    <component base="absDal"/>
    <component base="_dot3d" xOffset="291" yOffset="981"/>
    <contour>
      <point x="114" y="1249" type="move" name="alef"/>
    </contour>
    <contour>
      <point x="288" y="1263" type="move" name="diaA"/>
    </contour>
    <contour>
      <point x="211" y="-231" type="move" name="diaB"/>
    </contour>
  </outline>
</glyph>
<glyph name="absRreh" format="1">
  <advance width="590"/>
  <unicode hex="0691"/>
  <outline>
    <component base="absReh"/>
    <component base="_tah" xOffset="376" yOffset="597"/>
    <contour>
      <point x="118" y="769" type="move" name="alef"/>
    </contour>
    <contour>
      <point x="280" y="1020" type="move" name="diaA"/>
    </contour>
    <contour>
      <point x="167" y="-474" type="move" name="diaB"/>
    </contour>
  </outline>
</glyph>
<glyph name="absRehRing" format="1">
  <advance width="590"/>
  <unicode hex="0693"/>
  <outline>
    <component base="absReh"/>
    <component base="_ring" xOffset="366" yOffset="-357"/>
    <contour>
      <point x="122" y="697" type="move" name="alef"/>
    </contour>
    <contour>
      <point x="280" y="697" type="move" name="diaA"/>
    </contour>
    <contour>
      <point x="167" y="-611" type="move" name="diaB"/>
    </contour>
  </outline>
</glyph>
<glyph name="absRehTwoDotsAbove" format="1">
  <advance width="590"/>
  <unicode hex="0697"/>
  <outline>
    <component base="absReh"/>
    <component base="_dot2h" xOffset="376" yOffset="616"/>
    <contour>
      <point x="126" y="793" type="move" name="alef"/>
    </contour>
    <contour>
      <point x="300" y="850" type="move" name="diaA"/>
    </contour>
    <contour>
      <point x="167" y="-474" type="move" name="diaB"/>
    </contour>
  </outline>
</glyph>
<glyph name="absSeenDotBelowDotAbove" format="1">
  <advance width="1369"/>
  <unicode hex="069A"/>
  <outline>
    <component base="absSeen"/>
    <component base="_dot1" xOffset="957" yOffset="639"/>
    <component base="_dot1" xOffset="1026" yOffset="-244"/>
    <contour>
      <point x="280" y="464" type="move" name="alef"/>
    </contour>
    <contour>
      <point x="675" y="793" type="move" name="diaA"/>
    </contour>
    <contour>
      <point x="168" y="-514" type="move" name="diaB"/>
    </contour>
  </outline>
</glyph>
<glyph name="absSadTwoDotsBelow" format="1">
  <advance width="1599"/>
  <unicode hex="069D"/>
  <outline>
    <component base="absSad"/>
    <component base="_dot2h" xOffset="1081" yOffset="-267"/>
    <contour>
      <point x="285" y="464" type="move" name="alef"/>
    </contour>
    <contour>
      <point x="799" y="700" type="move" name="diaA"/>
    </contour>
    <contour>
      <point x="177" y="-514" type="move" name="diaB"/>
    </contour>
  </outline>
</glyph>
<glyph name="absSadThreeDotsAbove" format="1">
  <advance width="1599"/>
  <unicode hex="069E"/>
  <outline>
    <component base="absSad"/>
    <component base="_dot3u" xOffset="965" yOffset="842"/>
    <contour>
      <point x="285" y="464" type="move" name="alef"/>
    </contour>
    <contour>
      <point x="799" y="1103" type="move" name="diaA"/>
    </contour>
    <contour>
      <point x="173" y="-514" type="move" name="diaB"/>
    </contour>
  </outline>
</glyph>
<glyph name="absTahThreeDotsAbove" format="1">
  <advance width="1124"/>
  <unicode hex="069F"/>
  <outline>
    <component base="absTah"/>
    <component base="_dot3u" xOffset="810" yOffset="921"/>
    <contour>
      <point x="211" y="845" type="move" name="alef"/>
    </contour>
    <contour>
      <point x="475" y="1231" type="move" name="diaA"/>
    </contour>
    <contour>
      <point x="305" y="-202" type="move" name="diaB"/>
    </contour>
  </outline>
</glyph>
<glyph name="absFehDotMovedBelow" format="1">
  <advance width="1220"/>
  <unicode hex="06A2"/>
  <outline>
    <component base="absDotlessFeh"/>
    <component base="_dot1" xOffset="966" yOffset="-205"/>
    <contour>
      <point x="270" y="690" type="move" name="alef"/>
    </contour>
    <contour>
      <point x="605" y="732" type="move" name="diaA"/>
    </contour>
    <contour>
      <point x="226" y="-202" type="move" name="diaB"/>
    </contour>
  </outline>
</glyph>
<glyph name="absFehThreeDotsBelow" format="1">
  <advance width="1220"/>
  <unicode hex="06A5"/>
  <outline>
    <component base="absDotlessFeh"/>
    <component base="_dot3d" xOffset="966" yOffset="-311"/>
    <contour>
      <point x="270" y="690" type="move" name="alef"/>
    </contour>
    <contour>
      <point x="605" y="732" type="move" name="diaA"/>
    </contour>
    <contour>
      <point x="226" y="-202" type="move" name="diaB"/>
    </contour>
  </outline>
</glyph>
<glyph name="absQafDotAbove" format="1">
  <advance width="863"/>
  <unicode hex="06A7"/>
  <outline>
    <component base="absQafNoDots"/>
    <component base="_dot1" xOffset="650" yOffset="678"/>
    <contour>
      <point x="253" y="599" type="move" name="alef"/>
    </contour>
    <contour>
      <point x="430" y="832" type="move" name="diaA"/>
    </contour>
    <contour>
      <point x="221" y="-401" type="move" name="diaB"/>
    </contour>
  </outline>
</glyph>
<glyph name="absKeheh" format="1">
  <advance width="1348"/>
  <unicode hex="06A9"/>
  <outline>
    <contour>
      <point x="762" y="0" type="line"/>
      <point x="940" y="0"/>
      <point x="1083" y="115"/>
      <point x="1083" y="303" type="curve" smooth="yes"/>
      <point x="1083" y="549"/>
      <point x="776" y="647"/>
      <point x="776" y="688" type="curve" smooth="yes"/>
      <point x="776" y="748"/>
      <point x="1229" y="950"/>
      <point x="1305" y="985" type="curve"/>
      <point x="1335" y="1098" type="line"/>
      <point x="1188" y="1030"/>
      <point x="805" y="850"/>
      <point x="696" y="752" type="curve" smooth="yes"/>
      <point x="668" y="727"/>
      <point x="649" y="692"/>
      <point x="649" y="653" type="curve" smooth="yes"/>
      <point x="649" y="520"/>
      <point x="1001" y="440"/>
      <point x="1001" y="279" type="curve" smooth="yes"/>
      <point x="1001" y="203"/>
      <point x="821" y="180"/>
      <point x="768" y="180" type="curve" smooth="yes"/>
      <point x="338" y="180" type="line" smooth="yes"/>
      <point x="246" y="180"/>
      <point x="152" y="216"/>
      <point x="152" y="320" type="curve" smooth="yes"/>
      <point x="152" y="390"/>
      <point x="166" y="438"/>
      <point x="184" y="477" type="curve"/>
      <point x="184" y="481"/>
      <point x="180" y="484"/>
      <point x="176" y="483" type="curve"/>
      <point x="121" y="430"/>
      <point x="57" y="349"/>
      <point x="57" y="216" type="curve" smooth="yes"/>
      <point x="57" y="58"/>
      <point x="168" y="0"/>
      <point x="303" y="0" type="curve"/>
    </contour>
    <contour>
      <point x="742" y="861" type="move" name="above"/>
    </contour>
    <contour>
      <point x="826" y="-50" type="move" name="below"/>
    </contour>
    <contour>
      <point x="1072" y="935" type="move" name="ring"/>
    </contour>
    <contour>
      <point x="535" y="1020" type="move" name="diaA"/>
    </contour>
    <contour>
      <point x="300" y="-202" type="move" name="diaB"/>
    </contour>
    <contour>
      <point x="242" y="773" type="move" name="alef"/>
    </contour>
  </outline>
</glyph>
<glyph name="absSwashKaf" format="1">
  <advance width="1371"/>
  <unicode hex="06AA"/>
  <outline>
    <contour>
      <point x="1001" y="0" type="line"/>
      <point x="1173" y="0"/>
      <point x="1257" y="68"/>
      <point x="1306" y="223" type="curve" smooth="yes"/>
      <point x="1319" y="266"/>
      <point x="1331" y="311"/>
      <point x="1331" y="358" type="curve" smooth="yes"/>
      <point x="1331" y="465"/>
      <point x="1267" y="512"/>
      <point x="1165" y="512" type="curve" smooth="yes"/>
      <point x="428" y="512" type="line" smooth="yes"/>
      <point x="397" y="512"/>
      <point x="364" y="524"/>
      <point x="364" y="559" type="curve" smooth="yes"/>
      <point x="364" y="672"/>
      <point x="600" y="766"/>
      <point x="698" y="766" type="curve" smooth="yes"/>
      <point x="747" y="766"/>
      <point x="798" y="752"/>
      <point x="807" y="694" type="curve"/>
      <point x="809" y="707"/>
      <point x="841" y="850"/>
      <point x="841" y="852" type="curve" smooth="yes"/>
      <point x="841" y="915"/>
      <point x="764" y="930"/>
      <point x="715" y="930" type="curve" smooth="yes"/>
      <point x="481" y="930"/>
      <point x="289" y="715"/>
      <point x="289" y="485" type="curve" smooth="yes"/>
      <point x="289" y="418"/>
      <point x="315" y="358"/>
      <point x="393" y="358" type="curve" smooth="yes"/>
      <point x="1149" y="358" type="line" smooth="yes"/>
      <point x="1188" y="358"/>
      <point x="1263" y="350"/>
      <point x="1263" y="295" type="curve" smooth="yes"/>
      <point x="1263" y="201"/>
      <point x="1073" y="186"/>
      <point x="1007" y="186" type="curve" smooth="yes"/>
      <point x="28" y="186" type="line"/>
      <point x="28" y="160" type="line"/>
      <point x="145" y="94"/>
      <point x="303" y="0"/>
      <point x="440" y="0" type="curve" smooth="yes"/>
    </contour>
    <contour>
      <point x="464" y="988" type="move" name="diaA"/>
    </contour>
    <contour>
      <point x="310" y="-202" type="move" name="diaB"/>
    </contour>
    <contour>
      <point x="268" y="841" type="move" name="alef"/>
    </contour>
  </outline>
</glyph>
<glyph name="absKafThreeDotsBelow" format="1">
  <advance width="1014"/>
  <unicode hex="06AE"/>
  <outline>
    <component base="absKaf"/>
    <component base="_dot3d" xOffset="729" yOffset="-342"/>
    <contour>
      <point x="242" y="773" type="move" name="alef"/>
    </contour>
    <contour>
      <point x="521" y="1174" type="move" name="diaA"/>
    </contour>
    <contour>
      <point x="215" y="-202" type="move" name="diaB"/>
    </contour>
  </outline>
</glyph>
<glyph name="absGaf" format="1">
  <advance width="1348"/>
  <unicode hex="06AF"/>
  <outline>
    <component base="absKeheh"/>
    <component base="_gafBar" xOffset="644" yOffset="861"/>
    <contour>
      <point x="242" y="773" type="move" name="alef"/>
    </contour>
    <contour>
      <point x="535" y="1118" type="move" name="diaA"/>
    </contour>
    <contour>
      <point x="300" y="-202" type="move" name="diaB"/>
    </contour>
  </outline>
</glyph>
<glyph name="absNgoeh" format="1">
  <advance width="1348"/>
  <unicode hex="06B1"/>
  <outline>
    <component base="absKeheh"/>
    <component base="_gafBar_dot2h" xOffset="644" yOffset="861"/>
    <contour>
      <point x="242" y="773" type="move" name="alef"/>
    </contour>
    <contour>
      <point x="632" y="1417" type="move" name="diaA"/>
    </contour>
    <contour>
      <point x="300" y="-202" type="move" name="diaB"/>
    </contour>
  </outline>
</glyph>
<glyph name="absGafTwoDotsBelow" format="1">
  <advance width="1348"/>
  <unicode hex="06B2"/>
  <outline>
    <component base="absKeheh"/>
    <component base="_gafBar" xOffset="644" yOffset="861"/>
    <component base="_dot2h" xOffset="826" yOffset="-230"/>
    <contour>
      <point x="242" y="773" type="move" name="alef"/>
    </contour>
    <contour>
      <point x="535" y="1118" type="move" name="diaA"/>
    </contour>
    <contour>
      <point x="215" y="-202" type="move" name="diaB"/>
    </contour>
  </outline>
</glyph>
<glyph name="absGafThreeDotsAbove" format="1">
  <advance width="1348"/>
  <unicode hex="06B4"/>
  <outline>
    <component base="absKeheh"/>
    <component base="_gafBar_dot3u" xOffset="644" yOffset="861"/>
    <contour>
      <point x="242" y="773" type="move" name="alef"/>
    </contour>
    <contour>
      <point x="628" y="1575" type="move" name="diaA"/>
    </contour>
    <contour>
      <point x="300" y="-202" type="move" name="diaB"/>
    </contour>
  </outline>
</glyph>
<glyph name="absNoonGhunna" format="1">
  <advance width="749"/>
  <unicode hex="06BA"/>
  <outline>
    <contour>
      <point x="320" y="-307" type="curve"/>
      <point x="533" y="-307"/>
      <point x="705" y="-115"/>
      <point x="705" y="94" type="curve" smooth="yes"/>
      <point x="705" y="240"/>
      <point x="650" y="336"/>
      <point x="584" y="459" type="curve"/>
      <point x="518" y="274" type="line"/>
      <point x="590" y="209"/>
      <point x="635" y="102"/>
      <point x="633" y="8" type="curve"/>
      <point x="594" y="-66"/>
      <point x="426" y="-131"/>
      <point x="346" y="-131" type="curve" smooth="yes"/>
      <point x="226" y="-131"/>
      <point x="117" y="-94"/>
      <point x="117" y="43" type="curve" smooth="yes"/>
      <point x="117" y="109"/>
      <point x="128" y="169"/>
      <point x="145" y="218" type="curve" smooth="yes"/>
      <point x="147" y="224"/>
      <point x="150" y="231"/>
      <point x="144" y="231" type="curve" smooth="yes"/>
      <point x="140" y="231"/>
      <point x="138" y="231"/>
      <point x="135" y="226" type="curve" smooth="yes"/>
      <point x="79" y="138"/>
      <point x="43" y="46"/>
      <point x="43" y="-55" type="curve" smooth="yes"/>
      <point x="43" y="-227"/>
      <point x="154" y="-307"/>
    </contour>
    <contour>
      <point x="329" y="342" type="move" name="above"/>
    </contour>
    <contour>
      <point x="374" y="-357" type="move" name="below"/>
    </contour>
    <contour>
      <point x="359" y="-237" type="move" name="ring"/>
    </contour>
    <contour>
      <point x="276" y="709" type="move" name="diaA"/>
    </contour>
    <contour>
      <point x="231" y="-425" type="move" name="diaB"/>
    </contour>
    <contour>
      <point x="219" y="543" type="move" name="alef"/>
    </contour>
  </outline>
</glyph>
<glyph name="absNoonRing" format="1">
  <advance width="749"/>
  <unicode hex="06BC"/>
  <outline>
    <component base="absNoonGhunna"/>
    <component base="_dot1" xOffset="329" yOffset="522"/>
    <component base="_ring" xOffset="361" yOffset="-388"/>
    <contour>
      <point x="172" y="710" type="move" name="alef"/>
    </contour>
    <contour>
      <point x="276" y="769" type="move" name="diaA"/>
    </contour>
    <contour>
      <point x="284" y="-640" type="move" name="diaB"/>
    </contour>
  </outline>
</glyph>
<glyph name="absHehDoachashmee" format="1">
  <advance width="850"/>
  <unicode hex="06BE"/>
  <outline>
    <contour>
      <point x="392" y="173" type="curve"/>
      <point x="316" y="91"/>
      <point x="111" y="27"/>
      <point x="2" y="0" type="curve"/>
      <point x="2" y="0"/>
      <point x="4" y="-14"/>
      <point x="27" y="-14" type="curve" smooth="yes"/>
      <point x="174" y="-14"/>
      <point x="346" y="0"/>
      <point x="467" y="121" type="curve"/>
      <point x="545" y="98"/>
      <point x="606" y="86"/>
      <point x="680" y="86" type="curve" smooth="yes"/>
      <point x="705" y="86"/>
      <point x="745" y="86"/>
      <point x="766" y="102" type="curve" smooth="yes"/>
      <point x="813" y="139"/>
      <point x="817" y="231"/>
      <point x="817" y="287" type="curve" smooth="yes"/>
      <point x="817" y="375"/>
      <point x="791" y="428"/>
      <point x="721" y="485" type="curve" smooth="yes"/>
      <point x="453" y="707" type="line"/>
      <point x="444" y="706"/>
      <point x="436" y="700"/>
      <point x="432" y="692" type="curve"/>
      <point x="371" y="547" type="line"/>
      <point x="367" y="537"/>
      <point x="368" y="529"/>
      <point x="375" y="522" type="curve"/>
      <point x="399" y="496" type="line"/>
      <point x="352" y="434"/>
      <point x="317" y="367"/>
      <point x="317" y="289" type="curve" smooth="yes"/>
      <point x="317" y="236"/>
      <point x="347" y="196"/>
    </contour>
    <contour>
      <point x="588" y="410" type="curve"/>
      <point x="614" y="401"/>
      <point x="672" y="360"/>
      <point x="715" y="317" type="curve" smooth="yes"/>
      <point x="750" y="285"/>
      <point x="774" y="248"/>
      <point x="774" y="233" type="curve" smooth="yes"/>
      <point x="774" y="219"/>
      <point x="752" y="219"/>
      <point x="741" y="219" type="curve" smooth="yes"/>
      <point x="719" y="219"/>
      <point x="590" y="238"/>
      <point x="580" y="256" type="curve"/>
      <point x="592" y="285"/>
      <point x="602" y="305"/>
      <point x="602" y="338" type="curve" smooth="yes"/>
      <point x="602" y="362"/>
      <point x="598" y="387"/>
    </contour>
    <contour>
      <point x="465" y="440" type="curve"/>
      <point x="494" y="440"/>
      <point x="547" y="358"/>
      <point x="547" y="332" type="curve" smooth="yes"/>
      <point x="547" y="304"/>
      <point x="519" y="286"/>
      <point x="496" y="275" type="curve"/>
      <point x="444" y="274"/>
      <point x="367" y="291"/>
      <point x="367" y="324" type="curve" smooth="yes"/>
      <point x="367" y="354"/>
      <point x="434" y="440"/>
    </contour>
    <contour>
      <point x="481" y="750" type="move" name="above"/>
    </contour>
    <contour>
      <point x="409" y="-64" type="move" name="below"/>
    </contour>
    <contour>
      <point x="413" y="891" type="move" name="diaA"/>
    </contour>
    <contour>
      <point x="150" y="-200" type="move" name="diaB"/>
    </contour>
    <contour>
      <point x="246" y="753" type="move" name="alef"/>
    </contour>
  </outline>
</glyph>
<glyph name="absTchehDotAbove" format="1">
  <advance width="832"/>
  <unicode hex="06BF"/>
  <outline>
    <component base="absHah"/>
    <component base="_dot1" xOffset="491" yOffset="793"/>
    <component base="_dot3d" xOffset="494" yOffset="-79"/>
    <contour>
      <point x="219" y="900" type="move" name="alef"/>
    </contour>
    <contour>
      <point x="450" y="1012" type="move" name="diaA"/>
    </contour>
    <contour>
      <point x="179" y="-724" type="move" name="diaB"/>
    </contour>
  </outline>
</glyph>
<glyph name="absHehGoal" format="1">
  <advance width="471"/>
  <unicode hex="06C1"/>
  <outline>
    <component base="absAe"/>
    <contour>
      <point x="177" y="830" type="move" name="diaA"/>
    </contour>
    <contour>
      <point x="177" y="-202" type="move" name="diaB"/>
    </contour>
  </outline>
</glyph>
<glyph name="absTehMarbutaGoal" format="1">
  <advance width="471"/>
  <unicode hex="06C3"/>
  <outline>
    <component base="absAe"/>
    <component base="_dot2h" xOffset="200" yOffset="868"/>
    <contour>
      <point x="144" y="1122" type="move" name="diaA"/>
    </contour>
    <contour>
      <point x="177" y="-202" type="move" name="diaB"/>
    </contour>
  </outline>
</glyph>
<glyph name="absU" format="1">
  <advance width="612"/>
  <unicode hex="06C7"/>
  <outline>
    <component base="absWaw"/>
    <component base="_damma" xOffset="414" yOffset="667"/>
    <contour>
      <point x="95" y="694" type="move" name="alef"/>
    </contour>
    <contour>
      <point x="211" y="948" type="move" name="diaA"/>
    </contour>
    <contour>
      <point x="142" y="-425" type="move" name="diaB"/>
    </contour>
  </outline>
</glyph>
<glyph name="absKirghizYu" format="1">
  <advance width="612"/>
  <unicode hex="06C9"/>
  <outline>
    <component base="absWaw"/>
    <component base="_hat" xOffset="396" yOffset="494"/>
    <contour>
      <point x="91" y="825" type="move" name="alef"/>
    </contour>
    <contour>
      <point x="313" y="923" type="move" name="diaA"/>
    </contour>
    <contour>
      <point x="142" y="-425" type="move" name="diaB"/>
    </contour>
  </outline>
</glyph>
<glyph name="absVe" format="1">
  <advance width="612"/>
  <unicode hex="06CB"/>
  <outline>
    <component base="absWaw"/>
    <component base="_dot3u" xOffset="396" yOffset="780"/>
    <contour>
      <point x="79" y="888" type="move" name="alef"/>
    </contour>
    <contour>
      <point x="313" y="1057" type="move" name="diaA"/>
    </contour>
    <contour>
      <point x="142" y="-425" type="move" name="diaB"/>
    </contour>
  </outline>
</glyph>
<glyph name="absWawDotAbove" format="1">
  <advance width="612"/>
  <unicode hex="06CF"/>
  <outline>
    <component base="absWaw"/>
    <component base="_dot1" xOffset="396" yOffset="674"/>
    <contour>
      <point x="95" y="694" type="move" name="alef"/>
    </contour>
    <contour>
      <point x="313" y="883" type="move" name="diaA"/>
    </contour>
    <contour>
      <point x="142" y="-425" type="move" name="diaB"/>
    </contour>
  </outline>
</glyph>
<glyph name="absAe" format="1">
  <advance width="471"/>
  <unicode hex="06D5"/>
  <outline>
    <contour>
      <point x="179" y="646" type="curve"/>
      <point x="152" y="601"/>
      <point x="130" y="527"/>
      <point x="130" y="474" type="curve" smooth="yes"/>
      <point x="130" y="456"/>
      <point x="131" y="432"/>
      <point x="143" y="422" type="curve"/>
      <point x="96" y="350"/>
      <point x="62" y="235"/>
      <point x="62" y="151" type="curve" smooth="yes"/>
      <point x="62" y="58"/>
      <point x="103" y="-3"/>
      <point x="202" y="-3" type="curve" smooth="yes"/>
      <point x="331" y="-3"/>
      <point x="413" y="192"/>
      <point x="413" y="300" type="curve" smooth="yes"/>
      <point x="413" y="531"/>
      <point x="204" y="505"/>
    </contour>
    <contour>
      <point x="206" y="175" type="curve"/>
      <point x="146" y="175"/>
      <point x="128" y="226"/>
      <point x="128" y="278" type="curve" smooth="yes"/>
      <point x="128" y="306"/>
      <point x="151" y="371"/>
      <point x="183" y="399" type="curve"/>
      <point x="230" y="382"/>
      <point x="349" y="280"/>
      <point x="349" y="257" type="curve" smooth="yes"/>
      <point x="349" y="214"/>
      <point x="241" y="175"/>
    </contour>
    <contour>
      <point x="200" y="688" type="move" name="above"/>
    </contour>
    <contour>
      <point x="237" y="-52" type="move" name="below"/>
    </contour>
    <contour>
      <point x="177" y="830" type="move" name="diaA"/>
    </contour>
    <contour>
      <point x="177" y="-202" type="move" name="diaB"/>
    </contour>
  </outline>
</glyph>
<glyph name="absEndOfAyah" format="1">
  <advance width="1844"/>
  <unicode hex="06DD"/>
  <outline>
    <contour>
      <point x="1363" y="1110" type="curve" smooth="yes"/>
      <point x="1363" y="1115"/>
      <point x="1360" y="1122"/>
      <point x="1355" y="1127" type="curve" smooth="yes"/>
      <point x="1308" y="1180"/>
      <point x="1189" y="1244"/>
      <point x="1130" y="1244" type="curve" smooth="yes"/>
      <point x="1114" y="1244"/>
      <point x="1105" y="1229"/>
      <point x="1105" y="1216" type="curve" smooth="yes"/>
      <point x="1105" y="1206"/>
      <point x="1111" y="1195"/>
      <point x="1124" y="1191" type="curve"/>
      <point x="1215" y="1173"/>
      <point x="1279" y="1135"/>
      <point x="1314" y="1093" type="curve"/>
      <point x="1321" y="1087"/>
      <point x="1329" y="1084"/>
      <point x="1335" y="1084" type="curve" smooth="yes"/>
      <point x="1350" y="1084"/>
      <point x="1363" y="1096"/>
    </contour>
    <contour>
      <point x="1010" y="1246" type="curve" smooth="yes"/>
      <point x="1010" y="1297"/>
      <point x="970" y="1338"/>
      <point x="921" y="1338" type="curve" smooth="yes"/>
      <point x="873" y="1338"/>
      <point x="832" y="1297"/>
      <point x="832" y="1246" type="curve" smooth="yes"/>
      <point x="832" y="1197"/>
      <point x="873" y="1158"/>
      <point x="921" y="1158" type="curve" smooth="yes"/>
      <point x="970" y="1158"/>
      <point x="1010" y="1197"/>
    </contour>
    <contour>
      <point x="737" y="1218" type="curve" smooth="yes"/>
      <point x="737" y="1231"/>
      <point x="728" y="1246"/>
      <point x="712" y="1246" type="curve" smooth="yes"/>
      <point x="648" y="1246"/>
      <point x="530" y="1179"/>
      <point x="487" y="1129" type="curve" smooth="yes"/>
      <point x="482" y="1124"/>
      <point x="481" y="1117"/>
      <point x="481" y="1112" type="curve" smooth="yes"/>
      <point x="481" y="1098"/>
      <point x="494" y="1085"/>
      <point x="508" y="1085" type="curve" smooth="yes"/>
      <point x="515" y="1085"/>
      <point x="521" y="1089"/>
      <point x="528" y="1095" type="curve"/>
      <point x="563" y="1137"/>
      <point x="627" y="1175"/>
      <point x="718" y="1193" type="curve"/>
      <point x="731" y="1197"/>
      <point x="737" y="1208"/>
    </contour>
    <contour>
      <point x="1362" y="-187" type="curve" smooth="yes"/>
      <point x="1362" y="-174"/>
      <point x="1350" y="-162"/>
      <point x="1335" y="-162" type="curve" smooth="yes"/>
      <point x="1327" y="-162"/>
      <point x="1321" y="-165"/>
      <point x="1314" y="-173" type="curve" smooth="yes"/>
      <point x="1278" y="-214"/>
      <point x="1215" y="-250"/>
      <point x="1124" y="-269" type="curve"/>
      <point x="1110" y="-273"/>
      <point x="1105" y="-284"/>
      <point x="1105" y="-294" type="curve" smooth="yes"/>
      <point x="1105" y="-307"/>
      <point x="1114" y="-321"/>
      <point x="1131" y="-321" type="curve" smooth="yes"/>
      <point x="1198" y="-321"/>
      <point x="1313" y="-250"/>
      <point x="1355" y="-204" type="curve" smooth="yes"/>
      <point x="1360" y="-199"/>
      <point x="1362" y="-192"/>
    </contour>
    <contour>
      <point x="1013" y="-328" type="curve" smooth="yes"/>
      <point x="1013" y="-278"/>
      <point x="973" y="-240"/>
      <point x="924" y="-240" type="curve" smooth="yes"/>
      <point x="876" y="-240"/>
      <point x="835" y="-278"/>
      <point x="835" y="-328" type="curve" smooth="yes"/>
      <point x="835" y="-377"/>
      <point x="876" y="-417"/>
      <point x="924" y="-417" type="curve" smooth="yes"/>
      <point x="973" y="-417"/>
      <point x="1013" y="-377"/>
    </contour>
    <contour>
      <point x="741" y="-298" type="curve" smooth="yes"/>
      <point x="741" y="-288"/>
      <point x="736" y="-276"/>
      <point x="722" y="-273" type="curve" smooth="yes"/>
      <point x="637" y="-255"/>
      <point x="567" y="-220"/>
      <point x="532" y="-177" type="curve" smooth="yes"/>
      <point x="525" y="-169"/>
      <point x="519" y="-166"/>
      <point x="511" y="-166" type="curve" smooth="yes"/>
      <point x="496" y="-166"/>
      <point x="485" y="-178"/>
      <point x="485" y="-191" type="curve" smooth="yes"/>
      <point x="485" y="-196"/>
      <point x="486" y="-203"/>
      <point x="491" y="-208" type="curve" smooth="yes"/>
      <point x="538" y="-263"/>
      <point x="651" y="-325"/>
      <point x="715" y="-325" type="curve" smooth="yes"/>
      <point x="732" y="-325"/>
      <point x="741" y="-311"/>
    </contour>
    <contour>
      <point x="1708" y="458" type="curve" smooth="yes"/>
      <point x="1708" y="290"/>
      <point x="1639" y="86"/>
      <point x="1553" y="-37" type="curve"/>
      <point x="1517" y="-37"/>
      <point x="1475" y="-45"/>
      <point x="1431" y="-67" type="curve"/>
      <point x="1413" y="-51"/>
      <point x="1383" y="-31"/>
      <point x="1357" y="-31" type="curve" smooth="yes"/>
      <point x="1293" y="-31"/>
      <point x="1239" y="-147"/>
      <point x="1142" y="-147" type="curve" smooth="yes"/>
      <point x="1025" y="-147"/>
      <point x="1008" y="-131"/>
      <point x="924" y="-47" type="curve"/>
      <point x="912" y="-59" type="line" smooth="yes"/>
      <point x="841" y="-132"/>
      <point x="827" y="-147"/>
      <point x="712" y="-147" type="curve" smooth="yes"/>
      <point x="615" y="-147"/>
      <point x="563" y="-31"/>
      <point x="497" y="-31" type="curve" smooth="yes"/>
      <point x="471" y="-31"/>
      <point x="441" y="-51"/>
      <point x="423" y="-67" type="curve"/>
      <point x="377" y="-45"/>
      <point x="331" y="-37"/>
      <point x="295" y="-37" type="curve"/>
      <point x="210" y="86"/>
      <point x="136" y="290"/>
      <point x="136" y="458" type="curve" smooth="yes"/>
      <point x="136" y="629"/>
      <point x="200" y="841"/>
      <point x="285" y="961" type="curve"/>
      <point x="321" y="961"/>
      <point x="377" y="969"/>
      <point x="423" y="994" type="curve"/>
      <point x="441" y="974"/>
      <point x="471" y="959"/>
      <point x="497" y="959" type="curve" smooth="yes"/>
      <point x="563" y="959"/>
      <point x="615" y="1074"/>
      <point x="712" y="1074" type="curve" smooth="yes"/>
      <point x="827" y="1074"/>
      <point x="841" y="1059"/>
      <point x="912" y="986" type="curve" smooth="yes"/>
      <point x="924" y="974" type="line"/>
      <point x="1008" y="1058"/>
      <point x="1024" y="1074"/>
      <point x="1142" y="1074" type="curve" smooth="yes"/>
      <point x="1239" y="1074"/>
      <point x="1293" y="959"/>
      <point x="1357" y="959" type="curve" smooth="yes"/>
      <point x="1383" y="959"/>
      <point x="1413" y="974"/>
      <point x="1431" y="994" type="curve"/>
      <point x="1475" y="969"/>
      <point x="1523" y="961"/>
      <point x="1559" y="961" type="curve"/>
      <point x="1645" y="841"/>
      <point x="1708" y="629"/>
    </contour>
    <contour>
      <point x="1721" y="-145" type="curve"/>
      <point x="1674" y="-88"/>
      <point x="1634" y="-54"/>
      <point x="1574" y="-43" type="curve"/>
      <point x="1654" y="78"/>
      <point x="1729" y="295"/>
      <point x="1729" y="458" type="curve" smooth="yes"/>
      <point x="1729" y="626"/>
      <point x="1664" y="840"/>
      <point x="1584" y="961" type="curve"/>
      <point x="1644" y="974"/>
      <point x="1674" y="1006"/>
      <point x="1721" y="1063" type="curve"/>
      <point x="1576" y="1090"/>
      <point x="1578" y="1102"/>
      <point x="1464" y="1193" type="curve" smooth="yes"/>
      <point x="1350" y="1285"/>
      <point x="1249" y="1322"/>
      <point x="1151" y="1356" type="curve" smooth="yes"/>
      <point x="1021" y="1400"/>
      <point x="989" y="1461"/>
      <point x="924" y="1576" type="curve"/>
      <point x="858" y="1461"/>
      <point x="826" y="1400"/>
      <point x="696" y="1356" type="curve" smooth="yes"/>
      <point x="598" y="1322"/>
      <point x="497" y="1285"/>
      <point x="383" y="1193" type="curve" smooth="yes"/>
      <point x="269" y="1102"/>
      <point x="271" y="1090"/>
      <point x="124" y="1063" type="curve"/>
      <point x="173" y="1006"/>
      <point x="203" y="974"/>
      <point x="264" y="961" type="curve"/>
      <point x="183" y="840"/>
      <point x="115" y="626"/>
      <point x="115" y="458" type="curve" smooth="yes"/>
      <point x="115" y="295"/>
      <point x="193" y="78"/>
      <point x="274" y="-43" type="curve"/>
      <point x="213" y="-54"/>
      <point x="173" y="-88"/>
      <point x="124" y="-145" type="curve"/>
      <point x="271" y="-170"/>
      <point x="272" y="-182"/>
      <point x="383" y="-272" type="curve" smooth="yes"/>
      <point x="500" y="-366"/>
      <point x="588" y="-398"/>
      <point x="696" y="-435" type="curve" smooth="yes"/>
      <point x="825" y="-480"/>
      <point x="858" y="-539"/>
      <point x="924" y="-655" type="curve"/>
      <point x="989" y="-539"/>
      <point x="1023" y="-479"/>
      <point x="1151" y="-435" type="curve" smooth="yes"/>
      <point x="1259" y="-398"/>
      <point x="1347" y="-366"/>
      <point x="1464" y="-272" type="curve" smooth="yes"/>
      <point x="1575" y="-182"/>
      <point x="1576" y="-170"/>
    </contour>
    <contour>
      <point x="1638" y="1037" type="curve"/>
      <point x="1607" y="1014"/>
      <point x="1561" y="1004"/>
      <point x="1530" y="1004" type="curve" smooth="yes"/>
      <point x="1488" y="1004"/>
      <point x="1454" y="1023"/>
      <point x="1413" y="1048" type="curve"/>
      <point x="1397" y="1023"/>
      <point x="1376" y="1001"/>
      <point x="1350" y="1001" type="curve" smooth="yes"/>
      <point x="1323" y="1001"/>
      <point x="1241" y="1111"/>
      <point x="1130" y="1111" type="curve" smooth="yes"/>
      <point x="1023" y="1111"/>
      <point x="989" y="1101"/>
      <point x="924" y="1038" type="curve"/>
      <point x="858" y="1101"/>
      <point x="818" y="1111"/>
      <point x="711" y="1111" type="curve" smooth="yes"/>
      <point x="601" y="1111"/>
      <point x="528" y="1001"/>
      <point x="501" y="1001" type="curve" smooth="yes"/>
      <point x="475" y="1001"/>
      <point x="453" y="1031"/>
      <point x="438" y="1048" type="curve"/>
      <point x="397" y="1023"/>
      <point x="355" y="1004"/>
      <point x="313" y="1004" type="curve" smooth="yes"/>
      <point x="282" y="1004"/>
      <point x="230" y="1014"/>
      <point x="199" y="1037" type="curve"/>
      <point x="272" y="1060"/>
      <point x="336" y="1103"/>
      <point x="395" y="1151" type="curve" smooth="yes"/>
      <point x="413" y="1165" type="line" smooth="yes"/>
      <point x="524" y="1257"/>
      <point x="616" y="1289"/>
      <point x="708" y="1321" type="curve" smooth="yes"/>
      <point x="818" y="1358"/>
      <point x="871" y="1405"/>
      <point x="924" y="1488" type="curve"/>
      <point x="976" y="1405"/>
      <point x="1023" y="1358"/>
      <point x="1133" y="1321" type="curve" smooth="yes"/>
      <point x="1225" y="1289"/>
      <point x="1317" y="1257"/>
      <point x="1428" y="1165" type="curve" smooth="yes"/>
      <point x="1491" y="1114"/>
      <point x="1558" y="1062"/>
    </contour>
    <contour>
      <point x="1639" y="-120" type="curve"/>
      <point x="1555" y="-139"/>
      <point x="1496" y="-180"/>
      <point x="1427" y="-238" type="curve" smooth="yes"/>
      <point x="1319" y="-329"/>
      <point x="1224" y="-360"/>
      <point x="1131" y="-391" type="curve" smooth="yes"/>
      <point x="1030" y="-424"/>
      <point x="976" y="-477"/>
      <point x="924" y="-558" type="curve"/>
      <point x="871" y="-477"/>
      <point x="807" y="-424"/>
      <point x="706" y="-391" type="curve" smooth="yes"/>
      <point x="613" y="-360"/>
      <point x="520" y="-327"/>
      <point x="410" y="-238" type="curve"/>
      <point x="397" y="-228" type="line"/>
      <point x="341" y="-182"/>
      <point x="292" y="-142"/>
      <point x="198" y="-120" type="curve"/>
      <point x="229" y="-97"/>
      <point x="280" y="-78"/>
      <point x="311" y="-78" type="curve" smooth="yes"/>
      <point x="353" y="-78"/>
      <point x="395" y="-96"/>
      <point x="436" y="-120" type="curve"/>
      <point x="457" y="-99"/>
      <point x="473" y="-73"/>
      <point x="499" y="-73" type="curve" smooth="yes"/>
      <point x="526" y="-73"/>
      <point x="599" y="-185"/>
      <point x="709" y="-185" type="curve" smooth="yes"/>
      <point x="816" y="-185"/>
      <point x="858" y="-172"/>
      <point x="924" y="-110" type="curve"/>
      <point x="989" y="-172"/>
      <point x="1021" y="-185"/>
      <point x="1128" y="-185" type="curve" smooth="yes"/>
      <point x="1239" y="-185"/>
      <point x="1321" y="-73"/>
      <point x="1348" y="-73" type="curve" smooth="yes"/>
      <point x="1374" y="-73"/>
      <point x="1406" y="-102"/>
      <point x="1421" y="-120" type="curve"/>
      <point x="1462" y="-96"/>
      <point x="1484" y="-78"/>
      <point x="1527" y="-78" type="curve" smooth="yes"/>
      <point x="1557" y="-78"/>
      <point x="1608" y="-97"/>
    </contour>
    <contour>
      <point x="570" y="0" type="move" name="digit"/>
    </contour>
  </outline>
</glyph>
<glyph name="absSmallHighRoundedZero" format="1">
  <advance width="0"/>
  <unicode hex="06DF"/>
  <outline>
    <contour>
      <point x="74" y="1077" type="curve"/>
      <point x="74" y="1118"/>
      <point x="41" y="1151"/>
      <point x="0" y="1151" type="curve" smooth="yes"/>
      <point x="-41" y="1151"/>
      <point x="-74" y="1118"/>
      <point x="-74" y="1077" type="curve" smooth="yes"/>
      <point x="-74" y="1038"/>
      <point x="-41" y="1006"/>
      <point x="0" y="1006" type="curve" smooth="yes"/>
      <point x="41" y="1006"/>
      <point x="74" y="1038"/>
    </contour>
    <contour>
      <point x="0" y="984" type="move" name="_diaA"/>
    </contour>
    <contour>
      <point x="0" y="1171" type="move" name="diaA"/>
    </contour>
  </outline>
</glyph>
<glyph name="absSmallHighUprightRectangularZero" format="1">
  <advance width="0"/>
  <unicode hex="06E0"/>
  <outline>
    <contour>
      <point x="-59" y="1145" type="line"/>
      <point x="-59" y="1008" type="line"/>
      <point x="59" y="1008" type="line"/>
      <point x="59" y="1145" type="line"/>
    </contour>
    <contour>
      <point x="0" y="982" type="move" name="_diaA"/>
    </contour>
    <contour>
      <point x="0" y="1165" type="move" name="diaA"/>
    </contour>
  </outline>
</glyph>
<glyph name="absSmallHighDotlessHeadOfKhah" format="1">
  <advance width="0"/>
  <unicode hex="06E1"/>
  <outline>
    <contour>
      <point x="248" y="1141" type="curve"/>
      <point x="248" y="1143"/>
      <point x="223" y="1143"/>
      <point x="190" y="1145" type="curve" smooth="yes"/>
      <point x="137" y="1147"/>
      <point x="90" y="1157"/>
      <point x="55" y="1169" type="curve" smooth="yes"/>
      <point x="16" y="1186"/>
      <point x="-37" y="1219"/>
      <point x="-74" y="1219" type="curve" smooth="yes"/>
      <point x="-100" y="1219"/>
      <point x="-104" y="1221"/>
      <point x="-125" y="1206" type="curve" smooth="yes"/>
      <point x="-147" y="1190"/>
      <point x="-166" y="1159"/>
      <point x="-166" y="1143" type="curve" smooth="yes"/>
      <point x="-166" y="1141"/>
      <point x="-166" y="1139"/>
      <point x="-164" y="1139" type="curve" smooth="yes"/>
      <point x="-160" y="1139"/>
      <point x="-129" y="1151"/>
      <point x="-100" y="1151" type="curve" smooth="yes"/>
      <point x="-57" y="1151"/>
      <point x="-16" y="1124"/>
      <point x="29" y="1112" type="curve"/>
      <point x="2" y="1102"/>
      <point x="-29" y="1090"/>
      <point x="-55" y="1079" type="curve" smooth="yes"/>
      <point x="-100" y="1061"/>
      <point x="-137" y="1053"/>
      <point x="-188" y="1053" type="curve" smooth="yes"/>
      <point x="-207" y="1053" type="line"/>
      <point x="-207" y="991" type="line"/>
      <point x="-188" y="991" type="line" smooth="yes"/>
      <point x="-129" y="991"/>
      <point x="-76" y="1028"/>
      <point x="-20" y="1059" type="curve" smooth="yes"/>
      <point x="10" y="1075"/>
      <point x="55" y="1094"/>
      <point x="106" y="1096" type="curve"/>
      <point x="129" y="1094"/>
      <point x="190" y="1092"/>
      <point x="231" y="1092" type="curve" smooth="yes"/>
      <point x="236" y="1092"/>
      <point x="248" y="1137"/>
    </contour>
    <contour>
      <point x="0" y="984" type="move" name="_diaA"/>
    </contour>
    <contour>
      <point x="0" y="1240" type="move" name="diaA"/>
    </contour>
  </outline>
</glyph>
<glyph name="absSmallYeh" format="1">
  <advance width="739"/>
  <unicode hex="06E6"/>
  <outline>
    <contour>
      <point x="715" y="141" type="curve"/>
      <point x="715" y="145"/>
      <point x="711" y="150"/>
      <point x="707" y="150" type="curve" smooth="yes"/>
      <point x="698" y="150"/>
      <point x="602" y="143"/>
      <point x="440" y="143" type="curve" smooth="yes"/>
      <point x="250" y="143"/>
      <point x="63" y="152"/>
      <point x="63" y="190" type="curve" smooth="yes"/>
      <point x="63" y="238"/>
      <point x="186" y="256"/>
      <point x="221" y="266" type="curve" smooth="yes"/>
      <point x="236" y="270"/>
      <point x="250" y="276"/>
      <point x="264" y="283" type="curve" smooth="yes"/>
      <point x="360" y="326"/>
      <point x="369" y="449"/>
      <point x="418" y="449" type="curve" smooth="yes"/>
      <point x="463" y="449"/>
      <point x="446" y="381"/>
      <point x="463" y="362" type="curve"/>
      <point x="473" y="369"/>
      <point x="475" y="387"/>
      <point x="475" y="397" type="curve" smooth="yes"/>
      <point x="475" y="426"/>
      <point x="463" y="524"/>
      <point x="426" y="524" type="curve" smooth="yes"/>
      <point x="403" y="524"/>
      <point x="377" y="457"/>
      <point x="367" y="438" type="curve"/>
      <point x="336" y="369"/>
      <point x="262" y="350"/>
      <point x="197" y="322" type="curve" smooth="yes"/>
      <point x="145" y="301"/>
      <point x="29" y="215"/>
      <point x="29" y="156" type="curve" smooth="yes"/>
      <point x="29" y="141"/>
      <point x="31" y="115"/>
      <point x="41" y="106" type="curve" smooth="yes"/>
      <point x="92" y="72"/>
      <point x="276" y="72"/>
      <point x="334" y="72" type="curve" smooth="yes"/>
      <point x="362" y="72"/>
      <point x="475" y="74"/>
      <point x="557" y="88" type="curve" smooth="yes"/>
      <point x="651" y="106"/>
      <point x="715" y="137"/>
    </contour>
  </outline>
</glyph>
<glyph name="absEmptyCentreLowStop" format="1">
  <advance width="0"/>
  <unicode hex="06EA"/>
  <outline>
    <contour>
      <point x="113" y="-352" type="line"/>
      <point x="0" y="-240" type="line"/>
      <point x="-113" y="-352" type="line"/>
      <point x="0" y="-465" type="line"/>
    </contour>
    <contour>
      <point x="84" y="-352" type="line"/>
      <point x="0" y="-436" type="line"/>
      <point x="-84" y="-352" type="line"/>
      <point x="0" y="-268" type="line"/>
    </contour>
    <contour>
      <point x="0" y="-213" type="move" name="_diaB"/>
    </contour>
    <contour>
      <point x="0" y="-485" type="move" name="diaB"/>
    </contour>
  </outline>
</glyph>
<glyph name="absRoundedHighStopFilledCentre" format="1">
  <advance width="0"/>
  <unicode hex="06EC"/>
  <outline>
    <contour>
      <point x="102" y="1106" type="curve"/>
      <point x="102" y="1161"/>
      <point x="57" y="1206"/>
      <point x="0" y="1206" type="curve" smooth="yes"/>
      <point x="-57" y="1206"/>
      <point x="-102" y="1161"/>
      <point x="-102" y="1106" type="curve" smooth="yes"/>
      <point x="-102" y="1049"/>
      <point x="-57" y="1004"/>
      <point x="0" y="1004" type="curve" smooth="yes"/>
      <point x="57" y="1004"/>
      <point x="102" y="1049"/>
    </contour>
    <contour>
      <point x="0" y="970" type="move" name="_diaA"/>
    </contour>
    <contour>
      <point x="0" y="1226" type="move" name="diaA"/>
    </contour>
  </outline>
</glyph>
<glyph name="absDalHat" format="1">
  <advance width="580"/>
  <unicode hex="06EE"/>
  <outline>
    <component base="absDal"/>
    <component base="_hat" xOffset="291" yOffset="695"/>
    <contour>
      <point x="111" y="1094" type="move" name="alef"/>
    </contour>
    <contour>
      <point x="288" y="1146" type="move" name="diaA"/>
    </contour>
    <contour>
      <point x="211" y="-231" type="move" name="diaB"/>
    </contour>
  </outline>
</glyph>
<glyph name="absRehHat" format="1">
  <advance width="590"/>
  <unicode hex="06EF"/>
  <outline>
    <component base="absReh"/>
    <component base="_hat" xOffset="376" yOffset="436"/>
    <contour>
      <point x="118" y="769" type="move" name="alef"/>
    </contour>
    <contour>
      <point x="280" y="923" type="move" name="diaA"/>
    </contour>
    <contour>
      <point x="167" y="-474" type="move" name="diaB"/>
    </contour>
  </outline>
</glyph>
<glyph name="absEasternFive" format="1">
  <advance width="881"/>
  <unicode hex="06F5"/>
  <outline>
    <contour>
      <point x="475" y="948" type="curve"/>
      <point x="384" y="896"/>
      <point x="123" y="559"/>
      <point x="123" y="301" type="curve" smooth="yes"/>
      <point x="123" y="186"/>
      <point x="188" y="86"/>
      <point x="284" y="86" type="curve" smooth="yes"/>
      <point x="327" y="86"/>
      <point x="375" y="106"/>
      <point x="424" y="152" type="curve"/>
      <point x="469" y="107"/>
      <point x="514" y="89"/>
      <point x="555" y="89" type="curve" smooth="yes"/>
      <point x="681" y="89"/>
      <point x="762" y="247"/>
      <point x="762" y="366" type="curve" smooth="yes"/>
      <point x="762" y="590"/>
      <point x="580" y="877"/>
    </contour>
    <contour>
      <point x="231" y="322" type="curve" smooth="yes"/>
      <point x="222" y="332"/>
      <point x="218" y="345"/>
      <point x="218" y="360" type="curve" smooth="yes"/>
      <point x="218" y="464"/>
      <point x="399" y="668"/>
      <point x="453" y="694" type="curve"/>
      <point x="504" y="667"/>
      <point x="685" y="475"/>
      <point x="685" y="375" type="curve" smooth="yes"/>
      <point x="685" y="338"/>
      <point x="629" y="276"/>
      <point x="550" y="276" type="curve" smooth="yes"/>
      <point x="513" y="276"/>
      <point x="472" y="291"/>
      <point x="434" y="332" type="curve"/>
      <point x="403" y="291"/>
      <point x="367" y="277"/>
      <point x="335" y="277" type="curve" smooth="yes"/>
      <point x="287" y="277"/>
      <point x="245" y="307"/>
    </contour>
  </outline>
</glyph>
<glyph name="absEasternSix" format="1">
  <advance width="881"/>
  <unicode hex="06F6"/>
  <outline>
    <contour>
      <point x="611" y="947" type="curve"/>
      <point x="565" y="1003"/>
      <point x="474" y="1038"/>
      <point x="403" y="1038" type="curve" smooth="yes"/>
      <point x="247" y="1038"/>
      <point x="208" y="845"/>
      <point x="208" y="727" type="curve" smooth="yes"/>
      <point x="208" y="709"/>
      <point x="214" y="647"/>
      <point x="222" y="633" type="curve"/>
      <point x="240" y="582"/>
      <point x="304" y="550"/>
      <point x="349" y="523" type="curve"/>
      <point x="241" y="405"/>
      <point x="136" y="216"/>
      <point x="88" y="54" type="curve"/>
      <point x="137" y="0" type="line"/>
      <point x="248" y="158"/>
      <point x="393" y="350"/>
      <point x="493" y="443" type="curve" smooth="yes"/>
      <point x="585" y="528"/>
      <point x="689" y="613"/>
      <point x="779" y="675" type="curve"/>
      <point x="779" y="863" type="line"/>
      <point x="503" y="667" type="line"/>
      <point x="387" y="667"/>
      <point x="319" y="703"/>
      <point x="274" y="801" type="curve"/>
      <point x="341" y="887"/>
      <point x="445" y="952"/>
      <point x="555" y="952" type="curve" smooth="yes"/>
      <point x="574" y="952"/>
      <point x="592" y="950"/>
    </contour>
  </outline>
</glyph>
<glyph name="absGhainDotBelow" format="1">
  <advance width="800"/>
  <unicode hex="06FC"/>
  <outline>
    <component base="absAin"/>
    <component base="_dot1" xOffset="237" yOffset="852"/>
    <component base="_dot1" xOffset="453" yOffset="-192"/>
    <contour>
      <point x="192" y="1045" type="move" name="diaA"/>
    </contour>
    <contour>
      <point x="273" y="-830" type="move" name="diaB"/>
    </contour>
  </outline>
</glyph>
<glyph name="absBehThreeDotsUpBelow" format="1">
  <advance width="1220"/>
  <unicode hex="0752"/>
  <outline>
    <component base="absBehNoDots"/>
    <component base="_dot3u" xOffset="612" yOffset="-354"/>
    <contour>
      <point x="280" y="690" type="move" name="alef"/>
    </contour>
    <contour>
      <point x="612" y="700" type="move" name="diaA"/>
    </contour>
    <contour>
      <point x="180" y="-336" type="move" name="diaB"/>
    </contour>
  </outline>
</glyph>
<glyph name="absBehDotAboveTwoDotsBelow" format="1">
  <advance width="1220"/>
  <unicode hex="0754"/>
  <outline>
    <component base="absBehNoDots"/>
    <component base="_dot1" xOffset="624" yOffset="581"/>
    <component base="_dot2h" xOffset="612" yOffset="-248"/>
    <contour>
      <point x="280" y="690" type="move" name="alef"/>
    </contour>
    <contour>
      <point x="577" y="806" type="move" name="diaA"/>
    </contour>
    <contour>
      <point x="192" y="-308" type="move" name="diaB"/>
    </contour>
  </outline>
</glyph>
<glyph name="absBehInvSmallVBelow" format="1">
  <advance width="1220"/>
  <unicode hex="0755"/>
  <outline>
    <component base="absBehNoDots"/>
    <component base="_invSmallV" xOffset="612" yOffset="-296"/>
    <contour>
      <point x="280" y="690" type="move" name="alef"/>
    </contour>
    <contour>
      <point x="612" y="700" type="move" name="diaA"/>
    </contour>
    <contour>
      <point x="184" y="-259" type="move" name="diaB"/>
    </contour>
  </outline>
</glyph>
<glyph name="absBehSmallVAbove" format="1">
  <advance width="1220"/>
  <unicode hex="0756"/>
  <outline>
    <component base="absBehNoDots"/>
    <component base="_smallV" xOffset="624" yOffset="569"/>
    <contour>
      <point x="284" y="769" type="move" name="alef"/>
    </contour>
    <contour>
      <point x="589" y="834" type="move" name="diaA"/>
    </contour>
    <contour>
      <point x="269" y="-235" type="move" name="diaB"/>
    </contour>
  </outline>
</glyph>
<glyph name="absHahTwoDotsAbove" format="1">
  <advance width="832"/>
  <unicode hex="0757"/>
  <outline>
    <component base="absHah"/>
    <component base="_dot2h" xOffset="491" yOffset="793"/>
    <contour>
      <point x="219" y="979" type="move" name="alef"/>
    </contour>
    <contour>
      <point x="434" y="1065" type="move" name="diaA"/>
    </contour>
    <contour>
      <point x="179" y="-724" type="move" name="diaB"/>
    </contour>
  </outline>
</glyph>
<glyph name="absHahThreeDotsUpBelow" format="1">
  <advance width="832"/>
  <unicode hex="0758"/>
  <outline>
    <component base="absHah"/>
    <component base="_dot3u" xOffset="494" yOffset="-79"/>
    <contour>
      <point x="219" y="742" type="move" name="alef"/>
    </contour>
    <contour>
      <point x="474" y="745" type="move" name="diaA"/>
    </contour>
    <contour>
      <point x="179" y="-724" type="move" name="diaB"/>
    </contour>
  </outline>
</glyph>
<glyph name="absDalTwoVertBelowSmallTah" format="1">
  <advance width="580"/>
  <unicode hex="0759"/>
  <outline>
    <component base="absDal"/>
    <component base="_tah" xOffset="291" yOffset="856"/>
    <component base="_dot2v" xOffset="291" yOffset="-375"/>
    <contour>
      <point x="95" y="1019" type="move" name="alef"/>
    </contour>
    <contour>
      <point x="284" y="1300" type="move" name="diaA"/>
    </contour>
    <contour>
      <point x="240" y="-660" type="move" name="diaB"/>
    </contour>
  </outline>
</glyph>
<glyph name="absAinTwoDotsAbove" format="1">
  <advance width="800"/>
  <unicode hex="075D"/>
  <outline>
    <component base="absAin"/>
    <component base="_dot2h" xOffset="237" yOffset="852"/>
    <contour>
      <point x="184" y="1101" type="move" name="diaA"/>
    </contour>
    <contour>
      <point x="273" y="-830" type="move" name="diaB"/>
    </contour>
  </outline>
</glyph>
<glyph name="absAinThreeDotsDownAbove" format="1">
  <advance width="800"/>
  <unicode hex="075E"/>
  <outline>
    <component base="absAin"/>
    <component base="_dot3d" xOffset="237" yOffset="958"/>
    <contour>
      <point x="188" y="1292" type="move" name="diaA"/>
    </contour>
    <contour>
      <point x="273" y="-830" type="move" name="diaB"/>
    </contour>
  </outline>
</glyph>
<glyph name="absKehehDotAbove" format="1">
  <advance width="1348"/>
  <unicode hex="0762"/>
  <outline>
    <component base="absKeheh"/>
    <component base="_dot1" xOffset="742" yOffset="1041"/>
    <contour>
      <point x="242" y="773" type="move" name="alef"/>
    </contour>
    <contour>
      <point x="640" y="1235" type="move" name="diaA"/>
    </contour>
    <contour>
      <point x="300" y="-202" type="move" name="diaB"/>
    </contour>
  </outline>
</glyph>
<glyph name="absKehehThreeDotsAbove" format="1">
  <advance width="1348"/>
  <unicode hex="0763"/>
  <outline>
    <component base="absKeheh"/>
    <component base="_dot3u" xOffset="742" yOffset="1147"/>
    <contour>
      <point x="242" y="773" type="move" name="alef"/>
    </contour>
    <contour>
      <point x="676" y="1434" type="move" name="diaA"/>
    </contour>
    <contour>
      <point x="300" y="-202" type="move" name="diaB"/>
    </contour>
  </outline>
</glyph>
<glyph name="absRehTwoVertAbove" format="1">
  <advance width="590"/>
  <unicode hex="076B"/>
  <outline>
    <component base="absReh"/>
    <component base="_dot2v" xOffset="376" yOffset="722"/>
    <contour>
      <point x="122" y="932" type="move" name="alef"/>
    </contour>
    <contour>
      <point x="280" y="1016" type="move" name="diaA"/>
    </contour>
    <contour>
      <point x="167" y="-474" type="move" name="diaB"/>
    </contour>
  </outline>
</glyph>
<glyph name="absRehHamzaAbove" format="1">
  <advance width="590"/>
  <unicode hex="076C"/>
  <outline>
    <component base="absReh"/>
    <component base="_hamza" xOffset="392" yOffset="648"/>
    <contour>
      <point x="126" y="809" type="move" name="alef"/>
    </contour>
    <contour>
      <point x="280" y="923" type="move" name="diaA"/>
    </contour>
    <contour>
      <point x="167" y="-474" type="move" name="diaB"/>
    </contour>
  </outline>
</glyph>
<glyph name="absSeenTwoVertAbove" format="1">
  <advance width="1369"/>
  <unicode hex="076D"/>
  <outline>
    <component base="absSeen"/>
    <component base="_dot2v" xOffset="957" yOffset="745"/>
    <contour>
      <point x="280" y="464" type="move" name="alef"/>
    </contour>
    <contour>
      <point x="675" y="1006" type="move" name="diaA"/>
    </contour>
    <contour>
      <point x="168" y="-514" type="move" name="diaB"/>
    </contour>
  </outline>
</glyph>
<glyph name="absHahSmallTahBelow" format="1">
  <advance width="832"/>
  <unicode hex="076E"/>
  <outline>
    <component base="absHah"/>
    <component base="_tah" xOffset="504" yOffset="-155"/>
    <contour>
      <point x="219" y="742" type="move" name="alef"/>
    </contour>
    <contour>
      <point x="474" y="745" type="move" name="diaA"/>
    </contour>
    <contour>
      <point x="179" y="-724" type="move" name="diaB"/>
    </contour>
  </outline>
</glyph>
<glyph name="figureDash" format="1">
  <advance width="772"/>
  <unicode hex="2012"/>
  <outline>
    <contour>
      <point x="772" y="340" type="line" name="hr00"/>
      <point x="772" y="397" type="line"/>
      <point x="0" y="397" type="line"/>
      <point x="0" y="340" type="line"/>
    </contour>
  </outline>
</glyph>
<glyph name="endash" format="1">
  <advance width="743"/>
  <unicode hex="2013"/>
  <outline>
    <contour>
      <point x="764" y="340" type="line"/>
      <point x="764" y="397" type="line"/>
      <point x="-33" y="397" type="line"/>
      <point x="-33" y="340" type="line"/>
    </contour>
  </outline>
</glyph>
<glyph name="horizontalBar" format="1">
  <advance width="1485"/>
  <unicode hex="2015"/>
  <outline>
    <contour>
      <point x="1485" y="340" type="line" name="hr00"/>
      <point x="1485" y="397" type="line"/>
      <point x="0" y="397" type="line"/>
      <point x="0" y="340" type="line"/>
    </contour>
  </outline>
</glyph>
<glyph name="quoteright.arab" format="1">
  <advance width="604"/>
  <unicode hex="2019"/>
  <outline>
    <contour>
      <point x="184" y="1188" type="line"/>
      <point x="197" y="1171"/>
      <point x="246" y="1083"/>
      <point x="279" y="1083" type="curve" smooth="yes"/>
      <point x="326" y="1083"/>
      <point x="377" y="1178"/>
      <point x="377" y="1223" type="curve" smooth="yes"/>
      <point x="377" y="1329"/>
      <point x="326" y="1430"/>
      <point x="225" y="1485" type="curve"/>
      <point x="205" y="1473" type="line"/>
      <point x="236" y="1427"/>
      <point x="272" y="1374"/>
      <point x="272" y="1319" type="curve" smooth="yes"/>
      <point x="272" y="1305"/>
      <point x="270" y="1288"/>
      <point x="268" y="1274" type="curve"/>
      <point x="227" y="1253" type="line"/>
    </contour>
  </outline>
</glyph>
<glyph name="narrowNoBreakSpace" format="1">
  <advance width="200"/>
  <unicode hex="202F"/>
  <outline>
    <contour>
      <point x="100" y="299" type="move" name="alef"/>
    </contour>
    <contour>
      <point x="100" y="684" type="move" name="diaA"/>
    </contour>
    <contour>
      <point x="92" y="-188" type="move" name="diaB"/>
    </contour>
  </outline>
</glyph>
<glyph name="_dot1" format="1">
  <advance width="0"/>
  <outline>
    <contour>
      <point x="0" y="-104" type="line"/>
      <point x="-104" y="0" type="line" name="av01"/>
      <point x="0" y="104" type="line" name="ah01"/>
      <point x="104" y="0" type="line"/>
    </contour>
    <contour>
      <point x="0" y="-180" type="move" name="_above"/>
    </contour>
    <contour>
      <point x="0" y="180" type="move" name="_below"/>
    </contour>
    <contour>
      <point x="0" y="0" type="move" name="_center"/>
    </contour>
  </outline>
</glyph>
<glyph name="_dot1_smallV" format="1">
  <advance width="0"/>
  <outline>
    <contour>
      <point x="104" y="0" type="line"/>
      <point x="0" y="104" type="line"/>
      <point x="-104" y="0" type="line"/>
      <point x="0" y="-104" type="line"/>
    </contour>
    <contour>
      <point x="-147" y="414" type="curve"/>
      <point x="-122" y="406"/>
      <point x="-75" y="374"/>
      <point x="-48" y="337" type="curve" smooth="yes"/>
      <point x="-26" y="307"/>
      <point x="-6" y="277"/>
      <point x="3" y="242" type="curve"/>
      <point x="23" y="291"/>
      <point x="34" y="312"/>
      <point x="68" y="349" type="curve" smooth="yes"/>
      <point x="98" y="382"/>
      <point x="146" y="414"/>
      <point x="162" y="414" type="curve" smooth="yes"/>
      <point x="162" y="414"/>
      <point x="162" y="383"/>
      <point x="150" y="369" type="curve"/>
      <point x="126" y="357"/>
      <point x="91" y="326"/>
      <point x="70" y="292" type="curve" smooth="yes"/>
      <point x="54" y="266"/>
      <point x="26" y="207"/>
      <point x="15" y="167" type="curve" smooth="yes"/>
      <point x="13" y="160"/>
      <point x="5" y="155"/>
      <point x="-1" y="155" type="curve" smooth="yes"/>
      <point x="-7" y="155"/>
      <point x="-16" y="159"/>
      <point x="-19" y="166" type="curve" smooth="yes"/>
      <point x="-41" y="217"/>
      <point x="-60" y="250"/>
      <point x="-83" y="282" type="curve" smooth="yes"/>
      <point x="-110" y="320"/>
      <point x="-146" y="340"/>
      <point x="-171" y="349" type="curve"/>
      <point x="-171" y="349"/>
      <point x="-154" y="414"/>
    </contour>
    <contour>
      <point x="0" y="-180" type="move" name="_above"/>
    </contour>
    <contour>
      <point x="0" y="449" type="move" name="_below"/>
    </contour>
  </outline>
</glyph>
<glyph name="_dot2h" format="1">
  <advance width="0"/>
  <outline>
    <contour>
      <point x="212" y="0" type="line"/>
      <point x="105" y="104" type="line"/>
      <point x="1" y="0" type="line"/>
      <point x="105" y="-104" type="line"/>
    </contour>
    <contour>
      <point x="-105" y="104" type="line"/>
      <point x="-212" y="0" type="line"/>
      <point x="-105" y="-104" type="line"/>
      <point x="-1" y="0" type="line"/>
    </contour>
    <contour>
      <point x="0" y="180" type="move" name="_below"/>
    </contour>
    <contour>
      <point x="0" y="-180" type="move" name="_above"/>
    </contour>
    <contour>
      <point x="0" y="0" type="move" name="_center"/>
    </contour>
  </outline>
</glyph>
<glyph name="_dot2v" format="1">
  <advance width="0"/>
  <outline>
    <contour>
      <point x="0" y="-212" type="line" name="ah01"/>
      <point x="-104" y="-105" type="line" name="av01"/>
      <point x="0" y="-1" type="line"/>
      <point x="104" y="-105" type="line"/>
    </contour>
    <contour>
      <point x="0" y="1" type="line"/>
      <point x="-104" y="105" type="line" name="sv01"/>
      <point x="0" y="212" type="line" name="ah02"/>
      <point x="104" y="105" type="line"/>
    </contour>
    <contour>
      <point x="0" y="-286" type="move" name="_above"/>
    </contour>
    <contour>
      <point x="0" y="286" type="move" name="_below"/>
    </contour>
    <contour>
      <point x="0" y="0" type="move" name="_center"/>
    </contour>
  </outline>
</glyph>
<glyph name="_dot3d" format="1">
  <advance width="0"/>
  <outline>
    <contour>
      <point x="105" y="0" type="line" name="sh02"/>
      <point x="1" y="104" type="line"/>
      <point x="105" y="211" type="line"/>
      <point x="212" y="104" type="line" name="sv01"/>
    </contour>
    <contour>
      <point x="-105" y="0" type="line" name="sh01"/>
      <point x="-212" y="104" type="line" name="sv02"/>
      <point x="-105" y="211" type="line"/>
      <point x="-1" y="104" type="line"/>
    </contour>
    <contour>
      <point x="0" y="-211" type="line"/>
      <point x="-104" y="-104" type="line"/>
      <point x="0" y="0" type="line" name="ah01"/>
      <point x="104" y="-104" type="line" name="av01"/>
    </contour>
    <contour>
      <point x="0" y="286" type="move" name="_below"/>
    </contour>
    <contour>
      <point x="0" y="-286" type="move" name="_above"/>
    </contour>
    <contour>
      <point x="0" y="0" type="move" name="_center"/>
    </contour>
  </outline>
</glyph>
<glyph name="_dot3h" format="1">
  <advance width="0"/>
  <outline>
    <contour>
      <point x="-105" y="0" type="line"/>
      <point x="-209" y="104" type="line"/>
      <point x="-316" y="0" type="line"/>
      <point x="-209" y="-104" type="line"/>
    </contour>
    <contour>
      <point x="107" y="0" type="line"/>
      <point x="0" y="104" type="line"/>
      <point x="-104" y="0" type="line"/>
      <point x="0" y="-104" type="line"/>
    </contour>
    <contour>
      <point x="319" y="0" type="line"/>
      <point x="212" y="104" type="line"/>
      <point x="108" y="0" type="line"/>
      <point x="212" y="-104" type="line"/>
    </contour>
    <contour>
      <point x="0" y="180" type="move" name="_below"/>
    </contour>
    <contour>
      <point x="0" y="-180" type="move" name="_above"/>
    </contour>
    <contour>
      <point x="0" y="0" type="move" name="_center"/>
    </contour>
  </outline>
</glyph>
<glyph name="_dot4" format="1">
  <advance width="0"/>
  <outline>
    <contour>
      <point x="105" y="-212" type="line" name="sh03"/>
      <point x="1" y="-105" type="line"/>
      <point x="105" y="-1" type="line"/>
      <point x="212" y="-105" type="line" name="sv03"/>
    </contour>
    <contour>
      <point x="-105" y="-212" type="line" name="sh02"/>
      <point x="-212" y="-105" type="line" name="av01"/>
      <point x="-105" y="-1" type="line"/>
      <point x="-1" y="-105" type="line"/>
    </contour>
    <contour>
      <point x="105" y="1" type="line"/>
      <point x="1" y="105" type="line"/>
      <point x="105" y="212" type="line" name="sh01"/>
      <point x="212" y="105" type="line" name="sv02"/>
    </contour>
    <contour>
      <point x="-105" y="1" type="line"/>
      <point x="-212" y="105" type="line" name="sv01"/>
      <point x="-105" y="212" type="line" name="ah01"/>
      <point x="-1" y="105" type="line"/>
    </contour>
    <contour>
      <point x="0" y="286" type="move" name="_below"/>
    </contour>
    <contour>
      <point x="0" y="-286" type="move" name="_above"/>
    </contour>
    <contour>
      <point x="0" y="0" type="move" name="_center"/>
    </contour>
  </outline>
</glyph>
<glyph name="_gafBarShort_dot2h" format="1">
  <advance width="0"/>
  <outline>
    <contour>
      <point x="0" y="0" type="line"/>
      <point x="596" y="297" type="line"/>
      <point x="625" y="383" type="line"/>
      <point x="31" y="86" type="line"/>
    </contour>
    <contour>
      <point x="45" y="316" type="line"/>
      <point x="-59" y="420" type="line"/>
      <point x="-166" y="316" type="line"/>
      <point x="-59" y="212" type="line"/>
    </contour>
    <contour>
      <point x="258" y="316" type="line"/>
      <point x="151" y="420" type="line"/>
      <point x="47" y="316" type="line"/>
      <point x="151" y="212" type="line"/>
    </contour>
    <contour>
      <point x="98" y="0" type="move" name="_above"/>
    </contour>
  </outline>
</glyph>
<glyph name="_hamzaDamma.filled" format="1">
  <advance width="0"/>
  <outline>
    <contour>
      <point x="220" y="111" type="curve" smooth="yes"/>
      <point x="243" y="111"/>
      <point x="265" y="141"/>
      <point x="265" y="162" type="curve" smooth="yes"/>
      <point x="265" y="190"/>
      <point x="226" y="222"/>
      <point x="198" y="222" type="curve" smooth="yes"/>
      <point x="157" y="222"/>
      <point x="-7" y="92"/>
      <point x="-7" y="48" type="curve" smooth="yes"/>
      <point x="-7" y="9"/>
      <point x="38" y="-29"/>
      <point x="38" y="-53" type="curve" smooth="yes"/>
      <point x="38" y="-69"/>
      <point x="-21" y="-126"/>
      <point x="-32" y="-145" type="curve"/>
      <point x="-13" y="-171" type="line"/>
      <point x="56" y="-107"/>
      <point x="159" y="-60"/>
      <point x="253" y="-63" type="curve"/>
      <point x="290" y="-63" type="line"/>
      <point x="339" y="19" type="line"/>
      <point x="175" y="19" type="line" smooth="yes"/>
      <point x="150" y="19"/>
      <point x="81" y="31"/>
      <point x="81" y="64" type="curve" smooth="yes"/>
      <point x="81" y="93"/>
      <point x="132" y="128"/>
      <point x="159" y="128" type="curve" smooth="yes"/>
      <point x="183" y="128"/>
      <point x="200" y="111"/>
    </contour>
    <contour>
      <point x="-149" y="223" type="curve" smooth="yes"/>
      <point x="-87" y="223"/>
      <point x="-66" y="174"/>
      <point x="-66" y="118" type="curve" smooth="yes"/>
      <point x="-66" y="-23"/>
      <point x="-166" y="-99"/>
      <point x="-222" y="-122" type="curve"/>
      <point x="-234" y="-100" type="line"/>
      <point x="-163" y="-50"/>
      <point x="-135" y="-10"/>
      <point x="-135" y="80" type="curve"/>
      <point x="-141" y="77"/>
      <point x="-155" y="76"/>
      <point x="-163" y="76" type="curve" smooth="yes"/>
      <point x="-198" y="76"/>
      <point x="-235" y="104"/>
      <point x="-235" y="148" type="curve" smooth="yes"/>
      <point x="-235" y="199"/>
      <point x="-178" y="223"/>
    </contour>
    <contour>
      <point x="-18" y="-173" type="move" name="_above"/>
    </contour>
    <contour>
      <point x="-27" y="240" type="move" name="_below"/>
    </contour>
  </outline>
</glyph>
<glyph name="_smallV" format="1">
  <advance width="0"/>
  <outline>
    <contour>
      <point x="-147" y="154" type="curve"/>
      <point x="-122" y="146"/>
      <point x="-75" y="114"/>
      <point x="-48" y="77" type="curve" smooth="yes"/>
      <point x="-26" y="47"/>
      <point x="-6" y="17"/>
      <point x="3" y="-18" type="curve"/>
      <point x="23" y="31"/>
      <point x="34" y="52"/>
      <point x="68" y="89" type="curve" smooth="yes"/>
      <point x="98" y="122"/>
      <point x="146" y="154"/>
      <point x="162" y="154" type="curve" smooth="yes"/>
      <point x="162" y="154"/>
      <point x="162" y="123"/>
      <point x="150" y="109" type="curve"/>
      <point x="126" y="97"/>
      <point x="91" y="66"/>
      <point x="70" y="32" type="curve" smooth="yes"/>
      <point x="54" y="6"/>
      <point x="26" y="-53"/>
      <point x="15" y="-93" type="curve" smooth="yes"/>
      <point x="13" y="-100"/>
      <point x="5" y="-105"/>
      <point x="-1" y="-105" type="curve" smooth="yes"/>
      <point x="-7" y="-105"/>
      <point x="-16" y="-101"/>
      <point x="-19" y="-94" type="curve" smooth="yes"/>
      <point x="-41" y="-43"/>
      <point x="-60" y="-10"/>
      <point x="-83" y="22" type="curve" smooth="yes"/>
      <point x="-110" y="60"/>
      <point x="-146" y="80"/>
      <point x="-171" y="89" type="curve"/>
      <point x="-171" y="89"/>
      <point x="-154" y="154"/>
    </contour>
    <contour>
      <point x="0" y="-168" type="move" name="_above"/>
    </contour>
    <contour>
      <point x="0" y="228" type="move" name="_below"/>
    </contour>
  </outline>
</glyph>
<glyph name="_vline" format="1">
  <advance width="0"/>
  <outline>
    <contour>
      <point x="31" y="-94" type="line"/>
      <point x="31" y="171" type="line"/>
      <point x="-36" y="115" type="line"/>
      <point x="-36" y="-149" type="line"/>
    </contour>
    <contour>
      <point x="0" y="238" type="move" name="_below"/>
    </contour>
    <contour>
      <point x="0" y="-215" type="move" name="_above"/>
    </contour>
  </outline>
</glyph>
<glyph name="absAinThreeDotsAboveIni" format="1">
  <advance width="748"/>
  <outline>
    <component base="absAinIni"/>
    <component base="_dot3u" xOffset="361" yOffset="965"/>
    <contour>
      <point x="288" y="1247" type="move" name="diaA"/>
    </contour>
    <contour>
      <point x="202" y="-202" type="move" name="diaB"/>
    </contour>
  </outline>
</glyph>
<glyph name="absAinThreeDotsDownAboveIni" format="1">
  <advance width="748"/>
  <outline>
    <component base="absAinIni"/>
    <component base="_dot3d" xOffset="361" yOffset="965"/>
    <contour>
      <point x="304" y="1292" type="move" name="diaA"/>
    </contour>
    <contour>
      <point x="202" y="-202" type="move" name="diaB"/>
    </contour>
  </outline>
</glyph>
<glyph name="absAinTwoDotsAboveIni" format="1">
  <advance width="748"/>
  <outline>
    <component base="absAinIni"/>
    <component base="_dot2h" xOffset="361" yOffset="859"/>
    <contour>
      <point x="308" y="1105" type="move" name="diaA"/>
    </contour>
    <contour>
      <point x="202" y="-202" type="move" name="diaB"/>
    </contour>
  </outline>
</glyph>
<glyph name="absAinTwoDotsVertAboveIni" format="1">
  <advance width="748"/>
  <outline>
    <component base="absAinIni"/>
    <component base="_dot2v" xOffset="361" yOffset="965"/>
    <contour>
      <point x="308" y="1247" type="move" name="diaA"/>
    </contour>
    <contour>
      <point x="202" y="-202" type="move" name="diaB"/>
    </contour>
  </outline>
</glyph>
<glyph name="absAinTwoDotsVertAboveMed" format="1">
  <advance width="709"/>
  <outline>
    <component base="absAinMed"/>
    <component base="_dot2v" xOffset="361" yOffset="872"/>
    <contour>
      <point x="312" y="1170" type="move" name="diaA"/>
    </contour>
    <contour>
      <point x="202" y="-202" type="move" name="diaB"/>
    </contour>
  </outline>
</glyph>
<glyph name="absAlefFin" format="1">
  <advance width="467"/>
  <outline>
    <contour>
      <point x="496" y="0" type="line"/>
      <point x="533" y="0"/>
      <point x="553" y="43"/>
      <point x="553" y="90" type="curve" smooth="yes"/>
      <point x="553" y="137"/>
      <point x="533" y="180"/>
      <point x="496" y="180" type="curve" smooth="yes"/>
      <point x="474" y="180"/>
      <point x="454" y="180"/>
      <point x="434" y="180" type="curve" smooth="yes"/>
      <point x="375" y="180"/>
      <point x="325" y="193"/>
      <point x="287" y="256" type="curve" smooth="yes"/>
      <point x="248" y="319"/>
      <point x="226" y="502"/>
      <point x="226" y="578" type="curve" smooth="yes"/>
      <point x="226" y="1092" type="line"/>
      <point x="142" y="997" type="line"/>
      <point x="152" y="500" type="line"/>
      <point x="154" y="365"/>
      <point x="173" y="0"/>
      <point x="375" y="0" type="curve" smooth="yes"/>
    </contour>
    <contour>
      <point x="228" y="1149" type="move" name="above"/>
    </contour>
    <contour>
      <point x="285" y="-52" type="move" name="below"/>
    </contour>
    <contour>
      <point x="226" y="1207" type="move" name="diaA"/>
    </contour>
    <contour>
      <point x="202" y="-202" type="move" name="diaB"/>
    </contour>
  </outline>
</glyph>
<glyph name="absAlefFin.postLamMed" format="1">
  <advance width="550"/>
  <outline>
    <contour>
      <point x="592" y="-36" type="curve" smooth="yes"/>
      <point x="604" y="10"/>
      <point x="615" y="87"/>
      <point x="615" y="179" type="curve" smooth="yes"/>
      <point x="615" y="297"/>
      <point x="576" y="474"/>
      <point x="533" y="558" type="curve" smooth="yes"/>
      <point x="453" y="715"/>
      <point x="307" y="913"/>
      <point x="176" y="913" type="curve" smooth="yes"/>
      <point x="117" y="913"/>
      <point x="106" y="846"/>
      <point x="106" y="799" type="curve" smooth="yes"/>
      <point x="106" y="728"/>
      <point x="176" y="635"/>
      <point x="250" y="635" type="curve" smooth="yes"/>
      <point x="289" y="635"/>
      <point x="296" y="647"/>
      <point x="325" y="668" type="curve"/>
      <point x="475" y="554"/>
      <point x="545" y="349"/>
      <point x="545" y="128" type="curve" smooth="yes"/>
      <point x="545" y="80"/>
      <point x="543" y="-12"/>
      <point x="514" y="-46" type="curve" smooth="yes"/>
      <point x="483" y="-82"/>
      <point x="485" y="-109"/>
      <point x="510" y="-106" type="curve" smooth="yes"/>
      <point x="535" y="-103"/>
      <point x="578" y="-90"/>
    </contour>
    <contour>
      <point x="128" y="986" type="move" name="above"/>
    </contour>
    <contour>
      <point x="348" y="-300" type="move" name="below"/>
    </contour>
    <contour>
      <point x="150" y="1000" type="move" name="diaA"/>
    </contour>
    <contour>
      <point x="312" y="-312" type="move" name="diaB"/>
    </contour>
    <contour>
      <point x="550" y="-100" type="move" name="entry"/>
    </contour>
  </outline>
</glyph>
<glyph name="absAlefHamzaAboveFin" format="1">
  <advance width="467"/>
  <outline>
    <component base="absAlefFin"/>
    <component base="_hamza" xOffset="244" yOffset="1361"/>
    <contour>
      <point x="227" y="1628" type="move" name="diaA"/>
    </contour>
    <contour>
      <point x="202" y="-202" type="move" name="diaB"/>
    </contour>
  </outline>
</glyph>
<glyph name="absAlefHamzaBelowFin.postLamMed" format="1">
  <advance width="550"/>
  <outline>
    <component base="absAlefFin.postLamMed"/>
    <component base="_hamza" xOffset="375" yOffset="-540"/>
    <contour>
      <point x="150" y="1000" type="move" name="diaA"/>
    </contour>
    <contour>
      <point x="374" y="-722" type="move" name="diaB"/>
    </contour>
    <contour>
      <point x="550" y="-100" type="move" name="entry"/>
    </contour>
  </outline>
</glyph>
<glyph name="absAlefMaddaAboveFin" format="1">
  <advance width="467"/>
  <outline>
    <component base="absAlefFin"/>
    <component base="_madda" xOffset="228" yOffset="1234"/>
    <contour>
      <point x="190" y="1462" type="move" name="diaA"/>
    </contour>
    <contour>
      <point x="202" y="-202" type="move" name="diaB"/>
    </contour>
  </outline>
</glyph>
<glyph name="absAlefMaddaAboveFin.postLamIni" format="1">
  <advance width="576"/>
  <outline>
    <component base="absAlefFin.postLamIni"/>
    <component base="_madda" xOffset="110" yOffset="1100"/>
    <contour>
      <point x="73" y="1300" type="move" name="diaA"/>
    </contour>
    <contour>
      <point x="312" y="-312" type="move" name="diaB"/>
    </contour>
    <contour>
      <point x="574" y="0" type="move" name="entry"/>
    </contour>
  </outline>
</glyph>
<glyph name="absAlefMaddaAboveFin.postLamMed" format="1">
  <advance width="550"/>
  <outline>
    <component base="absAlefFin.postLamMed"/>
    <component base="_madda" xOffset="128" yOffset="1071"/>
    <contour>
      <point x="100" y="1280" type="move" name="diaA"/>
    </contour>
    <contour>
      <point x="312" y="-312" type="move" name="diaB"/>
    </contour>
    <contour>
      <point x="550" y="-100" type="move" name="entry"/>
    </contour>
  </outline>
</glyph>
<glyph name="absAlefWavyHamzaAboveFin.postLamIni" format="1">
  <advance width="576"/>
  <outline>
    <component base="absAlefFin.postLamIni"/>
    <component base="_wavyHamza" xOffset="128" yOffset="1188"/>
    <contour>
      <point x="26" y="1400" type="move" name="diaA"/>
    </contour>
    <contour>
      <point x="312" y="-312" type="move" name="diaB"/>
    </contour>
    <contour>
      <point x="574" y="0" type="move" name="entry"/>
    </contour>
  </outline>
</glyph>
<glyph name="absAlefWavyHamzaBelowFin" format="1">
  <advance width="467"/>
  <outline>
    <component base="absAlefFin"/>
    <component base="_wavyHamza" xOffset="319" yOffset="-278"/>
    <contour>
      <point x="227" y="1207" type="move" name="diaA"/>
    </contour>
    <contour>
      <point x="223" y="-506" type="move" name="diaB"/>
    </contour>
  </outline>
</glyph>
<glyph name="absAlefWavyHamzaBelowFin.postLamIni" format="1">
  <advance width="576"/>
  <outline>
    <component base="absAlefFin.postLamIni"/>
    <component base="_wavyHamza" xOffset="414" yOffset="-526"/>
    <contour>
      <point x="109" y="1041" type="move" name="diaA"/>
    </contour>
    <contour>
      <point x="367" y="-733" type="move" name="diaB"/>
    </contour>
    <contour>
      <point x="574" y="0" type="move" name="entry"/>
    </contour>
  </outline>
</glyph>
<glyph name="absAlefWavyHamzaBelowFin.postLamMed" format="1">
  <advance width="550"/>
  <outline>
    <component base="absAlefFin.postLamMed"/>
    <component base="_wavyHamza" xOffset="382" yOffset="-526"/>
    <contour>
      <point x="150" y="1000" type="move" name="diaA"/>
    </contour>
    <contour>
      <point x="356" y="-719" type="move" name="diaB"/>
    </contour>
    <contour>
      <point x="550" y="-100" type="move" name="entry"/>
    </contour>
  </outline>
</glyph>
<glyph name="absAutoKashida" format="1">
  <advance width="256"/>
  <outline>
    <contour>
      <point x="-27" y="186" type="line"/>
      <point x="-27" y="0" type="line"/>
      <point x="256" y="0" type="line"/>
      <point x="256" y="186" type="line"/>
    </contour>
    <contour>
      <point x="114" y="700" type="move" name="diaA"/>
    </contour>
    <contour>
      <point x="114" y="-200" type="move" name="diaB"/>
    </contour>
  </outline>
</glyph>
<glyph name="absBeehIni" format="1">
  <advance width="338"/>
  <outline>
    <component base="absBehNoDotsIni"/>
    <component base="_dot2v" xOffset="199" yOffset="-336"/>
    <contour>
      <point x="105" y="700" type="move" name="diaA"/>
    </contour>
    <contour>
      <point x="158" y="-624" type="move" name="diaB"/>
    </contour>
  </outline>
</glyph>
<glyph name="absBehDotAboveTwoDotsBelowMed" format="1">
  <advance width="440"/>
  <outline>
    <component base="absBehNoDotsMed"/>
    <component base="_dot1" xOffset="212" yOffset="566"/>
    <component base="_dot2h" xOffset="203" yOffset="-230"/>
    <contour>
      <point x="60" y="696" type="move" name="alef"/>
    </contour>
    <contour>
      <point x="174" y="818" type="move" name="diaA"/>
    </contour>
    <contour>
      <point x="182" y="-433" type="move" name="diaB"/>
    </contour>
  </outline>
</glyph>
<glyph name="absBehInvSmallVBelowIni" format="1">
  <advance width="338"/>
  <outline>
    <component base="absBehNoDotsIni"/>
    <component base="_invSmallV" xOffset="199" yOffset="-278"/>
    <contour>
      <point x="105" y="700" type="move" name="diaA"/>
    </contour>
    <contour>
      <point x="162" y="-417" type="move" name="diaB"/>
    </contour>
  </outline>
</glyph>
<glyph name="absBehNoDotsIni" format="1">
  <advance width="338"/>
  <outline>
    <contour>
      <point x="-36" y="180" type="line"/>
      <point x="-69" y="180"/>
      <point x="-85" y="140"/>
      <point x="-85" y="93" type="curve" smooth="yes"/>
      <point x="-85" y="46"/>
      <point x="-69" y="0"/>
      <point x="-36" y="0" type="curve" smooth="yes"/>
      <point x="115" y="0" type="line" smooth="yes"/>
      <point x="180" y="0"/>
      <point x="258" y="94"/>
      <point x="283" y="150" type="curve" smooth="yes"/>
      <point x="303" y="195"/>
      <point x="313" y="246"/>
      <point x="313" y="295" type="curve" smooth="yes"/>
      <point x="313" y="360"/>
      <point x="297" y="430"/>
      <point x="258" y="481" type="curve"/>
      <point x="201" y="336" type="line"/>
      <point x="215" y="326"/>
      <point x="242" y="246"/>
      <point x="242" y="227" type="curve" smooth="yes"/>
      <point x="242" y="213"/>
      <point x="229" y="180"/>
      <point x="215" y="180" type="curve" smooth="yes"/>
    </contour>
    <contour>
      <point x="206" y="530" type="move" name="above"/>
    </contour>
    <contour>
      <point x="199" y="-50" type="move" name="below"/>
    </contour>
    <contour>
      <point x="187" y="81" type="move" name="ring"/>
    </contour>
    <contour>
      <point x="105" y="700" type="move" name="diaA"/>
    </contour>
    <contour>
      <point x="150" y="-202" type="move" name="diaB"/>
    </contour>
  </outline>
</glyph>
<glyph name="absBehSmallVAboveIni" format="1">
  <advance width="338"/>
  <outline>
    <component base="absBehNoDotsIni"/>
    <component base="_smallV" xOffset="206" yOffset="698"/>
    <contour>
      <point x="150" y="968" type="move" name="diaA"/>
    </contour>
    <contour>
      <point x="150" y="-202" type="move" name="diaB"/>
    </contour>
  </outline>
</glyph>
<glyph name="absBehThreeDotsAboveDotBelowFin" format="1">
  <advance width="1183"/>
  <outline>
    <component base="absBehNoDotsFin"/>
    <component base="_dot3u" xOffset="587" yOffset="629"/>
    <component base="_dot1" xOffset="506" yOffset="-267"/>
    <contour>
      <point x="272" y="698" type="move" name="alef"/>
    </contour>
    <contour>
      <point x="544" y="923" type="move" name="diaA"/>
    </contour>
    <contour>
      <point x="188" y="-316" type="move" name="diaB"/>
    </contour>
  </outline>
</glyph>
<glyph name="absBehThreeDotsAboveDotBelowMed" format="1">
  <advance width="440"/>
  <outline>
    <component base="absBehNoDotsMed"/>
    <component base="_dot3u" xOffset="212" yOffset="672"/>
    <component base="_dot1" xOffset="203" yOffset="-230"/>
    <contour>
      <point x="48" y="897" type="move" name="alef"/>
    </contour>
    <contour>
      <point x="158" y="980" type="move" name="diaA"/>
    </contour>
    <contour>
      <point x="154" y="-417" type="move" name="diaB"/>
    </contour>
  </outline>
</glyph>
<glyph name="absBehThreeDotsHorizBelowIni" format="1">
  <advance width="338"/>
  <outline>
    <component base="absBehNoDotsIni"/>
    <component base="_dot3h" xOffset="199" yOffset="-230"/>
    <contour>
      <point x="105" y="700" type="move" name="diaA"/>
    </contour>
    <contour>
      <point x="154" y="-421" type="move" name="diaB"/>
    </contour>
  </outline>
</glyph>
<glyph name="absBehThreeDotsHorizBelowMed" format="1">
  <advance width="440"/>
  <outline>
    <component base="absBehNoDotsMed"/>
    <component base="_dot3h" xOffset="203" yOffset="-230"/>
    <contour>
      <point x="52" y="599" type="move" name="alef"/>
    </contour>
    <contour>
      <point x="185" y="700" type="move" name="diaA"/>
    </contour>
    <contour>
      <point x="162" y="-445" type="move" name="diaB"/>
    </contour>
  </outline>
</glyph>
<glyph name="absBehTwoDotsAboveThreeDotsUpBelowFin" format="1">
  <advance width="1183"/>
  <outline>
    <component base="absBehNoDotsFin"/>
    <component base="_dot2h" xOffset="587" yOffset="523"/>
    <component base="_dot3u" xOffset="506" yOffset="-373"/>
    <contour>
      <point x="272" y="698" type="move" name="alef"/>
    </contour>
    <contour>
      <point x="544" y="761" type="move" name="diaA"/>
    </contour>
    <contour>
      <point x="249" y="-640" type="move" name="diaB"/>
    </contour>
  </outline>
</glyph>
<glyph name="absBehTwoDotsAboveThreeDotsUpBelowIni" format="1">
  <advance width="338"/>
  <outline>
    <component base="absBehNoDotsIni"/>
    <component base="_dot2h" xOffset="206" yOffset="710"/>
    <component base="_dot3u" xOffset="199" yOffset="-336"/>
    <contour>
      <point x="154" y="956" type="move" name="diaA"/>
    </contour>
    <contour>
      <point x="170" y="-632" type="move" name="diaB"/>
    </contour>
  </outline>
</glyph>
<glyph name="absBehTwoDotsAboveThreeDotsUpBelowMed" format="1">
  <advance width="440"/>
  <outline>
    <component base="absBehNoDotsMed"/>
    <component base="_dot2h" xOffset="212" yOffset="566"/>
    <component base="_dot3u" xOffset="203" yOffset="-336"/>
    <contour>
      <point x="56" y="756" type="move" name="alef"/>
    </contour>
    <contour>
      <point x="182" y="830" type="move" name="diaA"/>
    </contour>
    <contour>
      <point x="166" y="-644" type="move" name="diaB"/>
    </contour>
  </outline>
</glyph>
<glyph name="absBehehFin" format="1">
  <advance width="1183"/>
  <outline>
    <component base="absBehNoDotsFin"/>
    <component base="_dot4" xOffset="506" yOffset="-373"/>
    <contour>
      <point x="272" y="698" type="move" name="alef"/>
    </contour>
    <contour>
      <point x="544" y="701" type="move" name="diaA"/>
    </contour>
    <contour>
      <point x="237" y="-640" type="move" name="diaB"/>
    </contour>
  </outline>
</glyph>
<glyph name="absBehehMed" format="1">
  <advance width="440"/>
  <outline>
    <component base="absBehNoDotsMed"/>
    <component base="_dot4" xOffset="203" yOffset="-336"/>
    <contour>
      <point x="52" y="599" type="move" name="alef"/>
    </contour>
    <contour>
      <point x="185" y="700" type="move" name="diaA"/>
    </contour>
    <contour>
      <point x="158" y="-664" type="move" name="diaB"/>
    </contour>
  </outline>
</glyph>
<glyph name="absComma.downward" format="1">
  <advance width="604"/>
  <outline>
    <contour>
      <point x="385" y="117" type="line"/>
      <point x="373" y="133"/>
      <point x="322" y="221"/>
      <point x="291" y="221" type="curve" smooth="yes"/>
      <point x="244" y="221"/>
      <point x="193" y="125"/>
      <point x="193" y="82" type="curve" smooth="yes"/>
      <point x="193" y="-25"/>
      <point x="242" y="-127"/>
      <point x="342" y="-180" type="curve"/>
      <point x="362" y="-170" type="line"/>
      <point x="334" y="-123"/>
      <point x="297" y="-72"/>
      <point x="297" y="-16" type="curve" smooth="yes"/>
      <point x="297" y="0"/>
      <point x="299" y="14"/>
      <point x="301" y="31" type="curve"/>
      <point x="342" y="51" type="line"/>
    </contour>
  </outline>
</glyph>
<glyph name="absDadDotBelowIni" format="1">
  <advance width="1168"/>
  <outline>
    <component base="absSadIni"/>
    <component base="_dot1" xOffset="548" yOffset="641"/>
    <component base="_dot1" xOffset="548" yOffset="-255"/>
    <contour>
      <point x="125" y="595" type="move" name="alef"/>
    </contour>
    <contour>
      <point x="470" y="842" type="move" name="diaA"/>
    </contour>
    <contour>
      <point x="300" y="-360" type="move" name="diaB"/>
    </contour>
  </outline>
</glyph>
<glyph name="absDadMed" format="1">
  <advance width="1223"/>
  <outline>
    <component base="absSadMed"/>
    <component base="_dot1" xOffset="573" yOffset="660"/>
    <contour>
      <point x="165" y="599" type="move" name="alef"/>
    </contour>
    <contour>
      <point x="526" y="867" type="move" name="diaA"/>
    </contour>
    <contour>
      <point x="300" y="-202" type="move" name="diaB"/>
    </contour>
  </outline>
</glyph>
<glyph name="absDalFourDotsAboveFin" format="1">
  <advance width="739"/>
  <outline>
    <component base="absDalFin"/>
    <component base="_dot4" xOffset="474" yOffset="1109"/>
    <contour>
      <point x="171" y="1364" type="move" name="alef"/>
    </contour>
    <contour>
      <point x="433" y="1413" type="move" name="diaA"/>
    </contour>
    <contour>
      <point x="300" y="-202" type="move" name="diaB"/>
    </contour>
  </outline>
</glyph>
<glyph name="absDalRingFin" format="1">
  <advance width="739"/>
  <outline>
    <component base="absDalFin"/>
    <component base="_ring" xOffset="314" yOffset="-95"/>
    <contour>
      <point x="171" y="686" type="move" name="alef"/>
    </contour>
    <contour>
      <point x="429" y="927" type="move" name="diaA"/>
    </contour>
    <contour>
      <point x="296" y="-356" type="move" name="diaB"/>
    </contour>
  </outline>
</glyph>
<glyph name="absDalTwoVertBelowSmallTahFin" format="1">
  <advance width="739"/>
  <outline>
    <component base="absDalFin"/>
    <component base="_tah" xOffset="474" yOffset="984"/>
    <component base="_dot2v" xOffset="349" yOffset="-348"/>
    <contour>
      <point x="171" y="1146" type="move" name="alef"/>
    </contour>
    <contour>
      <point x="437" y="1413" type="move" name="diaA"/>
    </contour>
    <contour>
      <point x="211" y="-620" type="move" name="diaB"/>
    </contour>
  </outline>
</glyph>
<glyph name="absDamma.filled" format="1">
  <advance width="0"/>
  <outline>
    <component base="_damma.filled" xOffset="230" yOffset="1211"/>
    <contour>
      <point x="187" y="1048" type="move" name="_diaA"/>
    </contour>
    <contour>
      <point x="187" y="1492" type="move" name="diaA"/>
    </contour>
  </outline>
</glyph>
<glyph name="absDdahalFin" format="1">
  <advance width="739"/>
  <outline>
    <component base="absDalFin"/>
    <component base="_dot2h" xOffset="349" yOffset="-242"/>
    <contour>
      <point x="171" y="686" type="move" name="alef"/>
    </contour>
    <contour>
      <point x="429" y="927" type="move" name="diaA"/>
    </contour>
    <contour>
      <point x="336" y="-445" type="move" name="diaB"/>
    </contour>
  </outline>
</glyph>
<glyph name="absDulFin" format="1">
  <advance width="739"/>
  <outline>
    <component base="absDalFin"/>
    <component base="_dot3u" xOffset="474" yOffset="1109"/>
    <contour>
      <point x="171" y="1225" type="move" name="alef"/>
    </contour>
    <contour>
      <point x="409" y="1409" type="move" name="diaA"/>
    </contour>
    <contour>
      <point x="300" y="-202" type="move" name="diaB"/>
    </contour>
  </outline>
</glyph>
<glyph name="absEIni" format="1">
  <advance width="338"/>
  <outline>
    <component base="absBehNoDotsIni"/>
    <component base="_dot2v" xOffset="199" yOffset="-336"/>
    <contour>
      <point x="105" y="700" type="move" name="diaA"/>
    </contour>
    <contour>
      <point x="166" y="-644" type="move" name="diaB"/>
    </contour>
  </outline>
</glyph>
<glyph name="absEasternFourSmall" format="1">
  <advance width="470"/>
  <outline>
    <contour>
      <point x="428" y="643" type="line"/>
      <point x="424" y="630"/>
      <point x="411" y="625"/>
      <point x="396" y="625" type="curve" smooth="yes"/>
      <point x="362" y="625"/>
      <point x="314" y="652"/>
      <point x="314" y="681" type="curve" smooth="yes"/>
      <point x="314" y="707"/>
      <point x="348" y="724"/>
      <point x="373" y="724" type="curve" smooth="yes"/>
      <point x="389" y="724"/>
      <point x="405" y="718"/>
      <point x="416" y="706" type="curve"/>
      <point x="430" y="751" type="line"/>
      <point x="415" y="766"/>
      <point x="390" y="774"/>
      <point x="363" y="774" type="curve" smooth="yes"/>
      <point x="312" y="774"/>
      <point x="269" y="746"/>
      <point x="269" y="688" type="curve" smooth="yes"/>
      <point x="269" y="647"/>
      <point x="291" y="607"/>
      <point x="330" y="604" type="curve"/>
      <point x="292" y="590"/>
      <point x="260" y="584"/>
      <point x="233" y="584" type="curve" smooth="yes"/>
      <point x="175" y="584"/>
      <point x="141" y="612"/>
      <point x="124" y="648" type="curve" smooth="yes"/>
      <point x="79" y="741" type="line"/>
      <point x="40" y="597" type="line"/>
      <point x="77" y="514"/>
      <point x="90" y="463"/>
      <point x="118" y="376" type="curve" smooth="yes"/>
      <point x="150" y="276"/>
      <point x="138" y="149"/>
      <point x="155" y="149" type="curve" smooth="yes"/>
      <point x="181" y="149"/>
      <point x="197" y="272"/>
      <point x="197" y="351" type="curve" smooth="yes"/>
      <point x="197" y="401"/>
      <point x="172" y="495"/>
      <point x="165" y="534" type="curve"/>
      <point x="197" y="520"/>
      <point x="224" y="514"/>
      <point x="250" y="514" type="curve" smooth="yes"/>
      <point x="299" y="514"/>
      <point x="346" y="535"/>
      <point x="412" y="562" type="curve"/>
    </contour>
    <contour>
      <point x="-8" y="0" type="move" name="_digit"/>
    </contour>
    <contour>
      <point x="462" y="0" type="move" name="digit"/>
    </contour>
  </outline>
</glyph>
<glyph name="absEasternSixMedium" format="1">
  <advance width="704"/>
  <outline>
    <contour>
      <point x="489" y="758" type="curve"/>
      <point x="452" y="802"/>
      <point x="379" y="830"/>
      <point x="322" y="830" type="curve" smooth="yes"/>
      <point x="198" y="830"/>
      <point x="166" y="676"/>
      <point x="166" y="582" type="curve" smooth="yes"/>
      <point x="166" y="567"/>
      <point x="171" y="518"/>
      <point x="178" y="506" type="curve"/>
      <point x="192" y="466"/>
      <point x="243" y="440"/>
      <point x="279" y="418" type="curve"/>
      <point x="193" y="324"/>
      <point x="109" y="173"/>
      <point x="70" y="43" type="curve"/>
      <point x="110" y="0" type="line"/>
      <point x="198" y="126"/>
      <point x="314" y="280"/>
      <point x="394" y="354" type="curve" smooth="yes"/>
      <point x="468" y="422"/>
      <point x="551" y="490"/>
      <point x="623" y="540" type="curve"/>
      <point x="623" y="690" type="line"/>
      <point x="402" y="534" type="line"/>
      <point x="310" y="534"/>
      <point x="255" y="562"/>
      <point x="219" y="641" type="curve"/>
      <point x="273" y="710"/>
      <point x="356" y="762"/>
      <point x="444" y="762" type="curve" smooth="yes"/>
      <point x="459" y="762"/>
      <point x="474" y="760"/>
    </contour>
    <contour>
      <point x="0" y="0" type="move" name="_digit"/>
    </contour>
    <contour>
      <point x="704" y="0" type="move" name="digit"/>
    </contour>
  </outline>
</glyph>
<glyph name="absEndOfAyah.3" format="1">
  <advance width="1844"/>
  <outline>
    <component base="absEndOfAyah"/>
    <contour>
      <point x="219" y="0" type="move" name="digit"/>
    </contour>
  </outline>
</glyph>
<glyph name="absEndOfAyah.alt.2" format="1">
  <advance width="1844"/>
  <outline>
    <component base="absEndOfAyah.alt"/>
    <contour>
      <point x="220" y="0" type="move" name="digit"/>
    </contour>
  </outline>
</glyph>
<glyph name="absEndOfAyah.alt.3" format="1">
  <advance width="1844"/>
  <outline>
    <component base="absEndOfAyah.alt"/>
    <contour>
      <point x="217" y="0" type="move" name="digit"/>
    </contour>
  </outline>
</glyph>
<glyph name="absEndOfAyah.altB" format="1">
  <advance width="1844"/>
  <outline>
    <contour>
      <point x="1623" y="-3" type="line" smooth="yes"/>
      <point x="1623" y="-128"/>
      <point x="1519" y="-232"/>
      <point x="1394" y="-232" type="curve" smooth="yes"/>
      <point x="452" y="-232" type="line" smooth="yes"/>
      <point x="326" y="-232"/>
      <point x="222" y="-128"/>
      <point x="222" y="-3" type="curve" smooth="yes"/>
      <point x="222" y="938" type="line" smooth="yes"/>
      <point x="222" y="1064"/>
      <point x="326" y="1167"/>
      <point x="452" y="1167" type="curve" smooth="yes"/>
      <point x="1394" y="1167" type="line" smooth="yes"/>
      <point x="1519" y="1167"/>
      <point x="1623" y="1064"/>
      <point x="1623" y="938" type="curve" smooth="yes"/>
    </contour>
    <contour>
      <point x="1645" y="7" type="curve"/>
      <point x="1645" y="926" type="line" smooth="yes"/>
      <point x="1645" y="1071"/>
      <point x="1527" y="1189"/>
      <point x="1382" y="1189" type="curve" smooth="yes"/>
      <point x="462" y="1189" type="line" smooth="yes"/>
      <point x="317" y="1189"/>
      <point x="200" y="1071"/>
      <point x="200" y="926" type="curve" smooth="yes"/>
      <point x="200" y="7" type="line" smooth="yes"/>
      <point x="200" y="-138"/>
      <point x="317" y="-255"/>
      <point x="462" y="-255" type="curve" smooth="yes"/>
      <point x="1382" y="-255" type="line" smooth="yes"/>
      <point x="1527" y="-255"/>
      <point x="1645" y="-138"/>
    </contour>
    <contour>
      <point x="570" y="0" type="move" name="digit"/>
    </contour>
  </outline>
</glyph>
<glyph name="absFehDotBelowIni" format="1">
  <advance width="487"/>
  <outline>
    <component base="absDotlessFehIni"/>
    <component base="_dot1" xOffset="256" yOffset="878"/>
    <component base="_dot1" xOffset="237" yOffset="-236"/>
    <contour>
      <point x="174" y="1069" type="move" name="diaA"/>
    </contour>
    <contour>
      <point x="174" y="-413" type="move" name="diaB"/>
    </contour>
  </outline>
</glyph>
<glyph name="absFehDotBelowMed" format="1">
  <advance width="563"/>
  <outline>
    <component base="absDotlessFehMed"/>
    <component base="_dot1" xOffset="299" yOffset="847"/>
    <component base="_dot1" xOffset="249" yOffset="-186"/>
    <contour>
      <point x="235" y="1037" type="move" name="diaA"/>
    </contour>
    <contour>
      <point x="202" y="-381" type="move" name="diaB"/>
    </contour>
  </outline>
</glyph>
<glyph name="absFehDotMovedBelowIni" format="1">
  <advance width="487"/>
  <outline>
    <component base="absDotlessFehIni"/>
    <component base="_dot1" xOffset="237" yOffset="-236"/>
    <contour>
      <point x="178" y="858" type="move" name="diaA"/>
    </contour>
    <contour>
      <point x="182" y="-417" type="move" name="diaB"/>
    </contour>
  </outline>
</glyph>
<glyph name="absFehDotMovedBelowMed" format="1">
  <advance width="563"/>
  <outline>
    <component base="absDotlessFehMed"/>
    <component base="_dot1" xOffset="249" yOffset="-186"/>
    <contour>
      <point x="239" y="769" type="move" name="diaA"/>
    </contour>
    <contour>
      <point x="202" y="-381" type="move" name="diaB"/>
    </contour>
  </outline>
</glyph>
<glyph name="absFehMed" format="1">
  <advance width="563"/>
  <outline>
    <component base="absDotlessFehMed"/>
    <component base="_dot1" xOffset="299" yOffset="847"/>
    <contour>
      <point x="243" y="1001" type="move" name="diaA"/>
    </contour>
    <contour>
      <point x="202" y="-202" type="move" name="diaB"/>
    </contour>
  </outline>
</glyph>
<glyph name="absFehThreeDotsBelowFin" format="1">
  <advance width="1272"/>
  <outline>
    <component base="absDotlessFehFin"/>
    <component base="_dot3d" xOffset="904" yOffset="-330"/>
    <contour>
      <point x="246" y="698" type="move" name="alef"/>
    </contour>
    <contour>
      <point x="669" y="700" type="move" name="diaA"/>
    </contour>
    <contour>
      <point x="300" y="-202" type="move" name="diaB"/>
    </contour>
  </outline>
</glyph>
<glyph name="absFehThreeDotsUpBelowIni" format="1">
  <advance width="487"/>
  <outline>
    <component base="absDotlessFehIni"/>
    <component base="_dot3u" xOffset="237" yOffset="-342"/>
    <contour>
      <point x="178" y="858" type="move" name="diaA"/>
    </contour>
    <contour>
      <point x="215" y="-620" type="move" name="diaB"/>
    </contour>
  </outline>
</glyph>
<glyph name="absFehTwoDotsBelowIni" format="1">
  <advance width="487"/>
  <outline>
    <component base="absDotlessFehIni"/>
    <component base="_dot2h" xOffset="237" yOffset="-236"/>
    <contour>
      <point x="178" y="858" type="move" name="diaA"/>
    </contour>
    <contour>
      <point x="215" y="-409" type="move" name="diaB"/>
    </contour>
  </outline>
</glyph>
<glyph name="absFehTwoDotsBelowMed" format="1">
  <advance width="563"/>
  <outline>
    <component base="absDotlessFehMed"/>
    <component base="_dot2h" xOffset="249" yOffset="-186"/>
    <contour>
      <point x="239" y="769" type="move" name="diaA"/>
    </contour>
    <contour>
      <point x="202" y="-381" type="move" name="diaB"/>
    </contour>
  </outline>
</glyph>
<glyph name="absGafMed" format="1">
  <advance width="932"/>
  <outline>
    <component base="absKafMed"/>
    <component base="_gafBar" xOffset="-42" yOffset="841"/>
    <contour>
      <point x="142" y="1142" type="move" name="diaA"/>
    </contour>
    <contour>
      <point x="150" y="-200" type="move" name="diaB"/>
    </contour>
  </outline>
</glyph>
<glyph name="absGafThreeDotsAboveFin" format="1">
  <advance width="1577"/>
  <outline>
    <component base="absKehehFin"/>
    <component base="_gafBar_dot3u" xOffset="610" yOffset="835"/>
    <contour>
      <point x="242" y="761" type="move" name="alef"/>
    </contour>
    <contour>
      <point x="449" y="1409" type="move" name="diaA"/>
    </contour>
    <contour>
      <point x="316" y="-202" type="move" name="diaB"/>
    </contour>
  </outline>
</glyph>
<glyph name="absGafThreeDotsAboveIni" format="1">
  <advance width="633"/>
  <outline>
    <component base="absKafIni"/>
    <component base="_gafBar_dot3u" xOffset="-23" yOffset="848"/>
    <contour>
      <point x="77" y="1571" type="move" name="diaA"/>
    </contour>
    <contour>
      <point x="150" y="-200" type="move" name="diaB"/>
    </contour>
  </outline>
</glyph>
<glyph name="absGafThreeDotsAboveMed" format="1">
  <advance width="932"/>
  <outline>
    <component base="absKafMed"/>
    <component base="_gafBar_dot3u" xOffset="-42" yOffset="841"/>
    <contour>
      <point x="32" y="1563" type="move" name="diaA"/>
    </contour>
    <contour>
      <point x="150" y="-200" type="move" name="diaB"/>
    </contour>
  </outline>
</glyph>
<glyph name="absGafTwoDotsBelowIni" format="1">
  <advance width="633"/>
  <outline>
    <component base="absKafIni"/>
    <component base="_gafBar" xOffset="-23" yOffset="848"/>
    <component base="_dot2h" xOffset="137" yOffset="-230"/>
    <contour>
      <point x="142" y="1178" type="move" name="diaA"/>
    </contour>
    <contour>
      <point x="150" y="-384" type="move" name="diaB"/>
    </contour>
  </outline>
</glyph>
<glyph name="absGafTwoDotsBelowMed" format="1">
  <advance width="932"/>
  <outline>
    <component base="absKafMed"/>
    <component base="_gafBar" xOffset="-42" yOffset="841"/>
    <component base="_dot2h" xOffset="131" yOffset="-224"/>
    <contour>
      <point x="142" y="1142" type="move" name="diaA"/>
    </contour>
    <contour>
      <point x="130" y="-381" type="move" name="diaB"/>
    </contour>
  </outline>
</glyph>
<glyph name="absGhainDotBelowFin" format="1">
  <advance width="743"/>
  <outline>
    <component base="absAinFin"/>
    <component base="_dot1" xOffset="343" yOffset="747"/>
    <component base="_dot1" xOffset="368" yOffset="-124"/>
    <contour>
      <point x="304" y="952" type="move" name="diaA"/>
    </contour>
    <contour>
      <point x="202" y="-786" type="move" name="diaB"/>
    </contour>
  </outline>
</glyph>
<glyph name="absGhainDotBelowIni" format="1">
  <advance width="748"/>
  <outline>
    <component base="absAinIni"/>
    <component base="_dot1" xOffset="361" yOffset="859"/>
    <component base="_dot1" xOffset="361" yOffset="-224"/>
    <contour>
      <point x="279" y="1053" type="move" name="diaA"/>
    </contour>
    <contour>
      <point x="202" y="-377" type="move" name="diaB"/>
    </contour>
  </outline>
</glyph>
<glyph name="absGhainFin" format="1">
  <advance width="743"/>
  <outline>
    <component base="absAinFin"/>
    <component base="_dot1" xOffset="343" yOffset="747"/>
    <contour>
      <point x="300" y="944" type="move" name="diaA"/>
    </contour>
    <contour>
      <point x="202" y="-786" type="move" name="diaB"/>
    </contour>
  </outline>
</glyph>
<glyph name="absGuehIni" format="1">
  <advance width="633"/>
  <outline>
    <component base="absKafIni"/>
    <component base="_gafBar" xOffset="-23" yOffset="848"/>
    <component base="_dot2v" xOffset="137" yOffset="-336"/>
    <contour>
      <point x="142" y="1178" type="move" name="diaA"/>
    </contour>
    <contour>
      <point x="150" y="-597" type="move" name="diaB"/>
    </contour>
  </outline>
</glyph>
<glyph name="absHahHamzaAboveMed" format="1">
  <advance width="952"/>
  <outline>
    <component base="absHahMed"/>
    <component base="_hamza" xOffset="427" yOffset="785"/>
    <contour>
      <point x="149" y="917" type="move" name="alef"/>
    </contour>
    <contour>
      <point x="368" y="1037" type="move" name="diaA"/>
    </contour>
    <contour>
      <point x="300" y="-202" type="move" name="diaB"/>
    </contour>
  </outline>
</glyph>
<glyph name="absHahIni" format="1">
  <advance width="715"/>
  <outline>
    <contour>
      <point x="59" y="0" type="line"/>
      <point x="131" y="0"/>
      <point x="246" y="69"/>
      <point x="338" y="121" type="curve" smooth="yes"/>
      <point x="476" y="200"/>
      <point x="596" y="190"/>
      <point x="662" y="190" type="curve"/>
      <point x="713" y="365" type="line"/>
      <point x="641" y="365"/>
      <point x="571" y="373"/>
      <point x="502" y="391" type="curve"/>
      <point x="408" y="414"/>
      <point x="285" y="530"/>
      <point x="205" y="530" type="curve" smooth="yes"/>
      <point x="111" y="530"/>
      <point x="27" y="416"/>
      <point x="27" y="326" type="curve" smooth="yes"/>
      <point x="27" y="319"/>
      <point x="27" y="315"/>
      <point x="35" y="315" type="curve" smooth="yes"/>
      <point x="49" y="315"/>
      <point x="92" y="365"/>
      <point x="160" y="365" type="curve" smooth="yes"/>
      <point x="223" y="365"/>
      <point x="300" y="300"/>
      <point x="400" y="269" type="curve"/>
      <point x="300" y="200"/>
      <point x="173" y="179"/>
      <point x="72" y="179" type="curve" smooth="yes"/>
      <point x="39" y="179"/>
      <point x="1" y="180"/>
      <point x="-44" y="180" type="curve" smooth="yes"/>
      <point x="-73" y="180"/>
      <point x="-87" y="137"/>
      <point x="-87" y="90" type="curve" smooth="yes"/>
      <point x="-87" y="43"/>
      <point x="-73" y="0"/>
      <point x="-44" y="0" type="curve" smooth="yes"/>
    </contour>
    <contour>
      <point x="305" y="580" type="move" name="above"/>
    </contour>
    <contour>
      <point x="330" y="0" type="move" name="below"/>
    </contour>
    <contour>
      <point x="305" y="700" type="move" name="diaA"/>
    </contour>
    <contour>
      <point x="202" y="-202" type="move" name="diaB"/>
    </contour>
    <contour>
      <point x="125" y="684" type="move" name="alef"/>
    </contour>
  </outline>
</glyph>
<glyph name="absHahSmallTahAboveIni" format="1">
  <advance width="715"/>
  <outline>
    <component base="absHahIni"/>
    <component base="_tah" xOffset="305" yOffset="741"/>
    <contour>
      <point x="117" y="909" type="move" name="alef"/>
    </contour>
    <contour>
      <point x="263" y="1182" type="move" name="diaA"/>
    </contour>
    <contour>
      <point x="202" y="-202" type="move" name="diaB"/>
    </contour>
  </outline>
</glyph>
<glyph name="absHahSmallTahAboveMed" format="1">
  <advance width="952"/>
  <outline>
    <component base="absHahMed"/>
    <component base="_tah" xOffset="411" yOffset="734"/>
    <contour>
      <point x="161" y="905" type="move" name="alef"/>
    </contour>
    <contour>
      <point x="360" y="1154" type="move" name="diaA"/>
    </contour>
    <contour>
      <point x="300" y="-202" type="move" name="diaB"/>
    </contour>
  </outline>
</glyph>
<glyph name="absHahSmallTahTwoDotsFin" format="1">
  <advance width="889"/>
  <outline>
    <component base="absHahFin"/>
    <component base="_dot2h_tah" xOffset="424" yOffset="-400"/>
    <contour>
      <point x="174" y="698" type="move" name="alef"/>
    </contour>
    <contour>
      <point x="381" y="701" type="move" name="diaA"/>
    </contour>
    <contour>
      <point x="202" y="-802" type="move" name="diaB"/>
    </contour>
  </outline>
</glyph>
<glyph name="absHahSmallTahTwoDotsIni" format="1">
  <advance width="715"/>
  <outline>
    <component base="absHahIni"/>
    <component base="_dot2h_tah" xOffset="330" yOffset="-636"/>
    <contour>
      <point x="125" y="684" type="move" name="alef"/>
    </contour>
    <contour>
      <point x="305" y="700" type="move" name="diaA"/>
    </contour>
    <contour>
      <point x="304" y="-802" type="move" name="diaB"/>
    </contour>
  </outline>
</glyph>
<glyph name="absHahThreeDotsUpBelowMed" format="1">
  <advance width="952"/>
  <outline>
    <component base="absHahMed"/>
    <component base="_dot3u" xOffset="443" yOffset="-274"/>
    <contour>
      <point x="165" y="720" type="move" name="alef"/>
    </contour>
    <contour>
      <point x="340" y="725" type="move" name="diaA"/>
    </contour>
    <contour>
      <point x="373" y="-571" type="move" name="diaB"/>
    </contour>
  </outline>
</glyph>
<glyph name="absHahTwoDotsAboveIni" format="1">
  <advance width="715"/>
  <outline>
    <component base="absHahIni"/>
    <component base="_dot2h" xOffset="305" yOffset="760"/>
    <contour>
      <point x="109" y="969" type="move" name="alef"/>
    </contour>
    <contour>
      <point x="259" y="1008" type="move" name="diaA"/>
    </contour>
    <contour>
      <point x="202" y="-202" type="move" name="diaB"/>
    </contour>
  </outline>
</glyph>
<glyph name="absHahTwoDotsAboveMed" format="1">
  <advance width="952"/>
  <outline>
    <component base="absHahMed"/>
    <component base="_dot2h" xOffset="411" yOffset="753"/>
    <contour>
      <point x="161" y="937" type="move" name="alef"/>
    </contour>
    <contour>
      <point x="340" y="1004" type="move" name="diaA"/>
    </contour>
    <contour>
      <point x="300" y="-202" type="move" name="diaB"/>
    </contour>
  </outline>
</glyph>
<glyph name="absHahTwoDotsVerticalAboveFin" format="1">
  <advance width="889"/>
  <outline>
    <component base="absHahFin"/>
    <component base="_dot2v" xOffset="436" yOffset="847"/>
    <contour>
      <point x="171" y="1011" type="move" name="alef"/>
    </contour>
    <contour>
      <point x="381" y="1126" type="move" name="diaA"/>
    </contour>
    <contour>
      <point x="202" y="-802" type="move" name="diaB"/>
    </contour>
  </outline>
</glyph>
<glyph name="absHahTwoDotsVerticalAboveMed" format="1">
  <advance width="952"/>
  <outline>
    <component base="absHahMed"/>
    <component base="_dot2v" xOffset="411" yOffset="859"/>
    <contour>
      <point x="161" y="1066" type="move" name="alef"/>
    </contour>
    <contour>
      <point x="340" y="1146" type="move" name="diaA"/>
    </contour>
    <contour>
      <point x="300" y="-202" type="move" name="diaB"/>
    </contour>
  </outline>
</glyph>
<glyph name="absHamzaDamma" format="1">
  <advance width="0"/>
  <outline>
    <contour>
      <point x="248" y="913" type="curve" smooth="yes"/>
      <point x="270" y="913"/>
      <point x="293" y="942"/>
      <point x="293" y="963" type="curve" smooth="yes"/>
      <point x="293" y="993"/>
      <point x="254" y="1022"/>
      <point x="225" y="1022" type="curve" smooth="yes"/>
      <point x="184" y="1022"/>
      <point x="20" y="893"/>
      <point x="20" y="850" type="curve" smooth="yes"/>
      <point x="20" y="809"/>
      <point x="63" y="774"/>
      <point x="63" y="750" type="curve" smooth="yes"/>
      <point x="63" y="733"/>
      <point x="8" y="674"/>
      <point x="-4" y="657" type="curve"/>
      <point x="14" y="631" type="line"/>
      <point x="81" y="692"/>
      <point x="178" y="739"/>
      <point x="268" y="739" type="curve" smooth="yes"/>
      <point x="272" y="739"/>
      <point x="276" y="739"/>
      <point x="279" y="739" type="curve" smooth="yes"/>
      <point x="317" y="737" type="line"/>
      <point x="367" y="821" type="line"/>
      <point x="203" y="821" type="line" smooth="yes"/>
      <point x="178" y="821"/>
      <point x="109" y="834"/>
      <point x="109" y="866" type="curve" smooth="yes"/>
      <point x="109" y="895"/>
      <point x="160" y="930"/>
      <point x="186" y="930" type="curve" smooth="yes"/>
      <point x="209" y="930"/>
      <point x="227" y="913"/>
    </contour>
    <contour>
      <point x="313" y="1168" type="line"/>
      <point x="254" y="1206" type="line"/>
      <point x="270" y="1222"/>
      <point x="315" y="1284"/>
      <point x="315" y="1353" type="curve" smooth="yes"/>
      <point x="315" y="1397"/>
      <point x="282" y="1426"/>
      <point x="236" y="1426" type="curve" smooth="yes"/>
      <point x="199" y="1426"/>
      <point x="101" y="1389"/>
      <point x="101" y="1293" type="curve" smooth="yes"/>
      <point x="101" y="1284"/>
      <point x="102" y="1275"/>
      <point x="104" y="1265" type="curve" smooth="yes"/>
      <point x="110" y="1238"/>
      <point x="171" y="1189"/>
      <point x="171" y="1189" type="curve"/>
      <point x="171" y="1189"/>
      <point x="118" y="1138"/>
      <point x="83" y="1113" type="curve" smooth="yes"/>
      <point x="51" y="1091"/>
      <point x="-19" y="1052"/>
      <point x="-19" y="1052" type="curve"/>
      <point x="8" y="1005" type="line"/>
      <point x="8" y="1005"/>
      <point x="90" y="1046"/>
      <point x="135" y="1080" type="curve" smooth="yes"/>
      <point x="175" y="1110"/>
      <point x="192" y="1128"/>
      <point x="217" y="1154" type="curve"/>
      <point x="278" y="1117" type="line"/>
    </contour>
    <contour>
      <point x="163" y="1299" type="curve" smooth="yes"/>
      <point x="163" y="1347"/>
      <point x="200" y="1367"/>
      <point x="215" y="1367" type="curve" smooth="yes"/>
      <point x="233" y="1367"/>
      <point x="249" y="1352"/>
      <point x="249" y="1326" type="curve" smooth="yes"/>
      <point x="249" y="1292"/>
      <point x="233" y="1259"/>
      <point x="208" y="1238" type="curve"/>
      <point x="189" y="1250"/>
      <point x="163" y="1274"/>
    </contour>
    <contour>
      <point x="178" y="625" type="move" name="_diaA"/>
    </contour>
    <contour>
      <point x="176" y="1461" type="move" name="diaA"/>
    </contour>
  </outline>
</glyph>
<glyph name="absHehDoachashmeeFin" format="1">
  <advance width="799"/>
  <outline>
    <contour>
      <point x="817" y="0" type="line"/>
      <point x="860" y="0"/>
      <point x="880" y="42"/>
      <point x="880" y="89" type="curve" smooth="yes"/>
      <point x="880" y="136"/>
      <point x="860" y="180"/>
      <point x="817" y="180" type="curve"/>
      <point x="694" y="180" type="line" smooth="yes"/>
      <point x="625" y="180"/>
      <point x="561" y="184"/>
      <point x="483" y="174" type="curve"/>
      <point x="555" y="227"/>
      <point x="631" y="300"/>
      <point x="631" y="453" type="curve" smooth="yes"/>
      <point x="631" y="545"/>
      <point x="600" y="637"/>
      <point x="561" y="637" type="curve" smooth="yes"/>
      <point x="487" y="637"/>
      <point x="289" y="232"/>
      <point x="279" y="154" type="curve"/>
      <point x="55" y="72" type="line"/>
      <point x="-8" y="0" type="line"/>
      <point x="260" y="45" type="line"/>
      <point x="262" y="-59"/>
      <point x="326" y="-340"/>
      <point x="465" y="-340" type="curve" smooth="yes"/>
      <point x="563" y="-340"/>
      <point x="606" y="-220"/>
      <point x="606" y="-100" type="curve" smooth="yes"/>
      <point x="606" y="-82"/>
      <point x="592" y="4"/>
      <point x="575" y="14" type="curve"/>
      <point x="633" y="0"/>
      <point x="682" y="0"/>
      <point x="735" y="0" type="curve" smooth="yes"/>
    </contour>
    <contour>
      <point x="551" y="338" type="curve" smooth="yes"/>
      <point x="551" y="264"/>
      <point x="420" y="209"/>
      <point x="360" y="184" type="curve"/>
      <point x="377" y="233"/>
      <point x="449" y="442"/>
      <point x="506" y="442" type="curve" smooth="yes"/>
      <point x="539" y="442"/>
      <point x="551" y="362"/>
    </contour>
    <contour>
      <point x="557" y="-152" type="curve" smooth="yes"/>
      <point x="557" y="-172"/>
      <point x="506" y="-178"/>
      <point x="494" y="-178" type="curve" smooth="yes"/>
      <point x="395" y="-178"/>
      <point x="340" y="-90"/>
      <point x="334" y="-2" type="curve"/>
      <point x="410" y="-6"/>
      <point x="557" y="-59"/>
    </contour>
    <contour>
      <point x="555" y="686" type="move" name="above"/>
    </contour>
    <contour>
      <point x="461" y="-399" type="move" name="below"/>
    </contour>
    <contour>
      <point x="404" y="700" type="move" name="diaA"/>
    </contour>
    <contour>
      <point x="288" y="-454" type="move" name="diaB"/>
    </contour>
    <contour>
      <point x="213" y="543" type="move" name="alef"/>
    </contour>
  </outline>
</glyph>
<glyph name="absHehFin.knottedFlat" format="1">
  <advance width="799"/>
  <outline>
    <component base="absHehDoachashmeeFin"/>
    <contour>
      <point x="213" y="543" type="move" name="alef"/>
    </contour>
    <contour>
      <point x="404" y="700" type="move" name="diaA"/>
    </contour>
    <contour>
      <point x="288" y="-454" type="move" name="diaB"/>
    </contour>
  </outline>
</glyph>
<glyph name="absHehGoalFin" format="1">
  <advance width="762"/>
  <outline>
    <contour>
      <point x="662" y="180" type="line"/>
      <point x="551" y="180"/>
      <point x="547" y="340"/>
      <point x="389" y="340" type="curve" smooth="yes"/>
      <point x="207" y="340"/>
      <point x="23" y="-10"/>
      <point x="4" y="-170" type="curve"/>
      <point x="41" y="-172" type="line"/>
      <point x="105" y="-57"/>
      <point x="221" y="133"/>
      <point x="369" y="133" type="curve" smooth="yes"/>
      <point x="473" y="133"/>
      <point x="494" y="0"/>
      <point x="664" y="0" type="curve" smooth="yes"/>
      <point x="801" y="0" type="line" smooth="yes"/>
      <point x="831" y="0"/>
      <point x="846" y="43"/>
      <point x="846" y="90" type="curve" smooth="yes"/>
      <point x="846" y="137"/>
      <point x="831" y="180"/>
      <point x="801" y="180" type="curve" smooth="yes"/>
    </contour>
    <contour>
      <point x="402" y="390" type="move" name="above"/>
    </contour>
    <contour>
      <point x="246" y="543" type="move" name="alef"/>
    </contour>
    <contour>
      <point x="394" y="-100" type="move" name="below"/>
    </contour>
    <contour>
      <point x="402" y="700" type="move" name="diaA"/>
    </contour>
    <contour>
      <point x="235" y="-251" type="move" name="diaB"/>
    </contour>
  </outline>
</glyph>
<glyph name="absHehGoalHamzaAboveIni" format="1">
  <advance width="338"/>
  <outline>
    <component base="absHehGoalIni"/>
    <component base="_hamza" xOffset="201" yOffset="719"/>
    <contour>
      <point x="149" y="1033" type="move" name="diaA"/>
    </contour>
    <contour>
      <point x="170" y="-563" type="move" name="diaB"/>
    </contour>
  </outline>
</glyph>
<glyph name="absHehGoalHamzaAboveMed" format="1">
  <advance width="877"/>
  <outline>
    <component base="absHehGoalMed"/>
    <component base="_hamza" xOffset="513" yOffset="724"/>
    <contour>
      <point x="156" y="842" type="move" name="alef"/>
    </contour>
    <contour>
      <point x="429" y="1020" type="move" name="diaA"/>
    </contour>
    <contour>
      <point x="227" y="-867" type="move" name="diaB"/>
    </contour>
  </outline>
</glyph>
<glyph name="absHehIni" format="1">
  <advance width="610"/>
  <outline>
    <component base="absHehDoachashmeeIni"/>
    <contour>
      <point x="88" y="788" type="move" name="alef"/>
    </contour>
    <contour>
      <point x="235" y="891" type="move" name="diaA"/>
    </contour>
    <contour>
      <point x="202" y="-202" type="move" name="diaB"/>
    </contour>
  </outline>
</glyph>
<glyph name="absHehMed" format="1">
  <advance width="698"/>
  <outline>
    <component base="absHehDoachashmeeMed"/>
    <contour>
      <point x="149" y="637" type="move" name="alef"/>
    </contour>
    <contour>
      <point x="365" y="712" type="move" name="diaA"/>
    </contour>
    <contour>
      <point x="235" y="-454" type="move" name="diaB"/>
    </contour>
  </outline>
</glyph>
<glyph name="absHehMed.hooked" format="1">
  <advance width="952"/>
  <outline>
    <component base="absHehGoalMed"/>
    <contour>
      <point x="149" y="637" type="move" name="alef"/>
    </contour>
    <contour>
      <point x="428" y="700" type="move" name="diaA"/>
    </contour>
    <contour>
      <point x="223" y="-846" type="move" name="diaB"/>
    </contour>
  </outline>
</glyph>
<glyph name="absHehYehAboveFin" format="1">
  <advance width="672"/>
  <outline>
    <component base="absAeFin"/>
    <component base="_hamza" xOffset="384" yOffset="1010"/>
    <contour>
      <point x="141" y="1154" type="move" name="alef"/>
    </contour>
    <contour>
      <point x="368" y="1263" type="move" name="diaA"/>
    </contour>
    <contour>
      <point x="202" y="-202" type="move" name="diaB"/>
    </contour>
  </outline>
</glyph>
<glyph name="absHighHamzaAlefFin" format="1">
  <advance width="467"/>
  <outline>
    <component base="absAlefFin"/>
    <component base="_highHamza" xOffset="246" yOffset="1322"/>
    <contour>
      <point x="227" y="1624" type="move" name="diaA"/>
    </contour>
    <contour>
      <point x="202" y="-202" type="move" name="diaB"/>
    </contour>
  </outline>
</glyph>
<glyph name="absHighHamzaAlefFin.postLamIni" format="1">
  <advance width="576"/>
  <outline>
    <component base="absAlefFin.postLamIni"/>
    <component base="_highHamza" xOffset="128" yOffset="1188"/>
    <contour>
      <point x="22" y="1419" type="move" name="diaA"/>
    </contour>
    <contour>
      <point x="312" y="-312" type="move" name="diaB"/>
    </contour>
    <contour>
      <point x="574" y="0" type="move" name="entry"/>
    </contour>
  </outline>
</glyph>
<glyph name="absHighHamzaYehFin" format="1">
  <advance width="1036"/>
  <outline>
    <component base="_highHamza" xOffset="574" yOffset="409"/>
    <component base="absYehFin.noDots"/>
    <contour>
      <point x="375" y="329" type="move" name="alef"/>
    </contour>
    <contour>
      <point x="443" y="729" type="move" name="diaA"/>
    </contour>
    <contour>
      <point x="277" y="-575" type="move" name="diaB"/>
    </contour>
  </outline>
</glyph>
<glyph name="absHighHamzaYehIni" format="1">
  <advance width="338"/>
  <outline>
    <component base="absBehNoDotsIni"/>
    <component base="_highHamza" xOffset="224" yOffset="703"/>
    <contour>
      <point x="109" y="1020" type="move" name="diaA"/>
    </contour>
    <contour>
      <point x="150" y="-202" type="move" name="diaB"/>
    </contour>
  </outline>
</glyph>
<glyph name="absJeemFin" format="1">
  <advance width="889"/>
  <outline>
    <component base="absHahFin"/>
    <component base="_dot1" xOffset="424" yOffset="-212"/>
    <contour>
      <point x="174" y="698" type="move" name="alef"/>
    </contour>
    <contour>
      <point x="381" y="701" type="move" name="diaA"/>
    </contour>
    <contour>
      <point x="202" y="-802" type="move" name="diaB"/>
    </contour>
  </outline>
</glyph>
<glyph name="absJeemIni" format="1">
  <advance width="715"/>
  <outline>
    <component base="absHahIni"/>
    <component base="_dot1" xOffset="330" yOffset="-180"/>
    <contour>
      <point x="125" y="684" type="move" name="alef"/>
    </contour>
    <contour>
      <point x="305" y="700" type="move" name="diaA"/>
    </contour>
    <contour>
      <point x="198" y="-352" type="move" name="diaB"/>
    </contour>
  </outline>
</glyph>
<glyph name="absJeemMed" format="1">
  <advance width="952"/>
  <outline>
    <component base="absHahMed"/>
    <component base="_dot1" xOffset="443" yOffset="-168"/>
    <contour>
      <point x="165" y="720" type="move" name="alef"/>
    </contour>
    <contour>
      <point x="340" y="725" type="move" name="diaA"/>
    </contour>
    <contour>
      <point x="275" y="-344" type="move" name="diaB"/>
    </contour>
  </outline>
</glyph>
<glyph name="absJehFin" format="1">
  <advance width="542"/>
  <outline>
    <component base="absRehFin"/>
    <component base="_dot3u" xOffset="350" yOffset="573"/>
    <contour>
      <point x="99" y="797" type="move" name="alef"/>
    </contour>
    <contour>
      <point x="280" y="871" type="move" name="diaA"/>
    </contour>
    <contour>
      <point x="175" y="-490" type="move" name="diaB"/>
    </contour>
  </outline>
</glyph>
<glyph name="absKafDotAboveFin" format="1">
  <advance width="1179"/>
  <outline>
    <component base="absKafFin"/>
    <component base="_dot1" xOffset="512" yOffset="1033"/>
    <contour>
      <point x="337" y="1141" type="move" name="alef"/>
    </contour>
    <contour>
      <point x="460" y="1219" type="move" name="diaA"/>
    </contour>
    <contour>
      <point x="300" y="-202" type="move" name="diaB"/>
    </contour>
  </outline>
</glyph>
<glyph name="absKafRingMed" format="1">
  <advance width="932"/>
  <outline>
    <component base="absKafMed"/>
    <component base="_ring" xOffset="413" yOffset="771"/>
    <contour>
      <point x="142" y="1020" type="move" name="diaA"/>
    </contour>
    <contour>
      <point x="150" y="-200" type="move" name="diaB"/>
    </contour>
  </outline>
</glyph>
<glyph name="absKafThreeDotsBelowIni" format="1">
  <advance width="633"/>
  <outline>
    <component base="absKafIni"/>
    <component base="_dot3d" xOffset="137" yOffset="-336"/>
    <contour>
      <point x="150" y="1049" type="move" name="diaA"/>
    </contour>
    <contour>
      <point x="150" y="-597" type="move" name="diaB"/>
    </contour>
  </outline>
</glyph>
<glyph name="absKehehDotAboveFin" format="1">
  <advance width="1577"/>
  <outline>
    <component base="absKehehFin"/>
    <component base="_dot1" xOffset="708" yOffset="1015"/>
    <contour>
      <point x="242" y="761" type="move" name="alef"/>
    </contour>
    <contour>
      <point x="640" y="1178" type="move" name="diaA"/>
    </contour>
    <contour>
      <point x="316" y="-202" type="move" name="diaB"/>
    </contour>
  </outline>
</glyph>
<glyph name="absKehehIni" format="1">
  <advance width="633"/>
  <outline>
    <component base="absKafIni"/>
    <contour>
      <point x="150" y="1049" type="move" name="diaA"/>
    </contour>
    <contour>
      <point x="150" y="-200" type="move" name="diaB"/>
    </contour>
  </outline>
</glyph>
<glyph name="absKehehThreeDotsAboveIni" format="1">
  <advance width="633"/>
  <outline>
    <component base="absKafIni"/>
    <component base="_dot3u" xOffset="75" yOffset="1134"/>
    <contour>
      <point x="130" y="1417" type="move" name="diaA"/>
    </contour>
    <contour>
      <point x="150" y="-200" type="move" name="diaB"/>
    </contour>
  </outline>
</glyph>
<glyph name="absKehehThreeDotsUpBelowIni" format="1">
  <advance width="633"/>
  <outline>
    <component base="absKafIni"/>
    <component base="_dot3u" xOffset="137" yOffset="-336"/>
    <contour>
      <point x="150" y="1049" type="move" name="diaA"/>
    </contour>
    <contour>
      <point x="146" y="-607" type="move" name="diaB"/>
    </contour>
  </outline>
</glyph>
<glyph name="absKehehThreeDotsUpBelowMed" format="1">
  <advance width="932"/>
  <outline>
    <component base="absKafMed"/>
    <component base="_dot3u" xOffset="131" yOffset="-330"/>
    <contour>
      <point x="142" y="1020" type="move" name="diaA"/>
    </contour>
    <contour>
      <point x="130" y="-595" type="move" name="diaB"/>
    </contour>
  </outline>
</glyph>
<glyph name="absKhahFin" format="1">
  <advance width="889"/>
  <outline>
    <component base="absHahFin"/>
    <component base="_dot1" xOffset="436" yOffset="741"/>
    <contour>
      <point x="167" y="805" type="move" name="alef"/>
    </contour>
    <contour>
      <point x="381" y="919" type="move" name="diaA"/>
    </contour>
    <contour>
      <point x="202" y="-802" type="move" name="diaB"/>
    </contour>
  </outline>
</glyph>
<glyph name="absKhahMed" format="1">
  <advance width="952"/>
  <outline>
    <component base="absHahMed"/>
    <component base="_dot1" xOffset="411" yOffset="753"/>
    <contour>
      <point x="161" y="820" type="move" name="alef"/>
    </contour>
    <contour>
      <point x="340" y="956" type="move" name="diaA"/>
    </contour>
    <contour>
      <point x="300" y="-202" type="move" name="diaB"/>
    </contour>
  </outline>
</glyph>
<glyph name="absLamBarMed" format="1">
  <advance width="438"/>
  <outline>
    <component base="absLamMed"/>
    <component base="_bar" xOffset="181" yOffset="662"/>
    <contour>
      <point x="0" y="802" type="move" name="alef"/>
    </contour>
    <contour>
      <point x="178" y="1168" type="move" name="diaA"/>
    </contour>
    <contour>
      <point x="150" y="-200" type="move" name="diaB"/>
    </contour>
  </outline>
</glyph>
<glyph name="absLamBarMed.preAlef" format="1">
  <advance width="502"/>
  <outline>
    <component base="absLamMed.preAlef"/>
    <component base="_bar" xOffset="242" yOffset="681"/>
    <contour>
      <point x="1" y="802" type="move" name="alef"/>
    </contour>
    <contour>
      <point x="173" y="1178" type="move" name="diaA"/>
    </contour>
    <contour>
      <point x="227" y="-251" type="move" name="diaB"/>
    </contour>
    <contour>
      <point x="0" y="-100" type="move" name="exit"/>
    </contour>
  </outline>
</glyph>
<glyph name="absLamDotAboveIni" format="1">
  <advance width="338"/>
  <outline>
    <component base="absLamIni"/>
    <component base="_dot1" xOffset="175" yOffset="1339"/>
    <contour>
      <point x="0" y="551" type="move" name="alef"/>
    </contour>
    <contour>
      <point x="113" y="1514" type="move" name="diaA"/>
    </contour>
    <contour>
      <point x="150" y="-202" type="move" name="diaB"/>
    </contour>
  </outline>
</glyph>
<glyph name="absLamDotAboveIni.preAlef" format="1">
  <advance width="346"/>
  <outline>
    <component base="absLamIni.preAlef"/>
    <component base="_dot1" xOffset="195" yOffset="1344"/>
    <contour>
      <point x="-13" y="814" type="move" name="alef"/>
    </contour>
    <contour>
      <point x="161" y="1600" type="move" name="diaA"/>
    </contour>
    <contour>
      <point x="125" y="-300" type="move" name="diaB"/>
    </contour>
    <contour>
      <point x="-2" y="0" type="move" name="exit"/>
    </contour>
  </outline>
</glyph>
<glyph name="absLamFin" format="1">
  <advance width="906"/>
  <outline>
    <contour>
      <point x="950" y="180" type="curve"/>
      <point x="897" y="174"/>
      <point x="789" y="180"/>
      <point x="752" y="233" type="curve" smooth="yes"/>
      <point x="696" y="313"/>
      <point x="680" y="469"/>
      <point x="672" y="557" type="curve" smooth="yes"/>
      <point x="629" y="1098" type="line"/>
      <point x="535" y="950" type="line"/>
      <point x="557" y="616"/>
      <point x="613" y="200"/>
      <point x="604" y="-96" type="curve"/>
      <point x="565" y="-172"/>
      <point x="397" y="-209"/>
      <point x="322" y="-209" type="curve" smooth="yes"/>
      <point x="209" y="-209"/>
      <point x="106" y="-162"/>
      <point x="106" y="-37" type="curve" smooth="yes"/>
      <point x="106" y="31"/>
      <point x="118" y="89"/>
      <point x="138" y="172" type="curve" smooth="yes"/>
      <point x="139" y="176"/>
      <point x="131" y="185"/>
      <point x="127" y="180" type="curve" smooth="yes"/>
      <point x="63" y="100"/>
      <point x="25" y="-20"/>
      <point x="25" y="-137" type="curve" smooth="yes"/>
      <point x="25" y="-305"/>
      <point x="111" y="-406"/>
      <point x="285" y="-406" type="curve" smooth="yes"/>
      <point x="563" y="-406"/>
      <point x="686" y="-176"/>
      <point x="682" y="88" type="curve"/>
      <point x="723" y="43"/>
      <point x="795" y="0"/>
      <point x="856" y="0" type="curve" smooth="yes"/>
      <point x="950" y="0" type="line"/>
      <point x="1000" y="0"/>
      <point x="1010" y="67"/>
      <point x="1010" y="90" type="curve" smooth="yes"/>
      <point x="1010" y="129"/>
      <point x="1000" y="180"/>
    </contour>
    <contour>
      <point x="586" y="1147" type="move" name="above"/>
    </contour>
    <contour>
      <point x="352" y="692" type="move" name="alef"/>
    </contour>
    <contour>
      <point x="592" y="-374" type="move" name="below"/>
    </contour>
    <contour>
      <point x="487" y="1148" type="move" name="diaA"/>
    </contour>
    <contour>
      <point x="202" y="-502" type="move" name="diaB"/>
    </contour>
    <contour>
      <point x="605" y="586" type="move" name="through"/>
    </contour>
  </outline>
</glyph>
<glyph name="absLamIni" format="1">
  <advance width="338"/>
  <outline>
    <contour>
      <point x="55" y="0" type="line"/>
      <point x="231" y="0"/>
      <point x="283" y="225"/>
      <point x="283" y="365" type="curve" smooth="yes"/>
      <point x="283" y="502"/>
      <point x="266" y="650"/>
      <point x="260" y="787" type="curve"/>
      <point x="272" y="781" type="line"/>
      <point x="289" y="811"/>
      <point x="310" y="900"/>
      <point x="317" y="922" type="curve"/>
      <point x="287" y="944"/>
      <point x="231" y="993"/>
      <point x="231" y="1032" type="curve" smooth="yes"/>
      <point x="231" y="1059"/>
      <point x="235" y="1085"/>
      <point x="245" y="1118" type="curve" smooth="yes"/>
      <point x="246" y="1122"/>
      <point x="246" y="1128"/>
      <point x="238" y="1125" type="curve" smooth="yes"/>
      <point x="207" y="1114"/>
      <point x="113" y="958"/>
      <point x="113" y="932" type="curve" smooth="yes"/>
      <point x="113" y="911"/>
      <point x="154" y="862"/>
      <point x="170" y="846" type="curve"/>
      <point x="199" y="217" type="line"/>
      <point x="133" y="187"/>
      <point x="100" y="180"/>
      <point x="-40" y="180" type="curve" smooth="yes"/>
      <point x="-71" y="180"/>
      <point x="-86" y="137"/>
      <point x="-86" y="90" type="curve" smooth="yes"/>
      <point x="-86" y="43"/>
      <point x="-71" y="0"/>
      <point x="-40" y="0" type="curve" smooth="yes"/>
    </contour>
    <contour>
      <point x="175" y="1159" type="move" name="above"/>
    </contour>
    <contour>
      <point x="199" y="-37" type="move" name="below"/>
    </contour>
    <contour>
      <point x="224" y="592" type="move" name="through"/>
    </contour>
    <contour>
      <point x="202" y="1199" type="move" name="diaA"/>
    </contour>
    <contour>
      <point x="150" y="-202" type="move" name="diaB"/>
    </contour>
    <contour>
      <point x="0" y="802" type="move" name="alef"/>
    </contour>
  </outline>
</glyph>
<glyph name="absLamMed.preAlef" format="1">
  <advance width="502"/>
  <outline>
    <contour>
      <point x="5" y="-50" type="curve" smooth="yes"/>
      <point x="-71" y="-87"/>
      <point x="-218" y="-100"/>
      <point x="-342" y="-90" type="curve"/>
      <point x="-330" y="-163"/>
      <point x="-235" y="-201"/>
      <point x="-104" y="-201" type="curve" smooth="yes"/>
      <point x="92" y="-201"/>
      <point x="235" y="-144"/>
      <point x="277" y="174" type="curve"/>
      <point x="287" y="147"/>
      <point x="312" y="88"/>
      <point x="328" y="66" type="curve" smooth="yes"/>
      <point x="354" y="31"/>
      <point x="401" y="0"/>
      <point x="453" y="0" type="curve" smooth="yes"/>
      <point x="523" y="0" type="line" smooth="yes"/>
      <point x="564" y="0"/>
      <point x="584" y="46"/>
      <point x="584" y="93" type="curve" smooth="yes"/>
      <point x="584" y="140"/>
      <point x="564" y="180"/>
      <point x="523" y="180" type="curve" smooth="yes"/>
      <point x="349" y="180"/>
      <point x="318" y="256"/>
      <point x="310" y="418" type="curve"/>
      <point x="271" y="1110" type="line"/>
      <point x="173" y="1004" type="line"/>
      <point x="183" y="803"/>
      <point x="207" y="584"/>
      <point x="207" y="385" type="curve" smooth="yes"/>
      <point x="207" y="183"/>
      <point x="140" y="16"/>
    </contour>
    <contour>
      <point x="223" y="1147" type="move" name="above"/>
    </contour>
    <contour>
      <point x="235" y="-168" type="move" name="below"/>
    </contour>
    <contour>
      <point x="242" y="711" type="move" name="through"/>
    </contour>
    <contour>
      <point x="173" y="1178" type="move" name="diaA"/>
    </contour>
    <contour>
      <point x="227" y="-251" type="move" name="diaB"/>
    </contour>
    <contour>
      <point x="1" y="802" type="move" name="alef"/>
    </contour>
    <contour>
      <point x="0" y="-100" type="move" name="exit"/>
    </contour>
  </outline>
</glyph>
<glyph name="absLamThreeDotsAboveFin" format="1">
  <advance width="906"/>
  <outline>
    <component base="absLamFin"/>
    <component base="_dot3u" xOffset="586" yOffset="1433"/>
    <contour>
      <point x="254" y="688" type="move" name="alef"/>
    </contour>
    <contour>
      <point x="487" y="1694" type="move" name="diaA"/>
    </contour>
    <contour>
      <point x="202" y="-502" type="move" name="diaB"/>
    </contour>
  </outline>
</glyph>
<glyph name="absLamThreeDotsAboveMed" format="1">
  <advance width="438"/>
  <outline>
    <component base="absLamMed"/>
    <component base="_dot3u" xOffset="168" yOffset="1451"/>
    <contour>
      <point x="0" y="802" type="move" name="alef"/>
    </contour>
    <contour>
      <point x="134" y="1753" type="move" name="diaA"/>
    </contour>
    <contour>
      <point x="150" y="-200" type="move" name="diaB"/>
    </contour>
  </outline>
</glyph>
<glyph name="absLamThreeDotsBelowIni.preAlef" format="1">
  <advance width="346"/>
  <outline>
    <component base="absLamIni.preAlef"/>
    <component base="_dot3d" xOffset="123" yOffset="-488"/>
    <contour>
      <point x="-13" y="814" type="move" name="alef"/>
    </contour>
    <contour>
      <point x="84" y="1170" type="move" name="diaA"/>
    </contour>
    <contour>
      <point x="102" y="-800" type="move" name="diaB"/>
    </contour>
    <contour>
      <point x="-2" y="0" type="move" name="exit"/>
    </contour>
  </outline>
</glyph>
<glyph name="absLamThreeDotsBelowMed" format="1">
  <advance width="438"/>
  <outline>
    <component base="absLamMed"/>
    <component base="_dot3d" xOffset="193" yOffset="-298"/>
    <contour>
      <point x="0" y="802" type="move" name="alef"/>
    </contour>
    <contour>
      <point x="178" y="1168" type="move" name="diaA"/>
    </contour>
    <contour>
      <point x="150" y="-559" type="move" name="diaB"/>
    </contour>
  </outline>
</glyph>
<glyph name="absLigatureAllah" format="1">
  <advance width="1307"/>
  <outline>
    <contour>
      <point x="1207" y="365" type="curve" smooth="yes"/>
      <point x="1207" y="502"/>
      <point x="1191" y="650"/>
      <point x="1185" y="787" type="curve"/>
      <point x="1194" y="780" type="line"/>
      <point x="1211" y="810"/>
      <point x="1234" y="900"/>
      <point x="1241" y="922" type="curve"/>
      <point x="1211" y="944"/>
      <point x="1155" y="993"/>
      <point x="1155" y="1032" type="curve" smooth="yes"/>
      <point x="1155" y="1059"/>
      <point x="1170" y="1081"/>
      <point x="1170" y="1106" type="curve" smooth="yes"/>
      <point x="1170" y="1110"/>
      <point x="1168" y="1124"/>
      <point x="1160" y="1124" type="curve" smooth="yes"/>
      <point x="1139" y="1124"/>
      <point x="1037" y="958"/>
      <point x="1037" y="932" type="curve" smooth="yes"/>
      <point x="1037" y="911"/>
      <point x="1078" y="862"/>
      <point x="1094" y="846" type="curve"/>
      <point x="1123" y="217" type="line"/>
      <point x="1093" y="196"/>
      <point x="1059" y="184"/>
      <point x="979" y="184" type="curve" smooth="yes"/>
      <point x="875" y="184"/>
      <point x="834" y="324"/>
      <point x="827" y="424" type="curve" smooth="yes"/>
      <point x="786" y="968" type="line"/>
      <point x="690" y="862" type="line"/>
      <point x="725" y="403"/>
      <point x="731" y="365"/>
      <point x="731" y="324" type="curve" smooth="yes"/>
      <point x="731" y="214"/>
      <point x="674" y="185"/>
      <point x="593" y="185" type="curve"/>
      <point x="494" y="185"/>
      <point x="456" y="267"/>
      <point x="442" y="332" type="curve" smooth="yes"/>
      <point x="413" y="461"/>
      <point x="395" y="596"/>
      <point x="383" y="728" type="curve"/>
      <point x="327" y="605" type="line"/>
      <point x="344" y="492" type="line"/>
      <point x="295" y="478"/>
      <point x="139" y="381"/>
      <point x="108" y="342" type="curve" smooth="yes"/>
      <point x="67" y="291"/>
      <point x="30" y="177"/>
      <point x="30" y="109" type="curve" smooth="yes"/>
      <point x="30" y="60"/>
      <point x="128" y="50"/>
      <point x="164" y="50" type="curve" smooth="yes"/>
      <point x="274" y="50"/>
      <point x="346" y="84"/>
      <point x="395" y="193" type="curve"/>
      <point x="413" y="100"/>
      <point x="475" y="0"/>
      <point x="579" y="0" type="curve" smooth="yes"/>
      <point x="728" y="0"/>
      <point x="759" y="95"/>
      <point x="786" y="180" type="curve"/>
      <point x="798" y="121"/>
      <point x="889" y="0"/>
      <point x="977" y="0" type="curve" smooth="yes"/>
      <point x="1171" y="0"/>
      <point x="1207" y="114"/>
    </contour>
    <contour>
      <point x="789" y="1022" type="curve" smooth="yes"/>
      <point x="873" y="1022"/>
      <point x="875" y="1145"/>
      <point x="875" y="1207" type="curve" smooth="yes"/>
      <point x="875" y="1229"/>
      <point x="873" y="1252"/>
      <point x="871" y="1274" type="curve"/>
      <point x="836" y="1256" type="line"/>
      <point x="838" y="1252"/>
      <point x="840" y="1230"/>
      <point x="840" y="1226" type="curve" smooth="yes"/>
      <point x="844" y="1190"/>
      <point x="824" y="1108"/>
      <point x="785" y="1108" type="curve" smooth="yes"/>
      <point x="756" y="1108"/>
      <point x="740" y="1180"/>
      <point x="738" y="1202" type="curve"/>
      <point x="703" y="1184" type="line"/>
      <point x="715" y="1155"/>
      <point x="692" y="1045"/>
      <point x="651" y="1045" type="curve" smooth="yes"/>
      <point x="615" y="1045"/>
      <point x="596" y="1098"/>
      <point x="596" y="1129" type="curve"/>
      <point x="598" y="1133" type="line"/>
      <point x="568" y="1116" type="line"/>
      <point x="570" y="1075"/>
      <point x="584" y="953"/>
      <point x="637" y="953" type="curve" smooth="yes"/>
      <point x="684" y="953"/>
      <point x="717" y="1006"/>
      <point x="742" y="1037" type="curve"/>
      <point x="760" y="1032"/>
      <point x="768" y="1022"/>
    </contour>
    <contour>
      <point x="664" y="1557" type="line"/>
      <point x="664" y="1557"/>
      <point x="664" y="1489"/>
      <point x="674" y="1426" type="curve" smooth="yes"/>
      <point x="690" y="1331"/>
      <point x="688" y="1278"/>
      <point x="688" y="1278" type="curve"/>
      <point x="688" y="1278"/>
      <point x="733" y="1278"/>
      <point x="748" y="1389" type="curve" smooth="yes"/>
      <point x="756" y="1446"/>
      <point x="742" y="1522"/>
      <point x="740" y="1645" type="curve"/>
    </contour>
    <contour>
      <point x="366" y="297" type="line"/>
      <point x="366" y="268"/>
      <point x="246" y="242"/>
      <point x="227" y="242" type="curve" smooth="yes"/>
      <point x="190" y="242"/>
      <point x="153" y="259"/>
      <point x="153" y="271" type="curve" smooth="yes"/>
      <point x="153" y="287"/>
      <point x="325" y="388"/>
      <point x="348" y="388" type="curve" smooth="yes"/>
      <point x="350" y="388" type="line"/>
    </contour>
  </outline>
</glyph>
<glyph name="absMeemDotAboveFin" format="1">
  <advance width="625"/>
  <outline>
    <component base="absMeemFin"/>
    <component base="_dot1" xOffset="392" yOffset="581"/>
    <contour>
      <point x="179" y="691" type="move" name="alef"/>
    </contour>
    <contour>
      <point x="377" y="832" type="move" name="diaA"/>
    </contour>
    <contour>
      <point x="130" y="-636" type="move" name="diaB"/>
    </contour>
  </outline>
</glyph>
<glyph name="absMeemDotAboveIni" format="1">
  <advance width="604"/>
  <outline>
    <component base="absMeemIni"/>
    <component base="_dot1" xOffset="386" yOffset="741"/>
    <contour>
      <point x="125" y="551" type="move" name="alef"/>
    </contour>
    <contour>
      <point x="312" y="952" type="move" name="diaA"/>
    </contour>
    <contour>
      <point x="202" y="-202" type="move" name="diaB"/>
    </contour>
  </outline>
</glyph>
<glyph name="absMeemDotAbove.sindhi" format="1">
  <advance width="912"/>
  <outline>
    <component base="absMeem.sindhi"/>
    <component base="_dot1" xOffset="678" yOffset="760"/>
    <contour>
      <point x="266" y="579" type="move" name="alef"/>
    </contour>
    <contour>
      <point x="498" y="777" type="move" name="diaA"/>
    </contour>
    <contour>
      <point x="202" y="-202" type="move" name="diaB"/>
    </contour>
  </outline>
</glyph>
<glyph name="absMeemDotBelowFin" format="1">
  <advance width="625"/>
  <outline>
    <component base="absMeemFin"/>
    <component base="_dot1" xOffset="402" yOffset="-350"/>
    <contour>
      <point x="185" y="532" type="move" name="alef"/>
    </contour>
    <contour>
      <point x="377" y="535" type="move" name="diaA"/>
    </contour>
    <contour>
      <point x="130" y="-636" type="move" name="diaB"/>
    </contour>
  </outline>
</glyph>
<glyph name="absMeemDotBelowIni" format="1">
  <advance width="604"/>
  <outline>
    <component base="absMeemIni"/>
    <component base="_dot1" xOffset="355" yOffset="-180"/>
    <contour>
      <point x="125" y="551" type="move" name="alef"/>
    </contour>
    <contour>
      <point x="240" y="700" type="move" name="diaA"/>
    </contour>
    <contour>
      <point x="202" y="-336" type="move" name="diaB"/>
    </contour>
  </outline>
</glyph>
<glyph name="absMeemDotBelow.sindhi" format="1">
  <advance width="912"/>
  <outline>
    <component base="absMeem.sindhi"/>
    <component base="_dot1" xOffset="637" yOffset="-180"/>
    <contour>
      <point x="266" y="579" type="move" name="alef"/>
    </contour>
    <contour>
      <point x="498" y="777" type="move" name="diaA"/>
    </contour>
    <contour>
      <point x="202" y="-202" type="move" name="diaB"/>
    </contour>
  </outline>
</glyph>
<glyph name="absMeemFin" format="1">
  <advance width="625"/>
  <outline>
    <contour>
      <point x="582" y="0" type="line"/>
      <point x="549" y="0"/>
      <point x="503" y="8"/>
      <point x="461" y="63" type="curve"/>
      <point x="461" y="-56"/>
      <point x="436" y="-104"/>
      <point x="412" y="-104" type="curve" smooth="yes"/>
      <point x="325" y="-104"/>
      <point x="268" y="-25"/>
      <point x="248" y="88" type="curve"/>
      <point x="182" y="82"/>
      <point x="139" y="68"/>
      <point x="111" y="23" type="curve"/>
      <point x="111" y="-99"/>
      <point x="124" y="-322"/>
      <point x="131" y="-495" type="curve"/>
      <point x="130" y="-535"/>
      <point x="100" y="-606"/>
      <point x="86" y="-609" type="curve"/>
      <point x="48" y="-20" type="line"/>
      <point x="48" y="10"/>
      <point x="57" y="53"/>
      <point x="90" y="104" type="curve" smooth="yes"/>
      <point x="166" y="221"/>
      <point x="241" y="233"/>
      <point x="306" y="233" type="curve"/>
      <point x="322" y="278"/>
      <point x="366" y="323"/>
      <point x="383" y="334" type="curve"/>
      <point x="398" y="329" type="line"/>
      <point x="422" y="224"/>
      <point x="497" y="180"/>
      <point x="556" y="180" type="curve" smooth="yes"/>
      <point x="648" y="180" type="line" smooth="yes"/>
      <point x="698" y="180"/>
      <point x="723" y="137"/>
      <point x="723" y="90" type="curve" smooth="yes"/>
      <point x="723" y="44"/>
      <point x="698" y="0"/>
      <point x="648" y="0" type="curve" smooth="yes"/>
    </contour>
    <contour>
      <point x="392" y="401" type="move" name="above"/>
    </contour>
    <contour>
      <point x="402" y="-170" type="move" name="below"/>
    </contour>
    <contour>
      <point x="377" y="535" type="move" name="diaA"/>
    </contour>
    <contour>
      <point x="130" y="-636" type="move" name="diaB"/>
    </contour>
    <contour>
      <point x="185" y="532" type="move" name="alef"/>
    </contour>
  </outline>
</glyph>
<glyph name="absMeemFin.sindhi" format="1">
  <advance width="1020"/>
  <outline>
    <contour>
      <point x="672" y="391" type="curve" smooth="yes"/>
      <point x="616" y="391"/>
      <point x="485" y="219"/>
      <point x="446" y="176" type="curve" smooth="yes"/>
      <point x="272" y="-20"/>
      <point x="221" y="-43"/>
      <point x="-39" y="-84" type="curve"/>
      <point x="-16" y="-119" type="line"/>
      <point x="-12" y="-123"/>
      <point x="35" y="-123"/>
      <point x="37" y="-123" type="curve" smooth="yes"/>
      <point x="158" y="-123"/>
      <point x="348" y="-115"/>
      <point x="434" y="-12" type="curve" smooth="yes"/>
      <point x="461" y="20"/>
      <point x="487" y="51"/>
      <point x="516" y="84" type="curve"/>
      <point x="573" y="33"/>
      <point x="680" y="-41"/>
      <point x="760" y="-41" type="curve" smooth="yes"/>
      <point x="784" y="-41"/>
      <point x="813" y="18"/>
      <point x="815" y="41" type="curve"/>
      <point x="844" y="18"/>
      <point x="889" y="0"/>
      <point x="926" y="0" type="curve" smooth="yes"/>
      <point x="1044" y="0" type="line" smooth="yes"/>
      <point x="1083" y="0"/>
      <point x="1103" y="43"/>
      <point x="1103" y="90" type="curve" smooth="yes"/>
      <point x="1103" y="137"/>
      <point x="1083" y="180"/>
      <point x="1044" y="180" type="curve" smooth="yes"/>
      <point x="987" y="180"/>
      <point x="936" y="184"/>
      <point x="885" y="209" type="curve" smooth="yes"/>
      <point x="797" y="252"/>
      <point x="768" y="391"/>
    </contour>
    <contour>
      <point x="676" y="311" type="curve" smooth="yes"/>
      <point x="694" y="311"/>
      <point x="741" y="158"/>
      <point x="741" y="133" type="curve" smooth="yes"/>
      <point x="741" y="127"/>
      <point x="737" y="125"/>
      <point x="729" y="125" type="curve" smooth="yes"/>
      <point x="696" y="125"/>
      <point x="586" y="188"/>
      <point x="586" y="223" type="curve" smooth="yes"/>
      <point x="586" y="258"/>
      <point x="641" y="311"/>
    </contour>
    <contour>
      <point x="661" y="449" type="move" name="above"/>
    </contour>
    <contour>
      <point x="636" y="-93" type="move" name="below"/>
    </contour>
    <contour>
      <point x="502" y="700" type="move" name="diaA"/>
    </contour>
    <contour>
      <point x="300" y="-243" type="move" name="diaB"/>
    </contour>
    <contour>
      <point x="288" y="542" type="move" name="alef"/>
    </contour>
  </outline>
</glyph>
<glyph name="absMeemMed" format="1">
  <advance width="694"/>
  <outline>
    <contour>
      <point x="98" y="0" type="line"/>
      <point x="143" y="0"/>
      <point x="170" y="29"/>
      <point x="193" y="74" type="curve"/>
      <point x="250" y="25"/>
      <point x="346" y="-39"/>
      <point x="424" y="-39" type="curve" smooth="yes"/>
      <point x="451" y="-39"/>
      <point x="477" y="16"/>
      <point x="481" y="39" type="curve"/>
      <point x="510" y="17"/>
      <point x="566" y="0"/>
      <point x="590" y="0" type="curve" smooth="yes"/>
      <point x="720" y="0" type="line" smooth="yes"/>
      <point x="758" y="0"/>
      <point x="777" y="43"/>
      <point x="777" y="90" type="curve" smooth="yes"/>
      <point x="777" y="137"/>
      <point x="758" y="180"/>
      <point x="720" y="180" type="curve" smooth="yes"/>
      <point x="599" y="180"/>
      <point x="529" y="195"/>
      <point x="496" y="232" type="curve" smooth="yes"/>
      <point x="432" y="303"/>
      <point x="427" y="389"/>
      <point x="338" y="389" type="curve" smooth="yes"/>
      <point x="283" y="389"/>
      <point x="193" y="256"/>
      <point x="152" y="219" type="curve" smooth="yes"/>
      <point x="115" y="186"/>
      <point x="70" y="180"/>
      <point x="-36" y="180" type="curve" smooth="yes"/>
      <point x="-69" y="180"/>
      <point x="-85" y="137"/>
      <point x="-85" y="90" type="curve" smooth="yes"/>
      <point x="-85" y="43"/>
      <point x="-69" y="0"/>
      <point x="-36" y="0" type="curve" smooth="yes"/>
    </contour>
    <contour>
      <point x="254" y="221" type="curve" smooth="yes"/>
      <point x="254" y="252"/>
      <point x="305" y="307"/>
      <point x="336" y="307" type="curve" smooth="yes"/>
      <point x="367" y="307"/>
      <point x="408" y="162"/>
      <point x="408" y="133" type="curve" smooth="yes"/>
      <point x="408" y="125"/>
      <point x="406" y="123"/>
      <point x="397" y="123" type="curve" smooth="yes"/>
      <point x="365" y="123"/>
      <point x="254" y="186"/>
    </contour>
    <contour>
      <point x="303" y="439" type="move" name="above"/>
    </contour>
    <contour>
      <point x="125" y="684" type="move" name="alef"/>
    </contour>
    <contour>
      <point x="303" y="-89" type="move" name="below"/>
    </contour>
    <contour>
      <point x="303" y="700" type="move" name="diaA"/>
    </contour>
    <contour>
      <point x="202" y="-202" type="move" name="diaB"/>
    </contour>
  </outline>
</glyph>
<glyph name="absMeem.sindhi" format="1">
  <advance width="912"/>
  <outline>
    <contour>
      <point x="-6" y="-74" type="line"/>
      <point x="0" y="-79"/>
      <point x="7" y="-81"/>
      <point x="15" y="-81" type="curve" smooth="yes"/>
      <point x="288" y="-81"/>
      <point x="393" y="-66"/>
      <point x="526" y="154" type="curve"/>
      <point x="578" y="117"/>
      <point x="674" y="61"/>
      <point x="735" y="61" type="curve" smooth="yes"/>
      <point x="836" y="61"/>
      <point x="874" y="186"/>
      <point x="874" y="268" type="curve" smooth="yes"/>
      <point x="874" y="324"/>
      <point x="788" y="520"/>
      <point x="727" y="520" type="curve" smooth="yes"/>
      <point x="631" y="520"/>
      <point x="518" y="291"/>
      <point x="453" y="221" type="curve" smooth="yes"/>
      <point x="280" y="38"/>
      <point x="225" y="1"/>
      <point x="-29" y="-39" type="curve"/>
    </contour>
    <contour>
      <point x="592" y="284" type="curve"/>
      <point x="607" y="322"/>
      <point x="645" y="381"/>
      <point x="680" y="381" type="curve" smooth="yes"/>
      <point x="737" y="381"/>
      <point x="778" y="293"/>
      <point x="778" y="244" type="curve" smooth="yes"/>
      <point x="778" y="221"/>
      <point x="762" y="211"/>
      <point x="741" y="211" type="curve" smooth="yes"/>
      <point x="713" y="211"/>
      <point x="605" y="260"/>
    </contour>
    <contour>
      <point x="678" y="580" type="move" name="above"/>
    </contour>
    <contour>
      <point x="637" y="0" type="move" name="below"/>
    </contour>
    <contour>
      <point x="498" y="777" type="move" name="diaA"/>
    </contour>
    <contour>
      <point x="202" y="-202" type="move" name="diaB"/>
    </contour>
    <contour>
      <point x="266" y="579" type="move" name="alef"/>
    </contour>
  </outline>
</glyph>
<glyph name="absNgoehFin" format="1">
  <advance width="1577"/>
  <outline>
    <component base="absKehehFin"/>
    <component base="_gafBar_dot2h" xOffset="610" yOffset="835"/>
    <contour>
      <point x="242" y="761" type="move" name="alef"/>
    </contour>
    <contour>
      <point x="498" y="1324" type="move" name="diaA"/>
    </contour>
    <contour>
      <point x="316" y="-202" type="move" name="diaB"/>
    </contour>
  </outline>
</glyph>
<glyph name="absNgoehIni" format="1">
  <advance width="633"/>
  <outline>
    <component base="absKafIni"/>
    <component base="_gafBar_dot2h" xOffset="-23" yOffset="848"/>
    <contour>
      <point x="81" y="1385" type="move" name="diaA"/>
    </contour>
    <contour>
      <point x="150" y="-200" type="move" name="diaB"/>
    </contour>
  </outline>
</glyph>
